<?xml version="1.0" encoding="UTF-8" standalone="no"?><!DOCTYPE svg PUBLIC "-//W3C//DTD SVG 1.1//EN" "http://www.w3.org/Graphics/SVG/1.1/DTD/svg11.dtd"><svg width="100%" height="100%" viewBox="0 0 755 442" version="1.1" xmlns="http://www.w3.org/2000/svg" xmlns:xlink="http://www.w3.org/1999/xlink" xml:space="preserve" xmlns:serif="http://www.serif.com/" style="fill-rule:evenodd;clip-rule:evenodd;stroke-linejoin:round;stroke-miterlimit:2;"><g id="Layer-1" serif:id="Layer 1"><path d="M622.435,105.439c0,-33.932 -27.548,-61.481 -61.481,-61.481l-442.412,-0c-33.933,-0 -61.482,27.549 -61.482,61.481l0,274.706c0,33.932 27.549,61.481 61.482,61.481l442.412,0c33.933,0 61.481,-27.549 61.481,-61.481l0,-274.706Zm-18.75,-0l0,274.706c0,23.584 -19.147,42.731 -42.731,42.731l-442.412,0c-23.584,0 -42.732,-19.147 -42.732,-42.731c0,-0 0,-274.706 0,-274.706c0,-23.584 19.148,-42.731 42.732,-42.731l442.412,-0c23.584,-0 42.731,19.147 42.731,42.731Z" style="fill:url(#_Radial1);"/><path d="M660.306,111.361c-0.671,0 -1.359,-0.028 -2.065,-0.084c-0.706,-0.055 -1.388,-0.139 -2.045,-0.251c-1.314,-0.224 -2.474,-0.559 -3.48,-1.007l0.859,-4.298c0.643,0.391 1.266,0.716 1.867,0.975c0.601,0.259 1.181,0.465 1.74,0.618c1.23,0.35 2.474,0.525 3.732,0.525c2.684,-0 4.872,-0.811 6.563,-2.433c0.769,-0.74 1.384,-1.635 1.845,-2.683c0.462,-1.049 0.692,-2.181 0.692,-3.397c0,-1.818 -0.559,-3.236 -1.677,-4.257c-1.118,-1.02 -2.684,-1.53 -4.697,-1.53c-1.076,-0 -2.198,0.143 -3.365,0.429c-1.167,0.287 -2.268,0.689 -3.303,1.206l3.041,-15.726l15.851,0l-0.692,3.565l-11.972,-0l-1.51,7.695c0.657,-0.238 1.3,-0.405 1.929,-0.503c0.308,-0.056 0.619,-0.095 0.933,-0.116c0.315,-0.021 0.619,-0.031 0.912,-0.031c2.642,-0 4.76,0.783 6.354,2.348c1.607,1.538 2.411,3.642 2.411,6.312c-0,1.761 -0.364,3.438 -1.09,5.032c-0.741,1.635 -1.783,3.054 -3.125,4.256c-0.601,0.532 -1.247,1.01 -1.939,1.437c-0.692,0.426 -1.45,0.786 -2.275,1.08c-1.58,0.559 -3.411,0.838 -5.494,0.838Z" style="fill:#232246;fill-rule:nonzero;stroke:#e83a5e;stroke-width:1px;"/><path d="M681.756,107.189l6.563,-0l4.362,-22.583l-5.85,4.655l-1.888,-3.124l8.744,-6.689l4.257,0l-5.41,27.741l6.479,-0l-0.692,3.564l-17.257,0l0.692,-3.564Z" style="fill:#232246;fill-rule:nonzero;stroke:#e83a5e;stroke-width:1px;"/><path d="M705.01,107.902c0.056,-0.28 0.14,-0.511 0.251,-0.692c0.112,-0.182 0.259,-0.35 0.441,-0.504l5.976,-5.263l0.817,-0.733c3.663,-3.271 6.455,-6.057 8.377,-8.356c1.922,-2.3 2.883,-4.274 2.883,-5.924c0,-1.202 -0.444,-2.173 -1.331,-2.914c-0.888,-0.741 -2.136,-1.111 -3.743,-1.111c-0.671,-0 -1.363,0.062 -2.076,0.188c-0.713,0.126 -1.405,0.294 -2.076,0.504c-1.398,0.433 -3.019,1.146 -4.864,2.138l0.859,-4.277c0.839,-0.364 1.643,-0.675 2.412,-0.933c0.769,-0.259 1.481,-0.465 2.138,-0.619c0.797,-0.196 1.535,-0.332 2.213,-0.409c0.678,-0.077 1.317,-0.115 1.918,-0.115c2.684,-0 4.812,0.667 6.385,2.002c1.572,1.335 2.359,3.163 2.359,5.484c-0,0.587 -0.056,1.174 -0.168,1.761c-0.112,0.587 -0.308,1.216 -0.587,1.887c-0.559,1.342 -1.377,2.67 -2.453,3.984c-0.252,0.307 -0.556,0.646 -0.912,1.017c-0.357,0.37 -0.885,0.877 -1.584,1.52c-1.383,1.286 -2.568,2.352 -3.554,3.198c-0.985,0.845 -1.66,1.415 -2.023,1.708l-6.919,5.746l14.551,-0l-0.671,3.564l-19.164,0l0.545,-2.851Z" style="fill:#232246;fill-rule:nonzero;stroke:#e83a5e;stroke-width:1px;"/><path d="M741.41,111.361c-2.726,0 -4.578,-1.188 -5.556,-3.564l-0.965,2.956l-3.46,0l6.354,-32.626l3.879,0l-2.37,12.141c1.776,-2.377 4.082,-3.565 6.92,-3.565c2.306,0 4.085,0.748 5.336,2.244c1.251,1.495 1.877,3.718 1.877,6.667c-0,2.111 -0.311,4.114 -0.933,6.008c-0.622,1.894 -1.486,3.571 -2.59,5.032c-1.104,1.461 -2.38,2.611 -3.826,3.449c-1.447,0.839 -3.002,1.258 -4.666,1.258Zm-0.126,-3.271c1.133,0 2.185,-0.328 3.156,-0.985c0.972,-0.657 1.821,-1.552 2.548,-2.684c0.727,-1.132 1.293,-2.432 1.698,-3.9c0.405,-1.468 0.608,-3.019 0.608,-4.655c0,-2.055 -0.342,-3.558 -1.027,-4.508c-0.685,-0.951 -1.671,-1.426 -2.957,-1.426c-1.146,0 -2.212,0.329 -3.197,0.986c-0.986,0.657 -1.849,1.548 -2.59,2.673c-0.741,1.125 -1.321,2.415 -1.74,3.869c-0.42,1.453 -0.629,2.97 -0.629,4.55c-0,2.082 0.363,3.617 1.09,4.602c0.727,0.986 1.74,1.478 3.04,1.478Z" style="fill:#232246;fill-rule:nonzero;stroke:#e83a5e;stroke-width:1px;"/><path d="M655.463,162.723l6.563,0l4.361,-22.582l-5.85,4.655l-1.887,-3.125l8.743,-6.688l4.257,-0l-5.41,27.74l6.479,0l-0.692,3.565l-17.256,-0l0.692,-3.565Z" style="fill:#232246;fill-rule:nonzero;stroke:#e83a5e;stroke-width:1px;"/><path d="M683.979,134.983l4.235,-0l-2.662,13.566l15.558,-13.566l5.326,-0l-14.741,12.979l8.974,18.326l-4.592,-0l-7.548,-15.537l-4.047,3.522l-2.348,12.015l-4.257,-0l6.102,-31.305Z" style="fill:#232246;fill-rule:nonzero;stroke:#e83a5e;stroke-width:1px;"/><path d="M717.045,138.547c-0.391,0 -0.587,-0.174 -0.587,-0.524c0,-0.056 0.007,-0.112 0.021,-0.168l0.713,-3.627c0.056,-0.378 0.28,-0.566 0.671,-0.566l2.6,-0c0.392,-0 0.587,0.174 0.587,0.524c0,0.056 -0.007,0.112 -0.021,0.168l-0.713,3.627c-0.056,0.378 -0.279,0.566 -0.671,0.566l-2.6,0Zm2.559,27.825c-4.781,-0 -7.172,-1.831 -7.172,-5.494c0,-0.964 0.133,-2.013 0.399,-3.145l2.789,-11.91l-5.159,0l0.609,-3.019l9.016,-0l-3.397,15.013c-0.196,0.825 -0.294,1.558 -0.294,2.201c0,2.055 1.258,3.083 3.775,3.083l4.424,-0l-0.65,3.271l-4.34,-0Z" style="fill:#232246;fill-rule:nonzero;stroke:#e83a5e;stroke-width:1px;"/><path d="M736.315,134.983l9.289,-0c2.851,-0 4.997,0.552 6.437,1.656c1.454,1.118 2.181,2.768 2.181,4.949c-0,2.11 -0.643,3.893 -1.929,5.346c-1.273,1.454 -3.006,2.321 -5.201,2.6c1.748,0.322 3.09,1.035 4.026,2.139c0.923,1.091 1.384,2.565 1.384,4.424c0,1.524 -0.276,2.918 -0.828,4.184c-0.552,1.265 -1.387,2.358 -2.506,3.281c-2.208,1.817 -5.361,2.726 -9.456,2.726l-9.478,-0l6.081,-31.305Zm6.835,12.916c2.139,-0 3.803,-0.51 4.991,-1.531c1.202,-1.006 1.803,-2.39 1.803,-4.151c0,-1.328 -0.384,-2.286 -1.153,-2.873c-0.783,-0.587 -2.048,-0.881 -3.795,-0.881l-5.117,0l-1.845,9.436l5.116,-0Zm-2.788,14.908c2.572,0 4.543,-0.608 5.913,-1.824c0.685,-0.615 1.195,-1.363 1.53,-2.244c0.336,-0.88 0.504,-1.831 0.504,-2.851c-0,-0.881 -0.119,-1.59 -0.357,-2.128c-0.237,-0.539 -0.594,-0.989 -1.069,-1.353c-0.937,-0.713 -2.412,-1.069 -4.424,-1.069l-5.054,-0l-2.243,11.469l5.2,0Z" style="fill:#232246;fill-rule:nonzero;stroke:#e83a5e;stroke-width:1px;"/><path d="M665.213,399.265l-13.294,0l0.755,-4.004l16.46,-19.836l4.885,-0l-3.984,20.402l4.152,-0l-0.629,3.438l-4.173,0l-1.467,7.465l-4.152,-0l1.447,-7.465Zm0.65,-3.438l3.187,-15.978l-13.105,15.978l9.918,-0Z" style="fill:#232246;fill-rule:nonzero;stroke:#e83a5e;stroke-width:1px;"/><path d="M682.05,375.425l5.64,-0l2.307,15.852l8.68,-15.852l5.662,-0l-6.102,31.305l-3.9,-0l5.41,-27.824l-9.1,16.669l-2.957,0l-2.411,-16.669l-5.368,27.824l-3.9,-0l6.039,-31.305Z" style="fill:#232246;fill-rule:nonzero;stroke:#e83a5e;stroke-width:1px;"/><path d="M716.249,378.989c-0.392,0 -0.587,-0.174 -0.587,-0.524c-0,-0.056 0.007,-0.112 0.02,-0.168l0.713,-3.627c0.056,-0.377 0.28,-0.566 0.671,-0.566l2.6,-0c0.392,-0 0.588,0.175 0.588,0.524c-0,0.056 -0.007,0.112 -0.021,0.168l-0.713,3.627c-0.056,0.378 -0.28,0.566 -0.671,0.566l-2.6,0Zm2.558,27.825c-4.781,-0 -7.171,-1.831 -7.171,-5.494c-0,-0.964 0.132,-2.013 0.398,-3.145l2.789,-11.91l-5.158,0l0.608,-3.019l9.016,-0l-3.397,15.013c-0.196,0.825 -0.293,1.559 -0.293,2.202c-0,2.054 1.258,3.082 3.774,3.082l4.424,-0l-0.65,3.271l-4.34,-0Z" style="fill:#232246;fill-rule:nonzero;stroke:#e83a5e;stroke-width:1px;"/><path d="M735.518,375.425l9.289,-0c2.852,-0 4.997,0.552 6.437,1.656c1.454,1.119 2.181,2.768 2.181,4.949c-0,2.111 -0.643,3.893 -1.929,5.347c-1.272,1.453 -3.006,2.32 -5.2,2.6c1.747,0.321 3.089,1.034 4.026,2.138c0.922,1.091 1.383,2.565 1.383,4.425c0,1.523 -0.276,2.918 -0.828,4.183c-0.552,1.265 -1.387,2.359 -2.505,3.281c-2.209,1.817 -5.361,2.726 -9.457,2.726l-9.478,-0l6.081,-31.305Zm6.836,12.916c2.138,0 3.802,-0.51 4.99,-1.531c1.202,-1.006 1.803,-2.39 1.803,-4.151c0,-1.328 -0.384,-2.286 -1.153,-2.873c-0.783,-0.587 -2.048,-0.88 -3.795,-0.88l-5.116,-0l-1.845,9.435l5.116,0Zm-2.789,14.908c2.572,0 4.543,-0.608 5.913,-1.824c0.685,-0.615 1.195,-1.363 1.531,-2.243c0.335,-0.881 0.503,-1.832 0.503,-2.852c-0,-0.881 -0.119,-1.59 -0.357,-2.128c-0.237,-0.539 -0.594,-0.989 -1.069,-1.353c-0.937,-0.713 -2.411,-1.069 -4.424,-1.069l-5.054,-0l-2.243,11.469l5.2,0Z" style="fill:#232246;fill-rule:nonzero;stroke:#e83a5e;stroke-width:1px;"/><path d="M657,246.995c-1.199,-0 -2.212,-0.415 -3.041,-1.244c-0.829,-0.828 -1.243,-1.904 -1.243,-3.226c-0,-1.323 0.414,-2.398 1.243,-3.227c0.829,-0.829 1.842,-1.243 3.041,-1.243c1.199,-0 2.213,0.414 3.042,1.243c0.829,0.829 1.243,1.904 1.243,3.227c0,1.322 -0.414,2.398 -1.243,3.226c-0.829,0.829 -1.843,1.244 -3.042,1.244Z" style="fill:#232246;fill-rule:nonzero;stroke:#000;stroke-width:1px;"/><path d="M689.612,246.995c-1.199,-0 -2.213,-0.415 -3.042,-1.244c-0.829,-0.828 -1.243,-1.904 -1.243,-3.226c-0,-1.323 0.414,-2.398 1.243,-3.227c0.829,-0.829 1.843,-1.243 3.042,-1.243c1.199,-0 2.212,0.414 3.041,1.243c0.829,0.829 1.243,1.904 1.243,3.227c0,1.322 -0.414,2.398 -1.243,3.226c-0.829,0.829 -1.842,1.244 -3.041,1.244Z" style="fill:#232246;fill-rule:nonzero;stroke:#000;stroke-width:1px;"/><path d="M722.223,246.995c-1.199,-0 -2.213,-0.415 -3.042,-1.244c-0.829,-0.828 -1.243,-1.904 -1.243,-3.226c-0,-1.323 0.414,-2.398 1.243,-3.227c0.829,-0.829 1.843,-1.243 3.042,-1.243c1.199,-0 2.212,0.414 3.041,1.243c0.829,0.829 1.243,1.904 1.243,3.227c0,1.322 -0.414,2.398 -1.243,3.226c-0.829,0.829 -1.842,1.244 -3.041,1.244Z" style="fill:#232246;fill-rule:nonzero;stroke:#000;stroke-width:1px;"/><path d="M580.149,86.436c0,-4.586 -3.723,-8.309 -8.308,-8.309l-464.238,0c-4.586,0 -8.309,3.723 -8.309,8.309l0,16.617c0,4.585 3.723,8.308 8.309,8.308l464.238,0c4.585,0 8.308,-3.723 8.308,-8.308l0,-16.617Z" style="fill:url(#_Linear2);"/><path d="M229.744,141.97c0,-4.585 -3.723,-8.308 -8.308,-8.308l-113.833,-0c-4.586,-0 -8.309,3.723 -8.309,8.308l0,16.617c0,4.586 3.723,8.309 8.309,8.309l113.833,-0c4.585,-0 8.308,-3.723 8.308,-8.309l0,-16.617Z" style="fill:url(#_Linear3);"/><path d="M580.149,197.904c0,-4.586 -3.723,-8.309 -8.308,-8.309l-464.238,-0c-4.586,-0 -8.309,3.723 -8.309,8.309l0,16.617c0,4.585 3.723,8.308 8.309,8.308l464.238,0c4.585,0 8.308,-3.723 8.308,-8.308l0,-16.617Z" style="fill:url(#_Linear4);"/><path d="M580.176,141.97c-0,-4.585 -3.723,-8.308 -8.309,-8.308l-310.25,-0c-4.586,-0 -8.309,3.723 -8.309,8.308l0,16.617c0,4.586 3.723,8.309 8.309,8.309l310.25,-0c4.586,-0 8.309,-3.723 8.309,-8.309l-0,-16.617Z" style="fill:url(#_Linear5);"/><path d="M580.176,379.202c-0,-4.585 -3.723,-8.308 -8.309,-8.308l-361.223,-0c-4.585,-0 -8.308,3.723 -8.308,8.308l-0,16.617c-0,4.586 3.723,8.309 8.308,8.309l361.223,-0c4.586,-0 8.309,-3.723 8.309,-8.309l-0,-16.617Z" style="fill:#2f2ff4;"/><path d="M580.176,267.371c-0,-4.585 -3.723,-8.308 -8.309,-8.308l-464.238,-0c-4.586,-0 -8.309,3.723 -8.309,8.308l0,16.617c0,4.586 3.723,8.309 8.309,8.309l464.238,-0c4.586,-0 8.309,-3.723 8.309,-8.309l-0,-16.617Z" style="fill:url(#_Linear6);"/><path d="M580.176,323.088c-0,-4.586 -3.723,-8.309 -8.309,-8.309l-464.238,0c-4.586,0 -8.309,3.723 -8.309,8.309l0,16.617c0,4.586 3.723,8.309 8.309,8.309l464.238,-0c4.586,-0 8.309,-3.723 8.309,-8.309l-0,-16.617Z" style="fill:#242246;"/><path d="M177.078,379.202c-0,-4.585 -3.723,-8.308 -8.309,-8.308l-61.14,-0c-4.586,-0 -8.309,3.723 -8.309,8.308l0,16.617c0,4.586 3.723,8.309 8.309,8.309l61.14,-0c4.586,-0 8.309,-3.723 8.309,-8.309l-0,-16.617Z" style="fill:url(#_Linear7);"/><path d="M396.8,102.806c-1.804,-0 -3.206,-0.526 -4.207,-1.577c-1,-1.051 -1.5,-2.516 -1.5,-4.394c-0,-1.886 0.495,-3.359 1.485,-4.42c0.99,-1.062 2.367,-1.592 4.13,-1.592c1.207,-0 2.363,0.291 3.469,0.875l-0,2.726c-0.882,-0.773 -1.875,-1.16 -2.981,-1.16c-0.997,0 -1.759,0.309 -2.288,0.926c-0.529,0.617 -0.794,1.495 -0.794,2.634c0,1.133 0.263,2.006 0.788,2.62c0.526,0.614 1.277,0.921 2.254,0.921c1.159,-0 2.166,-0.39 3.021,-1.17l-0,2.736c-1.011,0.583 -2.136,0.875 -3.377,0.875Z" style="fill:#df385c;fill-rule:nonzero;"/><path d="M403.88,86.682l2.96,0l-0,6.145c0.21,-0.638 0.571,-1.128 1.083,-1.47c0.512,-0.343 1.135,-0.514 1.867,-0.514c1.058,0 1.862,0.363 2.411,1.089c0.549,0.725 0.824,1.786 0.824,3.184l-0,7.395l-2.96,-0l-0,-6.938c-0,-0.793 -0.116,-1.373 -0.346,-1.739c-0.231,-0.366 -0.583,-0.55 -1.058,-0.55c-0.583,0 -1.033,0.241 -1.348,0.723c-0.315,0.481 -0.473,1.142 -0.473,1.983l-0,6.521l-2.96,-0l-0,-15.829Z" style="fill:#df385c;fill-rule:nonzero;"/><path d="M419.556,102.806c-1.058,-0 -1.865,-0.365 -2.422,-1.094c-0.556,-0.729 -0.834,-1.788 -0.834,-3.179l0,-7.415l2.981,-0l-0,6.958c-0,1.526 0.468,2.289 1.404,2.289c0.569,-0 1.012,-0.238 1.327,-0.713c0.316,-0.474 0.473,-1.139 0.473,-1.993l0,-6.541l2.981,-0l-0,11.393l-2.686,-0l-0.295,-1.689c-0.454,1.323 -1.431,1.984 -2.929,1.984Z" style="fill:#df385c;fill-rule:nonzero;"/><path d="M428.965,91.118l2.665,-0l0.295,1.709c0.211,-0.638 0.572,-1.128 1.084,-1.47c0.512,-0.343 1.134,-0.514 1.866,-0.514c1.058,0 1.862,0.363 2.411,1.089c0.55,0.725 0.824,1.786 0.824,3.184l0,7.395l-2.96,-0l0,-6.938c0,-0.8 -0.114,-1.385 -0.341,-1.754c-0.227,-0.37 -0.578,-0.555 -1.053,-0.555c-0.576,0 -1.025,0.244 -1.347,0.733c-0.323,0.488 -0.484,1.152 -0.484,1.993l0,6.521l-2.96,-0l0,-11.393Z" style="fill:#df385c;fill-rule:nonzero;"/><path d="M441.528,86.682l2.981,0l-0,8.311l3.58,-3.875l3.612,-0l-4.313,4.252l4.557,7.141l-3.296,-0l-3.123,-5.33l-1.017,0.976l-0,4.354l-2.981,-0l0,-15.829Z" style="fill:#df385c;fill-rule:nonzero;"/><path d="M454.213,99.866l3.357,0l0,-9.45l-2.278,2.472l-1.425,-1.485l3.724,-4.08l2.899,0l-0,12.543l3.357,0l-0,2.645l-9.634,-0l0,-2.645Z" style="fill:#df385c;fill-rule:nonzero;"/><path d="M396.8,158.341c-1.804,-0 -3.206,-0.526 -4.207,-1.577c-1,-1.051 -1.5,-2.516 -1.5,-4.395c-0,-1.885 0.495,-3.358 1.485,-4.42c0.99,-1.061 2.367,-1.592 4.13,-1.592c1.207,0 2.363,0.292 3.469,0.875l-0,2.726c-0.882,-0.773 -1.875,-1.159 -2.981,-1.159c-0.997,-0 -1.759,0.308 -2.288,0.925c-0.529,0.618 -0.794,1.496 -0.794,2.635c0,1.133 0.263,2.006 0.788,2.62c0.526,0.613 1.277,0.92 2.254,0.92c1.159,0 2.166,-0.39 3.021,-1.17l-0,2.737c-1.011,0.583 -2.136,0.875 -3.377,0.875Z" style="fill:#df385c;fill-rule:nonzero;"/><path d="M403.88,142.217l2.96,0l-0,6.144c0.21,-0.637 0.571,-1.127 1.083,-1.47c0.512,-0.342 1.135,-0.513 1.867,-0.513c1.058,-0 1.862,0.362 2.411,1.088c0.549,0.726 0.824,1.787 0.824,3.184l-0,7.396l-2.96,-0l-0,-6.938c-0,-0.794 -0.116,-1.373 -0.346,-1.74c-0.231,-0.366 -0.583,-0.549 -1.058,-0.549c-0.583,0 -1.033,0.241 -1.348,0.722c-0.315,0.482 -0.473,1.143 -0.473,1.984l-0,6.521l-2.96,-0l-0,-15.829Z" style="fill:#df385c;fill-rule:nonzero;"/><path d="M419.556,158.341c-1.058,-0 -1.865,-0.365 -2.422,-1.094c-0.556,-0.729 -0.834,-1.789 -0.834,-3.179l0,-7.416l2.981,0l-0,6.958c-0,1.526 0.468,2.289 1.404,2.289c0.569,0 1.012,-0.237 1.327,-0.712c0.316,-0.475 0.473,-1.139 0.473,-1.994l0,-6.541l2.981,0l-0,11.394l-2.686,-0l-0.295,-1.689c-0.454,1.322 -1.431,1.984 -2.929,1.984Z" style="fill:#df385c;fill-rule:nonzero;"/><path d="M428.965,146.652l2.665,0l0.295,1.709c0.211,-0.637 0.572,-1.127 1.084,-1.47c0.512,-0.342 1.134,-0.513 1.866,-0.513c1.058,-0 1.862,0.362 2.411,1.088c0.55,0.726 0.824,1.787 0.824,3.184l0,7.396l-2.96,-0l0,-6.938c0,-0.8 -0.114,-1.385 -0.341,-1.755c-0.227,-0.369 -0.578,-0.554 -1.053,-0.554c-0.576,-0 -1.025,0.244 -1.347,0.732c-0.323,0.488 -0.484,1.153 -0.484,1.994l0,6.521l-2.96,-0l0,-11.394Z" style="fill:#df385c;fill-rule:nonzero;"/><path d="M441.528,142.217l2.981,0l-0,8.311l3.58,-3.876l3.612,0l-4.313,4.252l4.557,7.142l-3.296,-0l-3.123,-5.331l-1.017,0.977l-0,4.354l-2.981,-0l0,-15.829Z" style="fill:#df385c;fill-rule:nonzero;"/><path d="M453.471,155.848c-0,-0.23 0.085,-0.441 0.254,-0.63l1.373,-1.465c0.753,-0.814 1.35,-1.455 1.791,-1.923c0.441,-0.468 0.786,-0.841 1.037,-1.119c0.251,-0.278 0.482,-0.532 0.692,-0.763c0.251,-0.291 0.468,-0.558 0.651,-0.798c0.183,-0.241 0.332,-0.487 0.448,-0.738c0.223,-0.454 0.335,-0.912 0.335,-1.373c0,-0.651 -0.206,-1.163 -0.62,-1.536c-0.414,-0.373 -0.994,-0.56 -1.74,-0.56c-0.563,0 -1.163,0.105 -1.8,0.316c-0.332,0.108 -0.673,0.239 -1.023,0.391c-0.349,0.153 -0.707,0.334 -1.073,0.545l0,-2.798c0.407,-0.149 0.794,-0.275 1.16,-0.376c0.366,-0.102 0.692,-0.18 0.977,-0.234c0.698,-0.136 1.376,-0.204 2.034,-0.204c0.739,0 1.429,0.09 2.07,0.27c0.641,0.18 1.202,0.463 1.684,0.849c0.434,0.353 0.771,0.784 1.012,1.292c0.241,0.509 0.361,1.116 0.361,1.821c-0,0.556 -0.102,1.102 -0.305,1.638c-0.251,0.603 -0.594,1.183 -1.028,1.739c-0.237,0.299 -0.583,0.685 -1.037,1.16c-0.455,0.475 -1.095,1.126 -1.923,1.953c-0.495,0.502 -0.885,0.87 -1.17,1.104c-0.285,0.234 -0.515,0.412 -0.691,0.534c-0.177,0.122 -0.353,0.275 -0.529,0.458l6.703,-0l0,2.645l-9.643,-0l-0,-2.198Z" style="fill:#df385c;fill-rule:nonzero;"/><path d="M324.982,214.274c-1.804,-0 -3.206,-0.526 -4.207,-1.577c-1,-1.051 -1.5,-2.516 -1.5,-4.394c-0,-1.886 0.495,-3.359 1.485,-4.42c0.99,-1.062 2.367,-1.592 4.13,-1.592c1.207,-0 2.363,0.291 3.469,0.874l-0,2.727c-0.882,-0.773 -1.875,-1.16 -2.981,-1.16c-0.997,-0 -1.76,0.309 -2.289,0.926c-0.528,0.617 -0.793,1.495 -0.793,2.634c0,1.133 0.263,2.006 0.788,2.62c0.526,0.614 1.277,0.92 2.254,0.92c1.159,0 2.166,-0.39 3.021,-1.169l-0,2.736c-1.011,0.583 -2.136,0.875 -3.377,0.875Z" style="fill:#df385c;fill-rule:nonzero;"/><path d="M332.062,198.15l2.96,0l-0,6.145c0.21,-0.638 0.571,-1.128 1.083,-1.47c0.512,-0.343 1.134,-0.514 1.867,-0.514c1.058,-0 1.861,0.363 2.411,1.088c0.549,0.726 0.824,1.787 0.824,3.184l-0,7.396l-2.96,-0l-0,-6.938c-0,-0.793 -0.116,-1.373 -0.346,-1.739c-0.231,-0.367 -0.584,-0.55 -1.058,-0.55c-0.583,0 -1.033,0.241 -1.348,0.723c-0.315,0.481 -0.473,1.142 -0.473,1.983l-0,6.521l-2.96,-0l-0,-15.829Z" style="fill:#df385c;fill-rule:nonzero;"/><path d="M347.738,214.274c-1.058,-0 -1.865,-0.365 -2.422,-1.094c-0.556,-0.729 -0.834,-1.788 -0.834,-3.179l0,-7.415l2.981,-0l-0,6.958c-0,1.525 0.468,2.288 1.404,2.288c0.569,0 1.012,-0.237 1.327,-0.712c0.316,-0.474 0.473,-1.139 0.473,-1.994l0,-6.54l2.981,-0l-0,11.393l-2.686,-0l-0.295,-1.689c-0.454,1.323 -1.431,1.984 -2.929,1.984Z" style="fill:#df385c;fill-rule:nonzero;"/><path d="M357.147,202.586l2.665,-0l0.295,1.709c0.211,-0.638 0.572,-1.128 1.084,-1.47c0.512,-0.343 1.134,-0.514 1.866,-0.514c1.058,-0 1.862,0.363 2.411,1.088c0.55,0.726 0.824,1.787 0.824,3.184l0,7.396l-2.96,-0l0,-6.938c0,-0.8 -0.114,-1.385 -0.341,-1.755c-0.227,-0.369 -0.578,-0.554 -1.053,-0.554c-0.576,-0 -1.025,0.244 -1.347,0.732c-0.323,0.489 -0.484,1.153 -0.484,1.994l0,6.521l-2.96,-0l0,-11.393Z" style="fill:#df385c;fill-rule:nonzero;"/><path d="M369.71,198.15l2.981,0l-0,8.311l3.58,-3.875l3.612,-0l-4.313,4.252l4.557,7.141l-3.296,-0l-3.123,-5.331l-1.017,0.977l-0,4.354l-2.981,-0l0,-15.829Z" style="fill:#df385c;fill-rule:nonzero;"/><path d="M386.129,214.274c-0.36,-0 -0.729,-0.015 -1.109,-0.046c-0.38,-0.031 -0.756,-0.08 -1.129,-0.147c-0.346,-0.062 -0.699,-0.138 -1.058,-0.229c-0.36,-0.092 -0.719,-0.202 -1.079,-0.331l0,-2.787c0.638,0.325 1.326,0.566 2.065,0.722c0.387,0.088 0.767,0.153 1.14,0.193c0.373,0.041 0.715,0.061 1.027,0.061c0.448,0 0.848,-0.044 1.201,-0.132c0.352,-0.088 0.654,-0.231 0.905,-0.427c0.468,-0.38 0.702,-0.912 0.702,-1.597c-0,-0.726 -0.238,-1.306 -0.712,-1.74c-0.224,-0.196 -0.504,-0.351 -0.839,-0.463c-0.336,-0.112 -0.728,-0.167 -1.175,-0.167l-1.608,-0l0,-2.645l1.608,-0c0.739,-0 1.319,-0.15 1.739,-0.448c0.407,-0.292 0.61,-0.709 0.61,-1.251c0,-0.563 -0.203,-1 -0.61,-1.312c-0.393,-0.312 -0.98,-0.468 -1.76,-0.468c-0.264,-0 -0.551,0.017 -0.859,0.051c-0.309,0.033 -0.626,0.088 -0.951,0.162c-0.306,0.068 -0.631,0.155 -0.977,0.26c-0.346,0.105 -0.695,0.225 -1.048,0.361l0,-2.726c0.706,-0.211 1.394,-0.373 2.065,-0.489c0.672,-0.108 1.319,-0.162 1.943,-0.162c1.621,-0 2.872,0.349 3.754,1.047c0.895,0.699 1.343,1.662 1.343,2.889c-0,0.434 -0.06,0.834 -0.178,1.201c-0.119,0.366 -0.317,0.702 -0.595,1.007c-0.516,0.576 -1.252,0.953 -2.208,1.129c1.085,0.19 1.913,0.62 2.482,1.292c0.57,0.664 0.855,1.56 0.855,2.685c-0,1.452 -0.468,2.566 -1.404,3.342c-0.936,0.777 -2.316,1.165 -4.14,1.165Z" style="fill:#df385c;fill-rule:nonzero;"/><path d="M325.982,339.458c-1.804,0 -3.206,-0.525 -4.207,-1.576c-1,-1.052 -1.5,-2.516 -1.5,-4.395c-0,-1.885 0.495,-3.359 1.485,-4.42c0.99,-1.061 2.367,-1.592 4.13,-1.592c1.207,0 2.363,0.292 3.469,0.875l-0,2.726c-0.882,-0.773 -1.875,-1.16 -2.981,-1.16c-0.997,0 -1.76,0.309 -2.289,0.926c-0.528,0.617 -0.793,1.496 -0.793,2.635c0,1.132 0.263,2.006 0.788,2.619c0.526,0.614 1.277,0.921 2.254,0.921c1.159,-0 2.166,-0.39 3.021,-1.17l-0,2.736c-1.011,0.584 -2.136,0.875 -3.377,0.875Z" style="fill:#df385c;fill-rule:nonzero;"/><path d="M333.062,323.335l2.96,-0l-0,6.144c0.21,-0.637 0.571,-1.127 1.083,-1.47c0.512,-0.342 1.134,-0.514 1.867,-0.514c1.058,0 1.861,0.363 2.411,1.089c0.549,0.726 0.824,1.787 0.824,3.184l-0,7.395l-2.96,0l-0,-6.937c-0,-0.794 -0.116,-1.374 -0.346,-1.74c-0.231,-0.366 -0.584,-0.549 -1.058,-0.549c-0.583,-0 -1.033,0.241 -1.348,0.722c-0.315,0.482 -0.473,1.143 -0.473,1.984l-0,6.52l-2.96,0l-0,-15.828Z" style="fill:#df385c;fill-rule:nonzero;"/><path d="M348.738,339.458c-1.058,0 -1.865,-0.364 -2.422,-1.093c-0.556,-0.729 -0.834,-1.789 -0.834,-3.179l0,-7.416l2.981,0l-0,6.958c-0,1.526 0.468,2.289 1.404,2.289c0.569,-0 1.012,-0.237 1.327,-0.712c0.316,-0.475 0.473,-1.14 0.473,-1.994l0,-6.541l2.981,0l-0,11.393l-2.686,0l-0.295,-1.688c-0.454,1.322 -1.431,1.983 -2.929,1.983Z" style="fill:#df385c;fill-rule:nonzero;"/><path d="M358.147,327.77l2.665,0l0.295,1.709c0.211,-0.637 0.572,-1.127 1.084,-1.47c0.512,-0.342 1.134,-0.514 1.866,-0.514c1.058,0 1.862,0.363 2.411,1.089c0.55,0.726 0.824,1.787 0.824,3.184l0,7.395l-2.96,0l0,-6.937c0,-0.801 -0.114,-1.386 -0.341,-1.755c-0.227,-0.37 -0.578,-0.555 -1.053,-0.555c-0.576,0 -1.025,0.245 -1.347,0.733c-0.323,0.488 -0.484,1.153 -0.484,1.994l0,6.52l-2.96,0l0,-11.393Z" style="fill:#df385c;fill-rule:nonzero;"/><path d="M370.71,323.335l2.981,-0l-0,8.311l3.58,-3.876l3.612,0l-4.313,4.252l4.557,7.141l-3.296,0l-3.123,-5.33l-1.017,0.976l-0,4.354l-2.981,0l0,-15.828Z" style="fill:#df385c;fill-rule:nonzero;"/><path d="M382.693,323.976l3.225,-0l4.232,11.037l-0,-11.037l2.645,-0l-0,15.187l-3.205,0l-4.252,-11.037l0,11.037l-2.645,0l0,-15.187Z" style="fill:#df385c;fill-rule:nonzero;"/><path d="M367.005,383.884l2.685,0l0.295,1.77c0.292,-0.644 0.738,-1.146 1.338,-1.505c0.6,-0.36 1.304,-0.539 2.111,-0.539c0.834,-0 1.607,0.193 2.319,0.58l0,2.838c-0.658,-0.597 -1.519,-0.896 -2.584,-0.896c-0.861,0 -1.559,0.197 -2.095,0.59c-0.536,0.394 -0.868,0.96 -0.997,1.699c-0.034,0.177 -0.058,0.39 -0.071,0.641c-0.014,0.251 -0.021,0.573 -0.021,0.967l0,5.249l-2.98,-0l-0,-11.394Z" style="fill:#e1395d;fill-rule:nonzero;"/><path d="M382.02,395.573c-1.18,-0 -2.135,-0.338 -2.864,-1.013c-0.729,-0.674 -1.094,-1.646 -1.094,-2.914c0,-0.8 0.145,-1.453 0.433,-1.958c0.288,-0.505 0.681,-0.897 1.18,-1.175c0.498,-0.278 1.063,-0.47 1.694,-0.575c0.63,-0.105 1.291,-0.158 1.983,-0.158l2.065,0l0,-0.498c0,-0.407 -0.107,-0.716 -0.32,-0.926c-0.214,-0.21 -0.489,-0.352 -0.824,-0.427c-0.336,-0.075 -0.68,-0.112 -1.033,-0.112c-0.719,0 -1.409,0.098 -2.07,0.295c-0.661,0.197 -1.321,0.475 -1.978,0.834l-0,-2.543c0.705,-0.285 1.405,-0.49 2.1,-0.615c0.695,-0.126 1.399,-0.188 2.111,-0.188c1.248,-0 2.235,0.178 2.96,0.534c0.726,0.356 1.243,0.905 1.552,1.648c0.308,0.742 0.462,1.686 0.462,2.833c0,0.264 -0.005,0.603 -0.015,1.017c-0.01,0.413 -0.015,0.827 -0.015,1.241c-0,0.366 -0.004,0.712 -0.01,1.037c-0.007,0.326 -0.01,0.601 -0.01,0.824c-0,0.197 0.01,0.453 0.03,0.768c0.02,0.316 0.068,0.636 0.142,0.962c0.075,0.325 0.19,0.597 0.346,0.814l-2.95,-0c-0.129,-0.217 -0.224,-0.421 -0.285,-0.611c-0.061,-0.19 -0.105,-0.41 -0.132,-0.661c-0.4,0.536 -0.9,0.931 -1.5,1.185c-0.6,0.254 -1.253,0.382 -1.958,0.382Zm0.976,-2.065c0.624,-0 1.111,-0.172 1.46,-0.514c0.349,-0.343 0.597,-0.773 0.742,-1.292c0.146,-0.519 0.219,-1.043 0.219,-1.572l0,-0.203l-1.19,-0c-0.468,-0 -0.932,0.032 -1.394,0.096c-0.461,0.065 -0.842,0.224 -1.144,0.479c-0.302,0.254 -0.453,0.673 -0.453,1.256c0,0.556 0.155,0.987 0.463,1.292c0.309,0.305 0.741,0.458 1.297,0.458Z" style="fill:#e1395d;fill-rule:nonzero;"/><path d="M391.388,383.884l2.666,0l0.295,1.709c0.21,-0.637 0.571,-1.127 1.083,-1.47c0.512,-0.342 1.134,-0.513 1.867,-0.513c1.058,-0 1.861,0.362 2.411,1.088c0.549,0.726 0.824,1.787 0.824,3.184l-0,7.396l-2.961,-0l0,-6.938c0,-0.8 -0.113,-1.385 -0.34,-1.755c-0.228,-0.369 -0.579,-0.554 -1.053,-0.554c-0.577,-0 -1.026,0.244 -1.348,0.732c-0.322,0.488 -0.483,1.153 -0.483,1.994l-0,6.521l-2.961,-0l0,-11.394Z" style="fill:#e1395d;fill-rule:nonzero;"/><path d="M407.197,395.573c-1.282,-0 -2.286,-0.531 -3.012,-1.592c-0.725,-1.062 -1.088,-2.522 -1.088,-4.38c0,-1.878 0.366,-3.346 1.099,-4.404c0.732,-1.058 1.739,-1.587 3.021,-1.587c1.275,-0 2.279,0.63 3.011,1.892l-0,-6.053l2.97,0l0,15.829l-2.675,-0l-0.295,-1.689c-0.631,1.322 -1.641,1.984 -3.031,1.984Zm0.946,-2.442c0.63,0 1.136,-0.32 1.515,-0.961c0.38,-0.641 0.57,-1.494 0.57,-2.559c-0,-1.064 -0.192,-1.917 -0.575,-2.558c-0.383,-0.641 -0.897,-0.961 -1.541,-0.961c-0.631,-0 -1.127,0.31 -1.49,0.931c-0.363,0.62 -0.544,1.463 -0.544,2.527c-0,1.092 0.188,1.962 0.564,2.61c0.377,0.647 0.877,0.971 1.501,0.971Z" style="fill:#e1395d;fill-rule:nonzero;"/><path d="M420.991,395.573c-1.079,-0 -2.013,-0.243 -2.803,-0.728c-0.79,-0.485 -1.399,-1.175 -1.826,-2.07c-0.427,-0.895 -0.641,-1.953 -0.641,-3.174c0,-1.22 0.215,-2.28 0.646,-3.179c0.431,-0.898 1.044,-1.592 1.841,-2.08c0.797,-0.488 1.742,-0.732 2.833,-0.732c1.079,-0 2.008,0.239 2.788,0.717c0.78,0.478 1.381,1.161 1.805,2.05c0.424,0.888 0.636,1.943 0.636,3.163c0,1.241 -0.215,2.313 -0.646,3.215c-0.431,0.902 -1.039,1.597 -1.826,2.085c-0.787,0.488 -1.722,0.733 -2.807,0.733Zm0.01,-2.421c0.698,-0 1.254,-0.321 1.668,-0.962c0.414,-0.641 0.62,-1.507 0.62,-2.599c0,-1.099 -0.206,-1.967 -0.62,-2.604c-0.414,-0.638 -0.97,-0.956 -1.668,-0.956c-0.706,-0 -1.265,0.32 -1.679,0.961c-0.413,0.641 -0.62,1.507 -0.62,2.599c-0,1.092 0.207,1.958 0.62,2.599c0.414,0.641 0.973,0.962 1.679,0.962Z" style="fill:#e1395d;fill-rule:nonzero;"/><path d="M428.101,383.884l1.872,0l0.295,1.18c0.169,-0.454 0.437,-0.81 0.803,-1.068c0.367,-0.257 0.777,-0.386 1.231,-0.386c0.482,-0 0.912,0.137 1.292,0.412c0.38,0.274 0.611,0.608 0.692,1.002c0.441,-0.943 1.166,-1.414 2.177,-1.414c0.956,-0 1.621,0.335 1.994,1.007c0.373,0.678 0.559,2.092 0.559,4.242l0,6.419l-2.441,-0l-0,-7.314c-0,-0.828 -0.065,-1.391 -0.193,-1.689c-0.129,-0.292 -0.367,-0.438 -0.713,-0.438c-0.332,0 -0.562,0.143 -0.691,0.428c-0.143,0.312 -0.214,0.878 -0.214,1.699l0,7.314l-2.411,-0l0,-7.314c0,-0.801 -0.068,-1.364 -0.203,-1.689c-0.129,-0.292 -0.363,-0.438 -0.702,-0.438c-0.346,0 -0.58,0.136 -0.702,0.407c-0.136,0.272 -0.203,0.845 -0.203,1.72l-0,7.314l-2.442,-0l0,-11.394Z" style="fill:#e1395d;fill-rule:nonzero;"/><path d="M2.173,2.783c-0.163,0 -0.244,-0.081 -0.244,-0.244l-0,-2.295c-0,-0.163 0.081,-0.244 0.244,-0.244l1.896,-0c0.163,-0 0.244,0.081 0.244,0.244l0,2.295c0,0.163 -0.081,0.244 -0.244,0.244l-1.896,0Zm2.938,10.295c-1.129,-0 -1.941,-0.297 -2.438,-0.891c-0.496,-0.594 -0.744,-1.564 -0.744,-2.91l-0,-3.58l-1.929,-0l-0,-1.831l4.313,-0l0,5.411c0,0.706 0.113,1.21 0.338,1.514c0.225,0.304 0.601,0.456 1.127,0.456l1.904,-0l0,1.831l-2.571,-0Z" style="fill:#252246;fill-rule:nonzero;"/><path d="M12.549,13.216c-1.026,0 -1.829,-0.424 -2.409,-1.273c-0.581,-0.85 -0.871,-2.017 -0.871,-3.504c0,-1.503 0.293,-2.677 0.879,-3.524c0.586,-0.846 1.392,-1.269 2.417,-1.269c1.02,-0 1.823,0.504 2.409,1.514l-0,-4.843l2.376,0l0,12.663l-2.14,0l-0.236,-1.351c-0.505,1.058 -1.313,1.587 -2.425,1.587Zm0.757,-1.953c0.504,0 0.908,-0.256 1.212,-0.769c0.304,-0.513 0.456,-1.195 0.456,-2.047c-0,-0.852 -0.153,-1.534 -0.46,-2.046c-0.306,-0.513 -0.717,-0.769 -1.233,-0.769c-0.504,-0 -0.902,0.248 -1.192,0.744c-0.29,0.497 -0.435,1.171 -0.435,2.022c-0,0.874 0.15,1.57 0.451,2.088c0.301,0.518 0.702,0.777 1.201,0.777Z" style="fill:#252246;fill-rule:nonzero;"/><path d="M23.608,6.86c-0.211,0 -0.402,-0.039 -0.573,-0.118c-0.171,-0.078 -0.316,-0.177 -0.436,-0.297c-0.282,-0.282 -0.423,-0.643 -0.423,-1.082c0,-0.233 0.038,-0.441 0.114,-0.623c0.076,-0.181 0.176,-0.335 0.301,-0.459c0.277,-0.277 0.621,-0.415 1.034,-0.415c0.401,-0 0.74,0.138 1.017,0.415c0.125,0.124 0.225,0.278 0.301,0.459c0.076,0.182 0.114,0.387 0.114,0.615c-0,0.456 -0.137,0.82 -0.411,1.094c-0.274,0.274 -0.62,0.411 -1.038,0.411Zm0.009,5.827c-0.402,0 -0.741,-0.138 -1.018,-0.415c-0.282,-0.282 -0.423,-0.643 -0.423,-1.082c0,-0.44 0.141,-0.8 0.423,-1.083c0.277,-0.276 0.616,-0.415 1.018,-0.415c0.406,0 0.748,0.139 1.025,0.415c0.125,0.125 0.225,0.278 0.301,0.46c0.076,0.182 0.114,0.389 0.114,0.623c-0,0.445 -0.138,0.805 -0.415,1.082c-0.277,0.277 -0.619,0.415 -1.025,0.415Z" style="fill:#252246;fill-rule:nonzero;"/><path d="M43.66,13.216c-1.345,0 -2.351,-0.526 -3.019,-1.579c-0.667,-1.047 -1.001,-2.62 -1.001,-4.72c0,-2.11 0.334,-3.689 1.001,-4.736c0.668,-1.047 1.671,-1.571 3.011,-1.571c1.346,0 2.352,0.524 3.02,1.571c0.667,1.047 1.001,2.626 1.001,4.736c-0,4.2 -1.338,6.299 -4.013,6.299Zm-0.008,-2.034c0.559,-0 0.966,-0.339 1.221,-1.018c0.255,-0.689 0.383,-1.771 0.383,-3.247c-0,-1.481 -0.128,-2.566 -0.383,-3.255c-0.255,-0.678 -0.662,-1.017 -1.221,-1.017c-0.553,-0 -0.957,0.339 -1.212,1.017c-0.255,0.689 -0.383,1.774 -0.383,3.255c0,1.476 0.128,2.558 0.383,3.247c0.255,0.679 0.659,1.018 1.212,1.018Zm0.008,-1.945c-0.092,-0 -0.162,-0.099 -0.211,-0.297c-0.049,-0.198 -0.09,-0.419 -0.122,-0.664c-0.022,-0.206 -0.044,-0.451 -0.065,-0.736c-0.022,-0.285 -0.033,-0.503 -0.033,-0.655c0,-0.103 0.006,-0.292 0.016,-0.566c0.011,-0.274 0.033,-0.536 0.066,-0.785c0.076,-0.635 0.187,-0.952 0.333,-0.952c0.082,-0 0.152,0.091 0.212,0.272c0.059,0.182 0.106,0.414 0.138,0.696c0.022,0.228 0.042,0.479 0.061,0.753c0.019,0.274 0.029,0.484 0.029,0.631c-0,0.092 -0.004,0.271 -0.013,0.537c-0.008,0.266 -0.028,0.531 -0.061,0.797c-0.07,0.646 -0.187,0.969 -0.35,0.969Z" style="fill:#252246;fill-rule:nonzero;"/><path d="M53.695,13.216c-1.346,0 -2.352,-0.526 -3.02,-1.579c-0.667,-1.047 -1.001,-2.62 -1.001,-4.72c0,-2.11 0.334,-3.689 1.001,-4.736c0.668,-1.047 1.671,-1.571 3.012,-1.571c1.345,0 2.351,0.524 3.019,1.571c0.667,1.047 1.001,2.626 1.001,4.736c-0,4.2 -1.338,6.299 -4.012,6.299Zm-0.008,-2.034c0.558,-0 0.965,-0.339 1.22,-1.018c0.255,-0.689 0.383,-1.771 0.383,-3.247c-0,-1.481 -0.128,-2.566 -0.383,-3.255c-0.255,-0.678 -0.662,-1.017 -1.22,-1.017c-0.554,-0 -0.958,0.339 -1.213,1.017c-0.255,0.689 -0.383,1.774 -0.383,3.255c0,1.476 0.128,2.558 0.383,3.247c0.255,0.679 0.659,1.018 1.213,1.018Zm0.008,-1.945c-0.093,-0 -0.163,-0.099 -0.212,-0.297c-0.049,-0.198 -0.089,-0.419 -0.122,-0.664c-0.022,-0.206 -0.043,-0.451 -0.065,-0.736c-0.022,-0.285 -0.033,-0.503 -0.033,-0.655c0,-0.103 0.006,-0.292 0.017,-0.566c0.01,-0.274 0.032,-0.536 0.065,-0.785c0.076,-0.635 0.187,-0.952 0.333,-0.952c0.082,-0 0.152,0.091 0.212,0.272c0.06,0.182 0.106,0.414 0.138,0.696c0.022,0.228 0.042,0.479 0.061,0.753c0.019,0.274 0.029,0.484 0.029,0.631c-0,0.092 -0.004,0.271 -0.012,0.537c-0.009,0.266 -0.029,0.531 -0.061,0.797c-0.071,0.646 -0.188,0.969 -0.35,0.969Z" style="fill:#252246;fill-rule:nonzero;"/><path d="M60.238,10.864l2.685,0l0,-7.56l-1.823,1.978l-1.139,-1.189l2.978,-3.263l2.32,0l-0,10.034l2.685,0l0,2.116l-7.706,0l-0,-2.116Z" style="fill:#252246;fill-rule:nonzero;"/><path d="M70.272,10.864l2.685,0l0,-7.56l-1.823,1.978l-1.139,-1.189l2.979,-3.263l2.319,0l-0,10.034l2.686,0l-0,2.116l-7.707,0l-0,-2.116Z" style="fill:#252246;fill-rule:nonzero;"/><path d="M79.712,11.222c-0,-0.184 0.068,-0.352 0.203,-0.504l1.099,-1.172c0.602,-0.651 1.08,-1.164 1.432,-1.538c0.353,-0.375 0.63,-0.673 0.83,-0.895c0.201,-0.223 0.386,-0.426 0.554,-0.611c0.2,-0.233 0.374,-0.446 0.521,-0.639c0.146,-0.192 0.265,-0.389 0.358,-0.59c0.179,-0.363 0.268,-0.729 0.268,-1.098c0,-0.521 -0.165,-0.931 -0.496,-1.229c-0.331,-0.298 -0.795,-0.448 -1.392,-0.448c-0.45,0 -0.93,0.084 -1.44,0.253c-0.266,0.086 -0.539,0.191 -0.818,0.313c-0.28,0.122 -0.566,0.267 -0.859,0.435l0,-2.238c0.326,-0.119 0.635,-0.219 0.928,-0.301c0.293,-0.081 0.553,-0.143 0.781,-0.187c0.559,-0.108 1.102,-0.163 1.628,-0.163c0.591,0 1.143,0.072 1.656,0.216c0.513,0.144 0.962,0.37 1.347,0.68c0.347,0.282 0.617,0.626 0.81,1.033c0.192,0.407 0.288,0.893 0.288,1.457c0,0.445 -0.081,0.881 -0.244,1.31c-0.2,0.483 -0.474,0.947 -0.822,1.392c-0.189,0.238 -0.466,0.548 -0.83,0.927c-0.363,0.38 -0.876,0.901 -1.538,1.563c-0.396,0.401 -0.708,0.696 -0.936,0.883c-0.228,0.187 -0.412,0.329 -0.553,0.427c-0.141,0.098 -0.282,0.22 -0.423,0.366l5.363,0l-0,2.116l-7.715,0l-0,-1.758Z" style="fill:#252246;fill-rule:nonzero;"/><path d="M89.746,11.222c0,-0.184 0.068,-0.352 0.204,-0.504l1.098,-1.172c0.602,-0.651 1.08,-1.164 1.432,-1.538c0.353,-0.375 0.63,-0.673 0.831,-0.895c0.2,-0.223 0.385,-0.426 0.553,-0.611c0.201,-0.233 0.374,-0.446 0.521,-0.639c0.146,-0.192 0.266,-0.389 0.358,-0.59c0.179,-0.363 0.268,-0.729 0.268,-1.098c0,-0.521 -0.165,-0.931 -0.496,-1.229c-0.331,-0.298 -0.795,-0.448 -1.392,-0.448c-0.45,0 -0.93,0.084 -1.44,0.253c-0.266,0.086 -0.539,0.191 -0.818,0.313c-0.279,0.122 -0.566,0.267 -0.858,0.435l-0,-2.238c0.325,-0.119 0.634,-0.219 0.927,-0.301c0.293,-0.081 0.554,-0.143 0.781,-0.187c0.559,-0.108 1.102,-0.163 1.628,-0.163c0.591,0 1.143,0.072 1.656,0.216c0.513,0.144 0.962,0.37 1.347,0.68c0.347,0.282 0.617,0.626 0.81,1.033c0.192,0.407 0.289,0.893 0.289,1.457c-0,0.445 -0.082,0.881 -0.244,1.31c-0.201,0.483 -0.475,0.947 -0.822,1.392c-0.19,0.238 -0.467,0.548 -0.83,0.927c-0.364,0.38 -0.877,0.901 -1.539,1.563c-0.396,0.401 -0.708,0.696 -0.935,0.883c-0.228,0.187 -0.413,0.329 -0.554,0.427c-0.141,0.098 -0.282,0.22 -0.423,0.366l5.363,0l-0,2.116l-7.715,0l0,-1.758Z" style="fill:#252246;fill-rule:nonzero;"/><path d="M103.361,13.216c-0.288,0 -0.583,-0.012 -0.887,-0.036c-0.304,-0.025 -0.605,-0.064 -0.903,-0.118c-0.277,-0.049 -0.559,-0.11 -0.847,-0.184c-0.287,-0.073 -0.575,-0.161 -0.862,-0.264l-0,-2.23c0.51,0.261 1.06,0.453 1.652,0.578c0.309,0.07 0.613,0.122 0.911,0.155c0.299,0.032 0.573,0.048 0.822,0.048c0.358,0 0.678,-0.035 0.96,-0.105c0.282,-0.071 0.524,-0.185 0.725,-0.342c0.374,-0.304 0.561,-0.73 0.561,-1.278c0,-0.58 -0.19,-1.044 -0.569,-1.391c-0.18,-0.158 -0.403,-0.281 -0.672,-0.371c-0.268,-0.089 -0.582,-0.134 -0.94,-0.134l-1.286,-0l0,-2.116l1.286,0c0.592,0 1.055,-0.119 1.392,-0.358c0.325,-0.233 0.488,-0.567 0.488,-1.001c0,-0.45 -0.163,-0.8 -0.488,-1.05c-0.315,-0.249 -0.784,-0.374 -1.408,-0.374c-0.212,-0 -0.441,0.013 -0.688,0.041c-0.247,0.027 -0.5,0.07 -0.761,0.13c-0.244,0.054 -0.504,0.123 -0.781,0.207c-0.277,0.084 -0.556,0.181 -0.838,0.289l-0,-2.181c0.564,-0.168 1.115,-0.298 1.652,-0.39c0.537,-0.087 1.055,-0.131 1.554,-0.131c1.297,0 2.298,0.28 3.003,0.839c0.716,0.558 1.074,1.329 1.074,2.311c0,0.347 -0.047,0.667 -0.142,0.96c-0.095,0.293 -0.254,0.562 -0.476,0.806c-0.412,0.461 -1.001,0.762 -1.766,0.903c0.868,0.152 1.53,0.496 1.986,1.034c0.455,0.531 0.683,1.247 0.683,2.148c0,1.161 -0.374,2.052 -1.123,2.673c-0.749,0.622 -1.853,0.932 -3.312,0.932Z" style="fill:#252246;fill-rule:nonzero;"/><path d="M113.395,13.216c-0.287,0 -0.583,-0.012 -0.887,-0.036c-0.304,-0.025 -0.605,-0.064 -0.903,-0.118c-0.277,-0.049 -0.559,-0.11 -0.847,-0.184c-0.287,-0.073 -0.575,-0.161 -0.862,-0.264l-0,-2.23c0.51,0.261 1.06,0.453 1.652,0.578c0.309,0.07 0.613,0.122 0.911,0.155c0.299,0.032 0.573,0.048 0.822,0.048c0.358,0 0.678,-0.035 0.961,-0.105c0.282,-0.071 0.523,-0.185 0.724,-0.342c0.374,-0.304 0.561,-0.73 0.561,-1.278c0,-0.58 -0.19,-1.044 -0.569,-1.391c-0.179,-0.158 -0.403,-0.281 -0.672,-0.371c-0.268,-0.089 -0.582,-0.134 -0.94,-0.134l-1.285,-0l-0,-2.116l1.285,0c0.592,0 1.056,-0.119 1.392,-0.358c0.325,-0.233 0.488,-0.567 0.488,-1.001c0,-0.45 -0.163,-0.8 -0.488,-1.05c-0.315,-0.249 -0.784,-0.374 -1.408,-0.374c-0.212,-0 -0.441,0.013 -0.688,0.041c-0.246,0.027 -0.5,0.07 -0.76,0.13c-0.245,0.054 -0.505,0.123 -0.782,0.207c-0.276,0.084 -0.556,0.181 -0.838,0.289l0,-2.181c0.564,-0.168 1.115,-0.298 1.652,-0.39c0.537,-0.087 1.055,-0.131 1.554,-0.131c1.297,0 2.298,0.28 3.003,0.839c0.716,0.558 1.075,1.329 1.075,2.311c-0,0.347 -0.048,0.667 -0.143,0.96c-0.095,0.293 -0.253,0.562 -0.476,0.806c-0.412,0.461 -1.001,0.762 -1.766,0.903c0.868,0.152 1.53,0.496 1.986,1.034c0.456,0.531 0.683,1.247 0.683,2.148c0,1.161 -0.374,2.052 -1.123,2.673c-0.748,0.622 -1.852,0.932 -3.312,0.932Z" style="fill:#252246;fill-rule:nonzero;"/><path d="M124.561,10.36l-4.818,-0l-0,-2.328l4.606,-7.202l2.515,0l-0,7.471l1.334,-0l0,2.059l-1.334,-0l-0,2.62l-2.303,0l-0,-2.62Zm-0,-2.059l-0,-4.802l-3.068,4.802l3.068,-0Z" style="fill:#252246;fill-rule:nonzero;"/><path d="M134.595,10.36l-4.818,-0l0,-2.328l4.606,-7.202l2.515,0l-0,7.471l1.334,-0l0,2.059l-1.334,-0l-0,2.62l-2.303,0l-0,-2.62Zm-0,-2.059l-0,-4.802l-3.068,4.802l3.068,-0Z" style="fill:#252246;fill-rule:nonzero;"/><path d="M143.319,13.216c-0.234,0 -0.483,-0.011 -0.749,-0.032c-0.266,-0.022 -0.532,-0.055 -0.798,-0.098c-0.271,-0.043 -0.543,-0.099 -0.817,-0.167c-0.274,-0.068 -0.544,-0.142 -0.81,-0.224l-0,-2.164c0.244,0.119 0.475,0.217 0.692,0.293c0.217,0.076 0.45,0.143 0.699,0.203c0.456,0.114 0.928,0.171 1.416,0.171c0.863,-0 1.509,-0.182 1.937,-0.545c0.44,-0.369 0.66,-0.882 0.66,-1.538c-0,-0.689 -0.213,-1.217 -0.639,-1.583c-0.426,-0.366 -1.024,-0.55 -1.795,-0.55c-0.19,0 -0.392,0.013 -0.606,0.037c-0.214,0.024 -0.43,0.064 -0.647,0.118c-0.222,0.054 -0.449,0.125 -0.68,0.212c-0.23,0.086 -0.44,0.176 -0.63,0.268l-0,-6.787l6.6,0l-0,2.116l-4.655,-0l-0,2.254c0.054,-0.022 0.141,-0.05 0.26,-0.085c0.12,-0.036 0.242,-0.064 0.366,-0.086c0.098,-0.016 0.215,-0.028 0.35,-0.036c0.136,-0.008 0.261,-0.013 0.375,-0.013c0.575,0 1.115,0.097 1.619,0.289c0.505,0.193 0.939,0.474 1.302,0.843c0.353,0.358 0.627,0.789 0.822,1.294c0.195,0.504 0.293,1.068 0.293,1.692c0,1.275 -0.4,2.28 -1.2,3.015c-0.8,0.736 -1.922,1.103 -3.365,1.103Z" style="fill:#252246;fill-rule:nonzero;"/><path d="M153.353,13.216c-0.233,0 -0.483,-0.011 -0.749,-0.032c-0.266,-0.022 -0.532,-0.055 -0.797,-0.098c-0.272,-0.043 -0.544,-0.099 -0.818,-0.167c-0.274,-0.068 -0.544,-0.142 -0.81,-0.224l0,-2.164c0.244,0.119 0.475,0.217 0.692,0.293c0.217,0.076 0.45,0.143 0.7,0.203c0.455,0.114 0.927,0.171 1.416,0.171c0.862,-0 1.508,-0.182 1.937,-0.545c0.439,-0.369 0.659,-0.882 0.659,-1.538c-0,-0.689 -0.213,-1.217 -0.639,-1.583c-0.426,-0.366 -1.024,-0.55 -1.795,-0.55c-0.189,0 -0.392,0.013 -0.606,0.037c-0.214,0.024 -0.43,0.064 -0.647,0.118c-0.222,0.054 -0.449,0.125 -0.679,0.212c-0.231,0.086 -0.441,0.176 -0.631,0.268l-0,-6.787l6.6,0l-0,2.116l-4.655,-0l-0,2.254c0.054,-0.022 0.141,-0.05 0.26,-0.085c0.12,-0.036 0.242,-0.064 0.367,-0.086c0.097,-0.016 0.214,-0.028 0.349,-0.036c0.136,-0.008 0.261,-0.013 0.375,-0.013c0.575,0 1.115,0.097 1.619,0.289c0.505,0.193 0.939,0.474 1.302,0.843c0.353,0.358 0.627,0.789 0.822,1.294c0.196,0.504 0.293,1.068 0.293,1.692c0,1.275 -0.4,2.28 -1.2,3.015c-0.8,0.736 -1.922,1.103 -3.365,1.103Z" style="fill:#252246;fill-rule:nonzero;"/><path d="M164.29,13.232c-0.71,0 -1.327,-0.12 -1.851,-0.362c-0.524,-0.241 -0.959,-0.62 -1.306,-1.135c-0.358,-0.526 -0.617,-1.18 -0.777,-1.961c-0.16,-0.781 -0.24,-1.677 -0.24,-2.686c-0,-1.074 0.095,-2.019 0.284,-2.836c0.19,-0.816 0.505,-1.504 0.944,-2.063c0.825,-1.042 2.043,-1.562 3.654,-1.562c0.429,-0 0.833,0.04 1.213,0.122c0.401,0.081 0.808,0.203 1.221,0.366l-0,2.181c-0.413,-0.244 -0.822,-0.429 -1.229,-0.553c-0.38,-0.12 -0.762,-0.18 -1.148,-0.18c-1.73,0 -2.626,1.153 -2.685,3.459c0.266,-0.369 0.591,-0.635 0.976,-0.797c0.174,-0.076 0.379,-0.139 0.615,-0.188c0.236,-0.048 0.503,-0.073 0.801,-0.073c1.096,0 1.937,0.342 2.523,1.026c0.597,0.689 0.895,1.676 0.895,2.962c0,0.656 -0.082,1.254 -0.248,1.794c-0.165,0.54 -0.416,0.997 -0.753,1.372c-0.672,0.743 -1.635,1.114 -2.889,1.114Zm-0.008,-1.936c0.244,-0 0.47,-0.045 0.676,-0.135c0.206,-0.089 0.382,-0.234 0.529,-0.435c0.276,-0.374 0.415,-0.917 0.415,-1.628c-0,-0.71 -0.139,-1.256 -0.415,-1.635c-0.277,-0.38 -0.681,-0.57 -1.213,-0.57c-0.271,-0 -0.503,0.049 -0.696,0.146c-0.192,0.098 -0.354,0.236 -0.484,0.415c-0.277,0.386 -0.415,0.931 -0.415,1.636c0,0.375 0.037,0.697 0.11,0.969c0.073,0.271 0.175,0.496 0.305,0.675c0.141,0.195 0.313,0.338 0.517,0.427c0.203,0.09 0.427,0.135 0.671,0.135Z" style="fill:#252246;fill-rule:nonzero;"/><path d="M174.325,13.232c-0.711,0 -1.328,-0.12 -1.852,-0.362c-0.523,-0.241 -0.959,-0.62 -1.306,-1.135c-0.358,-0.526 -0.617,-1.18 -0.777,-1.961c-0.16,-0.781 -0.24,-1.677 -0.24,-2.686c-0,-1.074 0.095,-2.019 0.285,-2.836c0.189,-0.816 0.504,-1.504 0.944,-2.063c0.824,-1.042 2.042,-1.562 3.654,-1.562c0.428,-0 0.832,0.04 1.212,0.122c0.402,0.081 0.808,0.203 1.221,0.366l-0,2.181c-0.413,-0.244 -0.822,-0.429 -1.229,-0.553c-0.38,-0.12 -0.762,-0.18 -1.147,-0.18c-1.731,0 -2.626,1.153 -2.686,3.459c0.266,-0.369 0.591,-0.635 0.977,-0.797c0.173,-0.076 0.378,-0.139 0.614,-0.188c0.236,-0.048 0.503,-0.073 0.802,-0.073c1.095,0 1.936,0.342 2.522,1.026c0.597,0.689 0.896,1.676 0.896,2.962c-0,0.656 -0.083,1.254 -0.249,1.794c-0.165,0.54 -0.416,0.997 -0.752,1.372c-0.673,0.743 -1.636,1.114 -2.889,1.114Zm-0.009,-1.936c0.245,-0 0.47,-0.045 0.676,-0.135c0.206,-0.089 0.382,-0.234 0.529,-0.435c0.277,-0.374 0.415,-0.917 0.415,-1.628c-0,-0.71 -0.138,-1.256 -0.415,-1.635c-0.277,-0.38 -0.681,-0.57 -1.213,-0.57c-0.271,-0 -0.503,0.049 -0.696,0.146c-0.192,0.098 -0.354,0.236 -0.484,0.415c-0.276,0.386 -0.415,0.931 -0.415,1.636c0,0.375 0.037,0.697 0.11,0.969c0.073,0.271 0.175,0.496 0.305,0.675c0.141,0.195 0.314,0.338 0.517,0.427c0.203,0.09 0.427,0.135 0.671,0.135Z" style="fill:#252246;fill-rule:nonzero;"/><path d="M185.286,2.946l-5.07,-0l0,-2.116l7.683,0l-0,1.701l-4.118,10.449l-2.45,0l3.955,-10.034Z" style="fill:#252246;fill-rule:nonzero;"/><path d="M195.321,2.946l-5.07,-0l-0,-2.116l7.682,0l-0,1.701l-4.118,10.449l-2.449,0l3.955,-10.034Z" style="fill:#252246;fill-rule:nonzero;"/><path d="M204.207,13.216c-0.667,0 -1.242,-0.083 -1.725,-0.248c-0.483,-0.166 -0.887,-0.4 -1.212,-0.704c-0.689,-0.64 -1.034,-1.525 -1.034,-2.653c0,-0.412 0.049,-0.777 0.146,-1.095c0.098,-0.317 0.242,-0.609 0.432,-0.874c0.38,-0.527 0.914,-0.893 1.603,-1.099c-0.618,-0.212 -1.085,-0.545 -1.4,-1.001c-0.32,-0.461 -0.48,-1.023 -0.48,-1.685c0,-0.992 0.328,-1.782 0.985,-2.368c0.656,-0.586 1.549,-0.879 2.677,-0.879c1.129,0 2.024,0.293 2.686,0.879c0.656,0.586 0.984,1.378 0.984,2.377c0,0.667 -0.157,1.223 -0.472,1.668c-0.314,0.456 -0.773,0.792 -1.375,1.009c0.667,0.206 1.194,0.575 1.579,1.107c0.38,0.526 0.57,1.18 0.57,1.961c-0,1.128 -0.345,2.013 -1.034,2.653c-0.689,0.635 -1.666,0.952 -2.93,0.952Zm-0.008,-7.584c0.478,-0 0.855,-0.142 1.131,-0.424c0.272,-0.287 0.407,-0.662 0.407,-1.123c0,-0.483 -0.135,-0.86 -0.407,-1.131c-0.271,-0.271 -0.648,-0.407 -1.131,-0.407c-0.466,0 -0.838,0.139 -1.115,0.415c-0.276,0.277 -0.415,0.651 -0.415,1.123c0,0.461 0.139,0.836 0.415,1.123c0.277,0.282 0.649,0.424 1.115,0.424Zm0,5.647c0.548,0 0.985,-0.171 1.31,-0.512c0.331,-0.331 0.497,-0.787 0.497,-1.368c-0,-0.542 -0.166,-0.987 -0.497,-1.334c-0.151,-0.158 -0.336,-0.281 -0.553,-0.371c-0.217,-0.089 -0.469,-0.134 -0.757,-0.134c-0.548,0 -0.982,0.168 -1.302,0.505c-0.331,0.331 -0.496,0.778 -0.496,1.343c-0,0.564 0.165,1.02 0.496,1.367c0.147,0.152 0.331,0.274 0.554,0.366c0.222,0.092 0.472,0.138 0.748,0.138Z" style="fill:#252246;fill-rule:nonzero;"/><path d="M214.242,13.216c-0.668,0 -1.243,-0.083 -1.726,-0.248c-0.483,-0.166 -0.887,-0.4 -1.212,-0.704c-0.689,-0.64 -1.034,-1.525 -1.034,-2.653c0,-0.412 0.049,-0.777 0.147,-1.095c0.097,-0.317 0.241,-0.609 0.431,-0.874c0.38,-0.527 0.914,-0.893 1.603,-1.099c-0.618,-0.212 -1.085,-0.545 -1.4,-1.001c-0.32,-0.461 -0.48,-1.023 -0.48,-1.685c0,-0.992 0.329,-1.782 0.985,-2.368c0.656,-0.586 1.549,-0.879 2.677,-0.879c1.129,0 2.024,0.293 2.686,0.879c0.656,0.586 0.985,1.378 0.985,2.377c-0,0.667 -0.158,1.223 -0.472,1.668c-0.315,0.456 -0.773,0.792 -1.376,1.009c0.668,0.206 1.194,0.575 1.579,1.107c0.38,0.526 0.57,1.18 0.57,1.961c-0,1.128 -0.345,2.013 -1.034,2.653c-0.689,0.635 -1.665,0.952 -2.929,0.952Zm-0.009,-7.584c0.478,-0 0.855,-0.142 1.132,-0.424c0.271,-0.287 0.406,-0.662 0.406,-1.123c0,-0.483 -0.135,-0.86 -0.406,-1.131c-0.272,-0.271 -0.649,-0.407 -1.132,-0.407c-0.466,0 -0.838,0.139 -1.115,0.415c-0.276,0.277 -0.415,0.651 -0.415,1.123c0,0.461 0.139,0.836 0.415,1.123c0.277,0.282 0.649,0.424 1.115,0.424Zm0,5.647c0.548,0 0.985,-0.171 1.311,-0.512c0.331,-0.331 0.496,-0.787 0.496,-1.368c0,-0.542 -0.165,-0.987 -0.496,-1.334c-0.152,-0.158 -0.337,-0.281 -0.554,-0.371c-0.217,-0.089 -0.469,-0.134 -0.757,-0.134c-0.548,0 -0.982,0.168 -1.302,0.505c-0.331,0.331 -0.496,0.778 -0.496,1.343c-0,0.564 0.165,1.02 0.496,1.367c0.147,0.152 0.331,0.274 0.554,0.366c0.222,0.092 0.472,0.138 0.748,0.138Z" style="fill:#252246;fill-rule:nonzero;"/><path d="M223.34,13.298c-0.217,-0 -0.422,-0.01 -0.615,-0.029c-0.192,-0.019 -0.389,-0.05 -0.59,-0.094c-0.423,-0.092 -0.832,-0.211 -1.228,-0.358l-0,-2.189c0.417,0.244 0.83,0.429 1.237,0.554c0.374,0.119 0.754,0.179 1.139,0.179c0.412,-0 0.785,-0.071 1.119,-0.212c0.334,-0.141 0.617,-0.361 0.85,-0.659c0.217,-0.277 0.388,-0.629 0.513,-1.058c0.125,-0.429 0.193,-0.939 0.203,-1.53c-0.515,0.705 -1.307,1.058 -2.376,1.058c-1.101,-0 -1.95,-0.347 -2.547,-1.042c-0.591,-0.689 -0.887,-1.668 -0.887,-2.938c-0,-1.345 0.331,-2.395 0.993,-3.149c0.662,-0.743 1.63,-1.115 2.905,-1.115c0.754,0 1.386,0.129 1.896,0.387c0.51,0.257 0.928,0.625 1.253,1.102c0.369,0.543 0.631,1.208 0.786,1.994c0.154,0.787 0.232,1.663 0.232,2.629c-0,1.193 -0.106,2.182 -0.318,2.966c-0.211,0.784 -0.512,1.426 -0.903,1.925c-0.423,0.542 -0.947,0.941 -1.571,1.196c-0.624,0.255 -1.321,0.383 -2.091,0.383Zm0.708,-6.348c0.521,-0 0.919,-0.19 1.196,-0.57c0.271,-0.385 0.407,-0.928 0.407,-1.627c0,-0.375 -0.037,-0.699 -0.11,-0.973c-0.073,-0.274 -0.172,-0.498 -0.297,-0.671c-0.277,-0.375 -0.675,-0.562 -1.196,-0.562c-0.277,0 -0.511,0.05 -0.704,0.151c-0.193,0.1 -0.354,0.237 -0.484,0.411c-0.282,0.379 -0.423,0.925 -0.423,1.635c-0,0.711 0.141,1.256 0.423,1.636c0.282,0.38 0.678,0.57 1.188,0.57Z" style="fill:#252246;fill-rule:nonzero;"/><path d="M233.374,13.298c-0.217,-0 -0.422,-0.01 -0.614,-0.029c-0.193,-0.019 -0.39,-0.05 -0.59,-0.094c-0.424,-0.092 -0.833,-0.211 -1.229,-0.358l-0,-2.189c0.418,0.244 0.83,0.429 1.237,0.554c0.374,0.119 0.754,0.179 1.139,0.179c0.412,-0 0.785,-0.071 1.119,-0.212c0.334,-0.141 0.617,-0.361 0.85,-0.659c0.217,-0.277 0.388,-0.629 0.513,-1.058c0.125,-0.429 0.193,-0.939 0.204,-1.53c-0.516,0.705 -1.308,1.058 -2.377,1.058c-1.101,-0 -1.95,-0.347 -2.547,-1.042c-0.591,-0.689 -0.887,-1.668 -0.887,-2.938c0,-1.345 0.331,-2.395 0.993,-3.149c0.662,-0.743 1.63,-1.115 2.905,-1.115c0.754,0 1.386,0.129 1.896,0.387c0.51,0.257 0.928,0.625 1.254,1.102c0.369,0.543 0.63,1.208 0.785,1.994c0.155,0.787 0.232,1.663 0.232,2.629c-0,1.193 -0.106,2.182 -0.318,2.966c-0.211,0.784 -0.512,1.426 -0.903,1.925c-0.423,0.542 -0.947,0.941 -1.571,1.196c-0.623,0.255 -1.321,0.383 -2.091,0.383Zm0.708,-6.348c0.521,-0 0.92,-0.19 1.196,-0.57c0.272,-0.385 0.407,-0.928 0.407,-1.627c0,-0.375 -0.036,-0.699 -0.11,-0.973c-0.073,-0.274 -0.172,-0.498 -0.297,-0.671c-0.276,-0.375 -0.675,-0.562 -1.196,-0.562c-0.277,0 -0.511,0.05 -0.704,0.151c-0.193,0.1 -0.354,0.237 -0.484,0.411c-0.282,0.379 -0.423,0.925 -0.423,1.635c-0,0.711 0.141,1.256 0.423,1.636c0.282,0.38 0.678,0.57 1.188,0.57Z" style="fill:#252246;fill-rule:nonzero;"/><path d="M243.262,13.216c-0.944,0 -1.708,-0.27 -2.291,-0.81c-0.583,-0.539 -0.875,-1.317 -0.875,-2.331c0,-0.64 0.115,-1.163 0.346,-1.567c0.23,-0.404 0.545,-0.717 0.944,-0.94c0.399,-0.222 0.85,-0.375 1.355,-0.459c0.504,-0.085 1.033,-0.127 1.587,-0.127l1.652,0l-0,-0.398c-0,-0.326 -0.086,-0.573 -0.257,-0.741c-0.17,-0.168 -0.39,-0.282 -0.659,-0.342c-0.268,-0.059 -0.544,-0.089 -0.826,-0.089c-0.575,-0 -1.127,0.078 -1.656,0.236c-0.529,0.157 -1.056,0.38 -1.583,0.667l0,-2.034c0.565,-0.228 1.125,-0.392 1.681,-0.493c0.556,-0.1 1.119,-0.15 1.688,-0.15c0.999,-0 1.788,0.142 2.369,0.427c0.58,0.285 0.994,0.724 1.241,1.318c0.247,0.594 0.37,1.35 0.37,2.267c-0,0.211 -0.004,0.483 -0.012,0.814c-0.008,0.33 -0.012,0.661 -0.012,0.992c-0,0.293 -0.003,0.57 -0.009,0.83c-0.005,0.261 -0.008,0.481 -0.008,0.66c0,0.157 0.008,0.362 0.025,0.614c0.016,0.252 0.054,0.509 0.114,0.769c0.059,0.261 0.152,0.478 0.276,0.651l-2.36,0c-0.103,-0.173 -0.179,-0.336 -0.228,-0.488c-0.048,-0.152 -0.084,-0.328 -0.105,-0.529c-0.32,0.428 -0.721,0.745 -1.201,0.948c-0.48,0.203 -1.002,0.305 -1.566,0.305Zm0.781,-1.652c0.499,0 0.888,-0.137 1.168,-0.411c0.279,-0.274 0.477,-0.618 0.594,-1.033c0.116,-0.415 0.175,-0.835 0.175,-1.258l-0,-0.162l-0.952,-0c-0.375,-0 -0.746,0.025 -1.115,0.077c-0.369,0.051 -0.674,0.179 -0.916,0.382c-0.241,0.204 -0.362,0.539 -0.362,1.005c0,0.445 0.124,0.79 0.37,1.034c0.247,0.244 0.593,0.366 1.038,0.366Z" style="fill:#252246;fill-rule:nonzero;"/><path d="M253.296,13.216c-0.944,0 -1.708,-0.27 -2.291,-0.81c-0.583,-0.539 -0.875,-1.317 -0.875,-2.331c0,-0.64 0.115,-1.163 0.346,-1.567c0.231,-0.404 0.545,-0.717 0.944,-0.94c0.399,-0.222 0.851,-0.375 1.355,-0.459c0.505,-0.085 1.034,-0.127 1.587,-0.127l1.652,0l-0,-0.398c-0,-0.326 -0.085,-0.573 -0.256,-0.741c-0.171,-0.168 -0.391,-0.282 -0.66,-0.342c-0.268,-0.059 -0.543,-0.089 -0.826,-0.089c-0.575,-0 -1.127,0.078 -1.656,0.236c-0.529,0.157 -1.056,0.38 -1.582,0.667l-0,-2.034c0.564,-0.228 1.124,-0.392 1.68,-0.493c0.556,-0.1 1.119,-0.15 1.689,-0.15c0.998,-0 1.787,0.142 2.368,0.427c0.58,0.285 0.994,0.724 1.241,1.318c0.247,0.594 0.37,1.35 0.37,2.267c0,0.211 -0.004,0.483 -0.012,0.814c-0.008,0.33 -0.012,0.661 -0.012,0.992c-0,0.293 -0.003,0.57 -0.008,0.83c-0.006,0.261 -0.009,0.481 -0.009,0.66c0,0.157 0.009,0.362 0.025,0.614c0.016,0.252 0.054,0.509 0.114,0.769c0.059,0.261 0.152,0.478 0.277,0.651l-2.361,0c-0.103,-0.173 -0.179,-0.336 -0.227,-0.488c-0.049,-0.152 -0.084,-0.328 -0.106,-0.529c-0.32,0.428 -0.72,0.745 -1.201,0.948c-0.48,0.203 -1.002,0.305 -1.566,0.305Zm0.781,-1.652c0.499,0 0.889,-0.137 1.168,-0.411c0.279,-0.274 0.477,-0.618 0.594,-1.033c0.117,-0.415 0.175,-0.835 0.175,-1.258l-0,-0.162l-0.952,-0c-0.375,-0 -0.746,0.025 -1.115,0.077c-0.369,0.051 -0.674,0.179 -0.916,0.382c-0.241,0.204 -0.362,0.539 -0.362,1.005c0,0.445 0.124,0.79 0.371,1.034c0.246,0.244 0.592,0.366 1.037,0.366Z" style="fill:#252246;fill-rule:nonzero;"/><path d="M265.413,13.216c-1.112,0 -1.92,-0.529 -2.425,-1.587l-0.236,1.351l-2.14,0l-0,-12.663l2.376,0l0,4.843c0.575,-1.01 1.384,-1.514 2.425,-1.514c1.02,-0 1.822,0.422 2.405,1.265c0.583,0.844 0.875,2.014 0.875,3.512c0,1.497 -0.29,2.67 -0.871,3.52c-0.58,0.849 -1.383,1.273 -2.409,1.273Zm-0.756,-1.953c0.499,0 0.899,-0.259 1.2,-0.777c0.301,-0.518 0.452,-1.214 0.452,-2.088c-0,-0.851 -0.146,-1.525 -0.436,-2.022c-0.29,-0.496 -0.687,-0.744 -1.192,-0.744c-0.515,-0 -0.926,0.256 -1.233,0.769c-0.306,0.512 -0.46,1.194 -0.46,2.046c0,0.852 0.152,1.534 0.456,2.047c0.304,0.513 0.708,0.769 1.213,0.769Z" style="fill:#252246;fill-rule:nonzero;"/><path d="M275.448,13.216c-1.113,0 -1.921,-0.529 -2.426,-1.587l-0.236,1.351l-2.14,0l0,-12.663l2.376,0l0,4.843c0.576,-1.01 1.384,-1.514 2.426,-1.514c1.02,-0 1.821,0.422 2.404,1.265c0.584,0.844 0.875,2.014 0.875,3.512c0,1.497 -0.29,2.67 -0.871,3.52c-0.58,0.849 -1.383,1.273 -2.408,1.273Zm-0.757,-1.953c0.499,0 0.899,-0.259 1.2,-0.777c0.301,-0.518 0.452,-1.214 0.452,-2.088c-0,-0.851 -0.145,-1.525 -0.436,-2.022c-0.29,-0.496 -0.687,-0.744 -1.192,-0.744c-0.515,-0 -0.926,0.256 -1.233,0.769c-0.306,0.512 -0.46,1.194 -0.46,2.046c0,0.852 0.152,1.534 0.456,2.047c0.304,0.513 0.708,0.769 1.213,0.769Z" style="fill:#252246;fill-rule:nonzero;"/><path d="M285.229,13.216c-1.443,0 -2.564,-0.42 -3.365,-1.261c-0.8,-0.841 -1.2,-2.013 -1.2,-3.516c0,-1.508 0.396,-2.687 1.188,-3.536c0.792,-0.849 1.894,-1.273 3.304,-1.273c0.966,-0 1.891,0.233 2.775,0.699l0,2.181c-0.705,-0.618 -1.5,-0.927 -2.384,-0.927c-0.798,-0 -1.408,0.247 -1.831,0.74c-0.423,0.494 -0.635,1.197 -0.635,2.108c0,0.906 0.21,1.605 0.631,2.096c0.42,0.491 1.021,0.736 1.802,0.736c0.928,0 1.734,-0.312 2.417,-0.936l0,2.189c-0.808,0.467 -1.709,0.7 -2.702,0.7Z" style="fill:#252246;fill-rule:nonzero;"/><path d="M295.264,13.216c-1.443,0 -2.565,-0.42 -3.365,-1.261c-0.801,-0.841 -1.201,-2.013 -1.201,-3.516c0,-1.508 0.396,-2.687 1.188,-3.536c0.792,-0.849 1.894,-1.273 3.304,-1.273c0.966,-0 1.891,0.233 2.775,0.699l0,2.181c-0.705,-0.618 -1.5,-0.927 -2.384,-0.927c-0.797,-0 -1.408,0.247 -1.831,0.74c-0.423,0.494 -0.635,1.197 -0.635,2.108c0,0.906 0.21,1.605 0.631,2.096c0.42,0.491 1.021,0.736 1.803,0.736c0.927,0 1.733,-0.312 2.416,-0.936l0,2.189c-0.808,0.467 -1.708,0.7 -2.701,0.7Z" style="fill:#252246;fill-rule:nonzero;"/><path d="M303.54,13.216c-1.025,0 -1.828,-0.424 -2.409,-1.273c-0.58,-0.85 -0.871,-2.017 -0.871,-3.504c0,-1.503 0.293,-2.677 0.879,-3.524c0.586,-0.846 1.392,-1.269 2.417,-1.269c1.02,-0 1.823,0.504 2.409,1.514l0,-4.843l2.376,0l0,12.663l-2.14,0l-0.236,-1.351c-0.504,1.058 -1.313,1.587 -2.425,1.587Zm0.757,-1.953c0.504,0 0.909,-0.256 1.212,-0.769c0.304,-0.513 0.456,-1.195 0.456,-2.047c0,-0.852 -0.153,-1.534 -0.46,-2.046c-0.306,-0.513 -0.717,-0.769 -1.233,-0.769c-0.504,-0 -0.902,0.248 -1.192,0.744c-0.29,0.497 -0.435,1.171 -0.435,2.022c-0,0.874 0.15,1.57 0.452,2.088c0.301,0.518 0.701,0.777 1.2,0.777Z" style="fill:#252246;fill-rule:nonzero;"/><path d="M313.574,13.216c-1.025,0 -1.828,-0.424 -2.409,-1.273c-0.58,-0.85 -0.87,-2.017 -0.87,-3.504c-0,-1.503 0.293,-2.677 0.879,-3.524c0.585,-0.846 1.391,-1.269 2.416,-1.269c1.02,-0 1.823,0.504 2.409,1.514l0,-4.843l2.377,0l-0,12.663l-2.141,0l-0.236,-1.351c-0.504,1.058 -1.313,1.587 -2.425,1.587Zm0.757,-1.953c0.505,0 0.909,-0.256 1.213,-0.769c0.303,-0.513 0.455,-1.195 0.455,-2.047c0,-0.852 -0.153,-1.534 -0.459,-2.046c-0.307,-0.513 -0.718,-0.769 -1.233,-0.769c-0.505,-0 -0.902,0.248 -1.193,0.744c-0.29,0.497 -0.435,1.171 -0.435,2.022c0,0.874 0.151,1.57 0.452,2.088c0.301,0.518 0.701,0.777 1.2,0.777Z" style="fill:#252246;fill-rule:nonzero;"/><path d="M325.065,13.216c-1.568,0 -2.76,-0.405 -3.577,-1.216c-0.816,-0.812 -1.224,-1.985 -1.224,-3.52c-0,-0.971 0.168,-1.819 0.504,-2.543c0.337,-0.725 0.84,-1.287 1.51,-1.689c0.67,-0.401 1.509,-0.602 2.519,-0.602c0.83,-0 1.548,0.192 2.156,0.578c0.608,0.385 1.078,0.921 1.412,1.607c0.334,0.686 0.501,1.485 0.501,2.397l-0,0.968l-6.177,-0c-0,1.421 0.83,2.132 2.49,2.132c1.091,0 2.192,-0.328 3.304,-0.985l0,2.19c-1.107,0.455 -2.246,0.683 -3.418,0.683Zm1.4,-5.81c-0,-0.63 -0.155,-1.106 -0.464,-1.429c-0.309,-0.322 -0.751,-0.484 -1.327,-0.484c-0.585,0 -1.044,0.166 -1.375,0.497c-0.331,0.331 -0.526,0.803 -0.586,1.416l3.752,-0Z" style="fill:#252246;fill-rule:nonzero;"/><path d="M335.099,13.216c-1.568,0 -2.76,-0.405 -3.576,-1.216c-0.817,-0.812 -1.225,-1.985 -1.225,-3.52c-0,-0.971 0.168,-1.819 0.504,-2.543c0.337,-0.725 0.84,-1.287 1.51,-1.689c0.67,-0.401 1.51,-0.602 2.519,-0.602c0.83,-0 1.549,0.192 2.156,0.578c0.608,0.385 1.079,0.921 1.412,1.607c0.334,0.686 0.501,1.485 0.501,2.397l-0,0.968l-6.177,-0c-0,1.421 0.83,2.132 2.49,2.132c1.091,0 2.192,-0.328 3.304,-0.985l0,2.19c-1.107,0.455 -2.246,0.683 -3.418,0.683Zm1.4,-5.81c0,-0.63 -0.155,-1.106 -0.464,-1.429c-0.309,-0.322 -0.751,-0.484 -1.326,-0.484c-0.586,0 -1.045,0.166 -1.376,0.497c-0.331,0.331 -0.526,0.803 -0.586,1.416l3.752,-0Z" style="fill:#252246;fill-rule:nonzero;"/><path d="M343.132,5.697l-2.214,-0l-0,-1.831l2.214,-0l-0,-0.635c-0,-0.733 0.099,-1.312 0.297,-1.738c0.198,-0.426 0.531,-0.728 1.001,-0.907c0.469,-0.179 1.11,-0.269 1.924,-0.269l1.961,0l0,1.831l-1.863,0c-0.347,0 -0.59,0.068 -0.729,0.204c-0.138,0.136 -0.207,0.374 -0.207,0.716l-0,0.798l2.799,-0l0,1.831l-2.799,-0l-0,7.283l-2.384,0l-0,-7.283Z" style="fill:#252246;fill-rule:nonzero;"/><path d="M353.166,5.697l-2.214,-0l0,-1.831l2.214,-0l-0,-0.635c-0,-0.733 0.099,-1.312 0.297,-1.738c0.198,-0.426 0.531,-0.728 1.001,-0.907c0.469,-0.179 1.111,-0.269 1.924,-0.269l1.962,0l-0,1.831l-1.864,0c-0.347,0 -0.59,0.068 -0.728,0.204c-0.139,0.136 -0.208,0.374 -0.208,0.716l0,0.798l2.8,-0l-0,1.831l-2.8,-0l0,7.283l-2.384,0l-0,-7.283Z" style="fill:#252246;fill-rule:nonzero;"/><path d="M364.754,13.216c-1.345,0 -2.352,-0.526 -3.019,-1.579c-0.667,-1.047 -1.001,-2.62 -1.001,-4.72c0,-2.11 0.334,-3.689 1.001,-4.736c0.667,-1.047 1.671,-1.571 3.011,-1.571c1.346,0 2.352,0.524 3.019,1.571c0.668,1.047 1.001,2.626 1.001,4.736c0,4.2 -1.337,6.299 -4.012,6.299Zm-0.008,-2.034c0.559,-0 0.966,-0.339 1.221,-1.018c0.255,-0.689 0.382,-1.771 0.382,-3.247c0,-1.481 -0.127,-2.566 -0.382,-3.255c-0.255,-0.678 -0.662,-1.017 -1.221,-1.017c-0.553,-0 -0.957,0.339 -1.212,1.017c-0.255,0.689 -0.383,1.774 -0.383,3.255c0,1.476 0.128,2.558 0.383,3.247c0.255,0.679 0.659,1.018 1.212,1.018Zm0.008,-1.945c-0.092,-0 -0.163,-0.099 -0.211,-0.297c-0.049,-0.198 -0.09,-0.419 -0.122,-0.664c-0.022,-0.206 -0.044,-0.451 -0.066,-0.736c-0.021,-0.285 -0.032,-0.503 -0.032,-0.655c-0,-0.103 0.005,-0.292 0.016,-0.566c0.011,-0.274 0.033,-0.536 0.065,-0.785c0.076,-0.635 0.187,-0.952 0.334,-0.952c0.081,-0 0.152,0.091 0.212,0.272c0.059,0.182 0.105,0.414 0.138,0.696c0.022,0.228 0.042,0.479 0.061,0.753c0.019,0.274 0.028,0.484 0.028,0.631c0,0.092 -0.004,0.271 -0.012,0.537c-0.008,0.266 -0.028,0.531 -0.061,0.797c-0.07,0.646 -0.187,0.969 -0.35,0.969Z" style="fill:#252246;fill-rule:nonzero;"/><path d="M374.788,13.216c-1.345,0 -2.351,-0.526 -3.019,-1.579c-0.667,-1.047 -1.001,-2.62 -1.001,-4.72c0,-2.11 0.334,-3.689 1.001,-4.736c0.668,-1.047 1.671,-1.571 3.011,-1.571c1.346,0 2.352,0.524 3.019,1.571c0.668,1.047 1.001,2.626 1.001,4.736c0,4.2 -1.337,6.299 -4.012,6.299Zm-0.008,-2.034c0.559,-0 0.966,-0.339 1.221,-1.018c0.255,-0.689 0.382,-1.771 0.382,-3.247c0,-1.481 -0.127,-2.566 -0.382,-3.255c-0.255,-0.678 -0.662,-1.017 -1.221,-1.017c-0.553,-0 -0.957,0.339 -1.212,1.017c-0.255,0.689 -0.383,1.774 -0.383,3.255c0,1.476 0.128,2.558 0.383,3.247c0.255,0.679 0.659,1.018 1.212,1.018Zm0.008,-1.945c-0.092,-0 -0.162,-0.099 -0.211,-0.297c-0.049,-0.198 -0.09,-0.419 -0.122,-0.664c-0.022,-0.206 -0.044,-0.451 -0.065,-0.736c-0.022,-0.285 -0.033,-0.503 -0.033,-0.655c0,-0.103 0.006,-0.292 0.016,-0.566c0.011,-0.274 0.033,-0.536 0.065,-0.785c0.076,-0.635 0.188,-0.952 0.334,-0.952c0.082,-0 0.152,0.091 0.212,0.272c0.059,0.182 0.106,0.414 0.138,0.696c0.022,0.228 0.042,0.479 0.061,0.753c0.019,0.274 0.029,0.484 0.029,0.631c-0,0.092 -0.004,0.271 -0.013,0.537c-0.008,0.266 -0.028,0.531 -0.061,0.797c-0.07,0.646 -0.187,0.969 -0.35,0.969Z" style="fill:#252246;fill-rule:nonzero;"/><path d="M381.331,10.864l2.686,0l-0,-7.56l-1.823,1.978l-1.139,-1.189l2.978,-3.263l2.32,0l-0,10.034l2.685,0l0,2.116l-7.707,0l0,-2.116Z" style="fill:#252246;fill-rule:nonzero;"/><path d="M391.366,10.864l2.685,0l0,-7.56l-1.823,1.978l-1.139,-1.189l2.978,-3.263l2.32,0l-0,10.034l2.685,0l0,2.116l-7.706,0l-0,-2.116Z" style="fill:#252246;fill-rule:nonzero;"/><path d="M400.806,11.222c-0,-0.184 0.067,-0.352 0.203,-0.504l1.099,-1.172c0.602,-0.651 1.079,-1.164 1.432,-1.538c0.353,-0.375 0.629,-0.673 0.83,-0.895c0.201,-0.223 0.385,-0.426 0.554,-0.611c0.2,-0.233 0.374,-0.446 0.52,-0.639c0.147,-0.192 0.266,-0.389 0.358,-0.59c0.179,-0.363 0.269,-0.729 0.269,-1.098c-0,-0.521 -0.166,-0.931 -0.496,-1.229c-0.331,-0.298 -0.795,-0.448 -1.392,-0.448c-0.45,0 -0.931,0.084 -1.44,0.253c-0.266,0.086 -0.539,0.191 -0.818,0.313c-0.28,0.122 -0.566,0.267 -0.859,0.435l0,-2.238c0.326,-0.119 0.635,-0.219 0.928,-0.301c0.293,-0.081 0.553,-0.143 0.781,-0.187c0.559,-0.108 1.101,-0.163 1.628,-0.163c0.591,0 1.143,0.072 1.656,0.216c0.512,0.144 0.961,0.37 1.347,0.68c0.347,0.282 0.617,0.626 0.809,1.033c0.193,0.407 0.289,0.893 0.289,1.457c0,0.445 -0.081,0.881 -0.244,1.31c-0.201,0.483 -0.475,0.947 -0.822,1.392c-0.19,0.238 -0.466,0.548 -0.83,0.927c-0.363,0.38 -0.876,0.901 -1.538,1.563c-0.396,0.401 -0.708,0.696 -0.936,0.883c-0.228,0.187 -0.412,0.329 -0.553,0.427c-0.141,0.098 -0.282,0.22 -0.423,0.366l5.363,0l-0,2.116l-7.715,0l-0,-1.758Z" style="fill:#252246;fill-rule:nonzero;"/><path d="M410.84,11.222c-0,-0.184 0.068,-0.352 0.203,-0.504l1.099,-1.172c0.602,-0.651 1.08,-1.164 1.432,-1.538c0.353,-0.375 0.63,-0.673 0.83,-0.895c0.201,-0.223 0.385,-0.426 0.554,-0.611c0.2,-0.233 0.374,-0.446 0.521,-0.639c0.146,-0.192 0.265,-0.389 0.358,-0.59c0.179,-0.363 0.268,-0.729 0.268,-1.098c0,-0.521 -0.165,-0.931 -0.496,-1.229c-0.331,-0.298 -0.795,-0.448 -1.392,-0.448c-0.45,0 -0.93,0.084 -1.44,0.253c-0.266,0.086 -0.539,0.191 -0.818,0.313c-0.28,0.122 -0.566,0.267 -0.859,0.435l0,-2.238c0.326,-0.119 0.635,-0.219 0.928,-0.301c0.293,-0.081 0.553,-0.143 0.781,-0.187c0.559,-0.108 1.102,-0.163 1.628,-0.163c0.591,0 1.143,0.072 1.656,0.216c0.513,0.144 0.962,0.37 1.347,0.68c0.347,0.282 0.617,0.626 0.81,1.033c0.192,0.407 0.288,0.893 0.288,1.457c0,0.445 -0.081,0.881 -0.244,1.31c-0.2,0.483 -0.474,0.947 -0.822,1.392c-0.19,0.238 -0.466,0.548 -0.83,0.927c-0.363,0.38 -0.876,0.901 -1.538,1.563c-0.396,0.401 -0.708,0.696 -0.936,0.883c-0.228,0.187 -0.412,0.329 -0.553,0.427c-0.141,0.098 -0.282,0.22 -0.423,0.366l5.363,0l-0,2.116l-7.715,0l-0,-1.758Z" style="fill:#252246;fill-rule:nonzero;"/><path d="M424.455,13.216c-0.288,0 -0.583,-0.012 -0.887,-0.036c-0.304,-0.025 -0.605,-0.064 -0.904,-0.118c-0.276,-0.049 -0.558,-0.11 -0.846,-0.184c-0.288,-0.073 -0.575,-0.161 -0.863,-0.264l0,-2.23c0.51,0.261 1.061,0.453 1.652,0.578c0.31,0.07 0.613,0.122 0.912,0.155c0.298,0.032 0.572,0.048 0.822,0.048c0.358,0 0.678,-0.035 0.96,-0.105c0.282,-0.071 0.524,-0.185 0.724,-0.342c0.375,-0.304 0.562,-0.73 0.562,-1.278c-0,-0.58 -0.19,-1.044 -0.57,-1.391c-0.179,-0.158 -0.403,-0.281 -0.671,-0.371c-0.269,-0.089 -0.582,-0.134 -0.94,-0.134l-1.286,-0l0,-2.116l1.286,0c0.591,0 1.055,-0.119 1.392,-0.358c0.325,-0.233 0.488,-0.567 0.488,-1.001c-0,-0.45 -0.163,-0.8 -0.488,-1.05c-0.315,-0.249 -0.784,-0.374 -1.408,-0.374c-0.212,-0 -0.441,0.013 -0.688,0.041c-0.247,0.027 -0.501,0.07 -0.761,0.13c-0.244,0.054 -0.504,0.123 -0.781,0.207c-0.277,0.084 -0.556,0.181 -0.838,0.289l-0,-2.181c0.564,-0.168 1.115,-0.298 1.652,-0.39c0.537,-0.087 1.055,-0.131 1.554,-0.131c1.297,0 2.298,0.28 3.003,0.839c0.716,0.558 1.074,1.329 1.074,2.311c0,0.347 -0.047,0.667 -0.142,0.96c-0.095,0.293 -0.254,0.562 -0.476,0.806c-0.413,0.461 -1.001,0.762 -1.766,0.903c0.868,0.152 1.53,0.496 1.985,1.034c0.456,0.531 0.684,1.247 0.684,2.148c-0,1.161 -0.374,2.052 -1.123,2.673c-0.749,0.622 -1.853,0.932 -3.312,0.932Z" style="fill:#252246;fill-rule:nonzero;"/><path d="M434.489,13.216c-0.288,0 -0.583,-0.012 -0.887,-0.036c-0.304,-0.025 -0.605,-0.064 -0.903,-0.118c-0.277,-0.049 -0.559,-0.11 -0.847,-0.184c-0.287,-0.073 -0.575,-0.161 -0.862,-0.264l-0,-2.23c0.51,0.261 1.06,0.453 1.652,0.578c0.309,0.07 0.613,0.122 0.911,0.155c0.298,0.032 0.572,0.048 0.822,0.048c0.358,0 0.678,-0.035 0.96,-0.105c0.282,-0.071 0.524,-0.185 0.725,-0.342c0.374,-0.304 0.561,-0.73 0.561,-1.278c0,-0.58 -0.19,-1.044 -0.57,-1.391c-0.179,-0.158 -0.402,-0.281 -0.671,-0.371c-0.269,-0.089 -0.582,-0.134 -0.94,-0.134l-1.286,-0l0,-2.116l1.286,0c0.591,0 1.055,-0.119 1.392,-0.358c0.325,-0.233 0.488,-0.567 0.488,-1.001c-0,-0.45 -0.163,-0.8 -0.488,-1.05c-0.315,-0.249 -0.784,-0.374 -1.408,-0.374c-0.212,-0 -0.441,0.013 -0.688,0.041c-0.247,0.027 -0.5,0.07 -0.761,0.13c-0.244,0.054 -0.504,0.123 -0.781,0.207c-0.277,0.084 -0.556,0.181 -0.838,0.289l-0,-2.181c0.564,-0.168 1.115,-0.298 1.652,-0.39c0.537,-0.087 1.055,-0.131 1.554,-0.131c1.297,0 2.298,0.28 3.003,0.839c0.716,0.558 1.074,1.329 1.074,2.311c0,0.347 -0.047,0.667 -0.142,0.96c-0.095,0.293 -0.254,0.562 -0.476,0.806c-0.412,0.461 -1.001,0.762 -1.766,0.903c0.868,0.152 1.53,0.496 1.986,1.034c0.455,0.531 0.683,1.247 0.683,2.148c0,1.161 -0.374,2.052 -1.123,2.673c-0.749,0.622 -1.853,0.932 -3.312,0.932Z" style="fill:#252246;fill-rule:nonzero;"/><path d="M445.654,10.36l-4.817,-0l-0,-2.328l4.606,-7.202l2.514,0l0,7.471l1.335,-0l-0,2.059l-1.335,-0l0,2.62l-2.303,0l0,-2.62Zm0,-2.059l0,-4.802l-3.068,4.802l3.068,-0Z" style="fill:#252246;fill-rule:nonzero;"/><path d="M455.688,10.36l-4.817,-0l-0,-2.328l4.606,-7.202l2.515,0l-0,7.471l1.334,-0l0,2.059l-1.334,-0l-0,2.62l-2.304,0l0,-2.62Zm0,-2.059l0,-4.802l-3.068,4.802l3.068,-0Z" style="fill:#252246;fill-rule:nonzero;"/><path d="M464.412,13.216c-0.233,0 -0.482,-0.011 -0.748,-0.032c-0.266,-0.022 -0.532,-0.055 -0.798,-0.098c-0.271,-0.043 -0.544,-0.099 -0.818,-0.167c-0.274,-0.068 -0.544,-0.142 -0.809,-0.224l-0,-2.164c0.244,0.119 0.474,0.217 0.691,0.293c0.217,0.076 0.451,0.143 0.7,0.203c0.456,0.114 0.928,0.171 1.416,0.171c0.863,-0 1.508,-0.182 1.937,-0.545c0.44,-0.369 0.659,-0.882 0.659,-1.538c0,-0.689 -0.213,-1.217 -0.639,-1.583c-0.425,-0.366 -1.024,-0.55 -1.794,-0.55c-0.19,0 -0.392,0.013 -0.606,0.037c-0.215,0.024 -0.43,0.064 -0.647,0.118c-0.223,0.054 -0.449,0.125 -0.68,0.212c-0.23,0.086 -0.441,0.176 -0.63,0.268l-0,-6.787l6.599,0l0,2.116l-4.655,-0l0,2.254c0.055,-0.022 0.142,-0.05 0.261,-0.085c0.119,-0.036 0.241,-0.064 0.366,-0.086c0.098,-0.016 0.214,-0.028 0.35,-0.036c0.136,-0.008 0.26,-0.013 0.374,-0.013c0.575,0 1.115,0.097 1.62,0.289c0.504,0.193 0.938,0.474 1.302,0.843c0.353,0.358 0.627,0.789 0.822,1.294c0.195,0.504 0.293,1.068 0.293,1.692c-0,1.275 -0.4,2.28 -1.2,3.015c-0.801,0.736 -1.922,1.103 -3.366,1.103Z" style="fill:#252246;fill-rule:nonzero;"/><path d="M474.447,13.216c-0.234,0 -0.483,-0.011 -0.749,-0.032c-0.266,-0.022 -0.532,-0.055 -0.798,-0.098c-0.271,-0.043 -0.544,-0.099 -0.817,-0.167c-0.274,-0.068 -0.544,-0.142 -0.81,-0.224l-0,-2.164c0.244,0.119 0.475,0.217 0.692,0.293c0.217,0.076 0.45,0.143 0.699,0.203c0.456,0.114 0.928,0.171 1.416,0.171c0.863,-0 1.509,-0.182 1.937,-0.545c0.44,-0.369 0.659,-0.882 0.659,-1.538c0,-0.689 -0.213,-1.217 -0.638,-1.583c-0.426,-0.366 -1.024,-0.55 -1.795,-0.55c-0.19,0 -0.392,0.013 -0.606,0.037c-0.214,0.024 -0.43,0.064 -0.647,0.118c-0.223,0.054 -0.449,0.125 -0.68,0.212c-0.23,0.086 -0.44,0.176 -0.63,0.268l-0,-6.787l6.6,0l-0,2.116l-4.655,-0l-0,2.254c0.054,-0.022 0.141,-0.05 0.26,-0.085c0.119,-0.036 0.242,-0.064 0.366,-0.086c0.098,-0.016 0.215,-0.028 0.35,-0.036c0.136,-0.008 0.261,-0.013 0.375,-0.013c0.575,0 1.114,0.097 1.619,0.289c0.505,0.193 0.939,0.474 1.302,0.843c0.353,0.358 0.627,0.789 0.822,1.294c0.195,0.504 0.293,1.068 0.293,1.692c0,1.275 -0.4,2.28 -1.2,3.015c-0.801,0.736 -1.922,1.103 -3.365,1.103Z" style="fill:#252246;fill-rule:nonzero;"/><path d="M485.384,13.232c-0.711,0 -1.328,-0.12 -1.851,-0.362c-0.524,-0.241 -0.959,-0.62 -1.306,-1.135c-0.359,-0.526 -0.618,-1.18 -0.778,-1.961c-0.16,-0.781 -0.24,-1.677 -0.24,-2.686c0,-1.074 0.095,-2.019 0.285,-2.836c0.19,-0.816 0.505,-1.504 0.944,-2.063c0.825,-1.042 2.043,-1.562 3.654,-1.562c0.429,-0 0.833,0.04 1.213,0.122c0.401,0.081 0.808,0.203 1.22,0.366l0,2.181c-0.412,-0.244 -0.822,-0.429 -1.228,-0.553c-0.38,-0.12 -0.763,-0.18 -1.148,-0.18c-1.731,0 -2.626,1.153 -2.685,3.459c0.265,-0.369 0.591,-0.635 0.976,-0.797c0.174,-0.076 0.379,-0.139 0.615,-0.188c0.236,-0.048 0.503,-0.073 0.801,-0.073c1.096,0 1.937,0.342 2.523,1.026c0.597,0.689 0.895,1.676 0.895,2.962c0,0.656 -0.083,1.254 -0.248,1.794c-0.166,0.54 -0.417,0.997 -0.753,1.372c-0.673,0.743 -1.636,1.114 -2.889,1.114Zm-0.008,-1.936c0.244,-0 0.469,-0.045 0.675,-0.135c0.207,-0.089 0.383,-0.234 0.529,-0.435c0.277,-0.374 0.415,-0.917 0.415,-1.628c0,-0.71 -0.138,-1.256 -0.415,-1.635c-0.276,-0.38 -0.68,-0.57 -1.212,-0.57c-0.271,-0 -0.503,0.049 -0.696,0.146c-0.193,0.098 -0.354,0.236 -0.484,0.415c-0.277,0.386 -0.415,0.931 -0.415,1.636c-0,0.375 0.036,0.697 0.11,0.969c0.073,0.271 0.175,0.496 0.305,0.675c0.141,0.195 0.313,0.338 0.517,0.427c0.203,0.09 0.427,0.135 0.671,0.135Z" style="fill:#252246;fill-rule:nonzero;"/><path d="M495.418,13.232c-0.71,0 -1.328,-0.12 -1.851,-0.362c-0.524,-0.241 -0.959,-0.62 -1.306,-1.135c-0.358,-0.526 -0.617,-1.18 -0.777,-1.961c-0.16,-0.781 -0.241,-1.677 -0.241,-2.686c0,-1.074 0.095,-2.019 0.285,-2.836c0.19,-0.816 0.505,-1.504 0.944,-2.063c0.825,-1.042 2.043,-1.562 3.654,-1.562c0.429,-0 0.833,0.04 1.213,0.122c0.401,0.081 0.808,0.203 1.221,0.366l-0,2.181c-0.413,-0.244 -0.822,-0.429 -1.229,-0.553c-0.38,-0.12 -0.763,-0.18 -1.148,-0.18c-1.73,0 -2.626,1.153 -2.685,3.459c0.266,-0.369 0.591,-0.635 0.976,-0.797c0.174,-0.076 0.379,-0.139 0.615,-0.188c0.236,-0.048 0.503,-0.073 0.801,-0.073c1.096,0 1.937,0.342 2.523,1.026c0.597,0.689 0.895,1.676 0.895,2.962c0,0.656 -0.082,1.254 -0.248,1.794c-0.165,0.54 -0.416,0.997 -0.753,1.372c-0.672,0.743 -1.635,1.114 -2.889,1.114Zm-0.008,-1.936c0.244,-0 0.469,-0.045 0.676,-0.135c0.206,-0.089 0.382,-0.234 0.529,-0.435c0.276,-0.374 0.415,-0.917 0.415,-1.628c-0,-0.71 -0.139,-1.256 -0.415,-1.635c-0.277,-0.38 -0.681,-0.57 -1.213,-0.57c-0.271,-0 -0.503,0.049 -0.696,0.146c-0.192,0.098 -0.354,0.236 -0.484,0.415c-0.277,0.386 -0.415,0.931 -0.415,1.636c-0,0.375 0.037,0.697 0.11,0.969c0.073,0.271 0.175,0.496 0.305,0.675c0.141,0.195 0.313,0.338 0.517,0.427c0.203,0.09 0.427,0.135 0.671,0.135Z" style="fill:#252246;fill-rule:nonzero;"/><path d="M506.38,2.946l-5.07,-0l0,-2.116l7.683,0l-0,1.701l-4.118,10.449l-2.45,0l3.955,-10.034Z" style="fill:#252246;fill-rule:nonzero;"/><path d="M516.414,2.946l-5.07,-0l0,-2.116l7.683,0l-0,1.701l-4.118,10.449l-2.45,0l3.955,-10.034Z" style="fill:#252246;fill-rule:nonzero;"/><path d="M525.301,13.216c-0.667,0 -1.242,-0.083 -1.725,-0.248c-0.483,-0.166 -0.887,-0.4 -1.213,-0.704c-0.689,-0.64 -1.033,-1.525 -1.033,-2.653c-0,-0.412 0.049,-0.777 0.146,-1.095c0.098,-0.317 0.242,-0.609 0.432,-0.874c0.379,-0.527 0.914,-0.893 1.603,-1.099c-0.619,-0.212 -1.085,-0.545 -1.4,-1.001c-0.32,-0.461 -0.48,-1.023 -0.48,-1.685c-0,-0.992 0.328,-1.782 0.985,-2.368c0.656,-0.586 1.548,-0.879 2.677,-0.879c1.128,0 2.024,0.293 2.686,0.879c0.656,0.586 0.984,1.378 0.984,2.377c0,0.667 -0.157,1.223 -0.472,1.668c-0.314,0.456 -0.773,0.792 -1.375,1.009c0.667,0.206 1.193,0.575 1.579,1.107c0.379,0.526 0.569,1.18 0.569,1.961c0,1.128 -0.344,2.013 -1.033,2.653c-0.689,0.635 -1.666,0.952 -2.93,0.952Zm-0.008,-7.584c0.477,-0 0.854,-0.142 1.131,-0.424c0.271,-0.287 0.407,-0.662 0.407,-1.123c0,-0.483 -0.136,-0.86 -0.407,-1.131c-0.271,-0.271 -0.648,-0.407 -1.131,-0.407c-0.467,0 -0.838,0.139 -1.115,0.415c-0.277,0.277 -0.415,0.651 -0.415,1.123c0,0.461 0.138,0.836 0.415,1.123c0.277,0.282 0.648,0.424 1.115,0.424Zm-0,5.647c0.548,0 0.985,-0.171 1.31,-0.512c0.331,-0.331 0.497,-0.787 0.497,-1.368c-0,-0.542 -0.166,-0.987 -0.497,-1.334c-0.152,-0.158 -0.336,-0.281 -0.553,-0.371c-0.217,-0.089 -0.469,-0.134 -0.757,-0.134c-0.548,0 -0.982,0.168 -1.302,0.505c-0.331,0.331 -0.497,0.778 -0.497,1.343c0,0.564 0.166,1.02 0.497,1.367c0.146,0.152 0.331,0.274 0.553,0.366c0.223,0.092 0.472,0.138 0.749,0.138Z" style="fill:#252246;fill-rule:nonzero;"/><path d="M535.335,13.216c-0.667,0 -1.242,-0.083 -1.725,-0.248c-0.483,-0.166 -0.887,-0.4 -1.213,-0.704c-0.689,-0.64 -1.033,-1.525 -1.033,-2.653c-0,-0.412 0.049,-0.777 0.146,-1.095c0.098,-0.317 0.242,-0.609 0.432,-0.874c0.38,-0.527 0.914,-0.893 1.603,-1.099c-0.619,-0.212 -1.085,-0.545 -1.4,-1.001c-0.32,-0.461 -0.48,-1.023 -0.48,-1.685c0,-0.992 0.328,-1.782 0.985,-2.368c0.656,-0.586 1.549,-0.879 2.677,-0.879c1.129,0 2.024,0.293 2.686,0.879c0.656,0.586 0.984,1.378 0.984,2.377c0,0.667 -0.157,1.223 -0.472,1.668c-0.314,0.456 -0.773,0.792 -1.375,1.009c0.667,0.206 1.194,0.575 1.579,1.107c0.38,0.526 0.57,1.18 0.57,1.961c-0,1.128 -0.345,2.013 -1.034,2.653c-0.689,0.635 -1.666,0.952 -2.93,0.952Zm-0.008,-7.584c0.478,-0 0.855,-0.142 1.131,-0.424c0.272,-0.287 0.407,-0.662 0.407,-1.123c0,-0.483 -0.135,-0.86 -0.407,-1.131c-0.271,-0.271 -0.648,-0.407 -1.131,-0.407c-0.466,0 -0.838,0.139 -1.115,0.415c-0.276,0.277 -0.415,0.651 -0.415,1.123c0,0.461 0.139,0.836 0.415,1.123c0.277,0.282 0.649,0.424 1.115,0.424Zm0,5.647c0.548,0 0.985,-0.171 1.31,-0.512c0.331,-0.331 0.497,-0.787 0.497,-1.368c-0,-0.542 -0.166,-0.987 -0.497,-1.334c-0.152,-0.158 -0.336,-0.281 -0.553,-0.371c-0.217,-0.089 -0.469,-0.134 -0.757,-0.134c-0.548,0 -0.982,0.168 -1.302,0.505c-0.331,0.331 -0.496,0.778 -0.496,1.343c-0,0.564 0.165,1.02 0.496,1.367c0.147,0.152 0.331,0.274 0.553,0.366c0.223,0.092 0.472,0.138 0.749,0.138Z" style="fill:#252246;fill-rule:nonzero;"/><path d="M544.434,13.298c-0.217,-0 -0.422,-0.01 -0.615,-0.029c-0.192,-0.019 -0.389,-0.05 -0.59,-0.094c-0.423,-0.092 -0.833,-0.211 -1.229,-0.358l0,-2.189c0.418,0.244 0.83,0.429 1.237,0.554c0.375,0.119 0.754,0.179 1.14,0.179c0.412,-0 0.785,-0.071 1.119,-0.212c0.333,-0.141 0.617,-0.361 0.85,-0.659c0.217,-0.277 0.388,-0.629 0.513,-1.058c0.125,-0.429 0.192,-0.939 0.203,-1.53c-0.515,0.705 -1.307,1.058 -2.376,1.058c-1.101,-0 -1.951,-0.347 -2.547,-1.042c-0.592,-0.689 -0.887,-1.668 -0.887,-2.938c-0,-1.345 0.331,-2.395 0.992,-3.149c0.662,-0.743 1.631,-1.115 2.906,-1.115c0.754,0 1.386,0.129 1.896,0.387c0.51,0.257 0.928,0.625 1.253,1.102c0.369,0.543 0.631,1.208 0.785,1.994c0.155,0.787 0.232,1.663 0.232,2.629c0,1.193 -0.105,2.182 -0.317,2.966c-0.212,0.784 -0.513,1.426 -0.903,1.925c-0.423,0.542 -0.947,0.941 -1.571,1.196c-0.624,0.255 -1.321,0.383 -2.091,0.383Zm0.708,-6.348c0.52,-0 0.919,-0.19 1.196,-0.57c0.271,-0.385 0.407,-0.928 0.407,-1.627c-0,-0.375 -0.037,-0.699 -0.11,-0.973c-0.073,-0.274 -0.172,-0.498 -0.297,-0.671c-0.277,-0.375 -0.676,-0.562 -1.196,-0.562c-0.277,0 -0.512,0.05 -0.704,0.151c-0.193,0.1 -0.354,0.237 -0.485,0.411c-0.282,0.379 -0.423,0.925 -0.423,1.635c0,0.711 0.141,1.256 0.423,1.636c0.283,0.38 0.679,0.57 1.189,0.57Z" style="fill:#252246;fill-rule:nonzero;"/><path d="M554.468,13.298c-0.217,-0 -0.422,-0.01 -0.615,-0.029c-0.192,-0.019 -0.389,-0.05 -0.59,-0.094c-0.423,-0.092 -0.832,-0.211 -1.228,-0.358l-0,-2.189c0.417,0.244 0.83,0.429 1.236,0.554c0.375,0.119 0.755,0.179 1.14,0.179c0.412,-0 0.785,-0.071 1.119,-0.212c0.333,-0.141 0.617,-0.361 0.85,-0.659c0.217,-0.277 0.388,-0.629 0.513,-1.058c0.125,-0.429 0.193,-0.939 0.203,-1.53c-0.515,0.705 -1.307,1.058 -2.376,1.058c-1.101,-0 -1.95,-0.347 -2.547,-1.042c-0.592,-0.689 -0.887,-1.668 -0.887,-2.938c-0,-1.345 0.331,-2.395 0.993,-3.149c0.662,-0.743 1.63,-1.115 2.905,-1.115c0.754,0 1.386,0.129 1.896,0.387c0.51,0.257 0.928,0.625 1.253,1.102c0.369,0.543 0.631,1.208 0.786,1.994c0.154,0.787 0.232,1.663 0.232,2.629c-0,1.193 -0.106,2.182 -0.318,2.966c-0.211,0.784 -0.512,1.426 -0.903,1.925c-0.423,0.542 -0.947,0.941 -1.571,1.196c-0.624,0.255 -1.321,0.383 -2.091,0.383Zm0.708,-6.348c0.521,-0 0.919,-0.19 1.196,-0.57c0.271,-0.385 0.407,-0.928 0.407,-1.627c-0,-0.375 -0.037,-0.699 -0.11,-0.973c-0.073,-0.274 -0.172,-0.498 -0.297,-0.671c-0.277,-0.375 -0.675,-0.562 -1.196,-0.562c-0.277,0 -0.512,0.05 -0.704,0.151c-0.193,0.1 -0.354,0.237 -0.484,0.411c-0.282,0.379 -0.424,0.925 -0.424,1.635c0,0.711 0.142,1.256 0.424,1.636c0.282,0.38 0.678,0.57 1.188,0.57Z" style="fill:#252246;fill-rule:nonzero;"/><path d="M564.355,13.216c-0.944,0 -1.707,-0.27 -2.29,-0.81c-0.584,-0.539 -0.875,-1.317 -0.875,-2.331c-0,-0.64 0.115,-1.163 0.346,-1.567c0.23,-0.404 0.545,-0.717 0.944,-0.94c0.398,-0.222 0.85,-0.375 1.355,-0.459c0.504,-0.085 1.033,-0.127 1.587,-0.127l1.652,0l-0,-0.398c-0,-0.326 -0.086,-0.573 -0.257,-0.741c-0.171,-0.168 -0.39,-0.282 -0.659,-0.342c-0.269,-0.059 -0.544,-0.089 -0.826,-0.089c-0.575,-0 -1.127,0.078 -1.656,0.236c-0.529,0.157 -1.057,0.38 -1.583,0.667l0,-2.034c0.564,-0.228 1.125,-0.392 1.681,-0.493c0.556,-0.1 1.119,-0.15 1.688,-0.15c0.999,-0 1.788,0.142 2.368,0.427c0.581,0.285 0.995,0.724 1.241,1.318c0.247,0.594 0.371,1.35 0.371,2.267c-0,0.211 -0.004,0.483 -0.012,0.814c-0.009,0.33 -0.013,0.661 -0.013,0.992c0,0.293 -0.002,0.57 -0.008,0.83c-0.005,0.261 -0.008,0.481 -0.008,0.66c0,0.157 0.008,0.362 0.024,0.614c0.017,0.252 0.055,0.509 0.114,0.769c0.06,0.261 0.152,0.478 0.277,0.651l-2.36,0c-0.103,-0.173 -0.179,-0.336 -0.228,-0.488c-0.049,-0.152 -0.084,-0.328 -0.106,-0.529c-0.32,0.428 -0.72,0.745 -1.2,0.948c-0.48,0.203 -1.002,0.305 -1.567,0.305Zm0.782,-1.652c0.499,0 0.888,-0.137 1.168,-0.411c0.279,-0.274 0.477,-0.618 0.594,-1.033c0.116,-0.415 0.175,-0.835 0.175,-1.258l-0,-0.162l-0.953,-0c-0.374,-0 -0.746,0.025 -1.114,0.077c-0.369,0.051 -0.675,0.179 -0.916,0.382c-0.241,0.204 -0.362,0.539 -0.362,1.005c-0,0.445 0.123,0.79 0.37,1.034c0.247,0.244 0.593,0.366 1.038,0.366Z" style="fill:#252246;fill-rule:nonzero;"/><path d="M574.39,13.216c-0.944,0 -1.708,-0.27 -2.291,-0.81c-0.583,-0.539 -0.875,-1.317 -0.875,-2.331c-0,-0.64 0.115,-1.163 0.346,-1.567c0.23,-0.404 0.545,-0.717 0.944,-0.94c0.399,-0.222 0.85,-0.375 1.355,-0.459c0.504,-0.085 1.033,-0.127 1.587,-0.127l1.652,0l-0,-0.398c-0,-0.326 -0.086,-0.573 -0.257,-0.741c-0.17,-0.168 -0.39,-0.282 -0.659,-0.342c-0.268,-0.059 -0.544,-0.089 -0.826,-0.089c-0.575,-0 -1.127,0.078 -1.656,0.236c-0.529,0.157 -1.056,0.38 -1.583,0.667l0,-2.034c0.565,-0.228 1.125,-0.392 1.681,-0.493c0.556,-0.1 1.119,-0.15 1.688,-0.15c0.999,-0 1.788,0.142 2.369,0.427c0.58,0.285 0.994,0.724 1.241,1.318c0.246,0.594 0.37,1.35 0.37,2.267c-0,0.211 -0.004,0.483 -0.012,0.814c-0.008,0.33 -0.013,0.661 -0.013,0.992c0,0.293 -0.002,0.57 -0.008,0.83c-0.005,0.261 -0.008,0.481 -0.008,0.66c0,0.157 0.008,0.362 0.025,0.614c0.016,0.252 0.054,0.509 0.114,0.769c0.059,0.261 0.151,0.478 0.276,0.651l-2.36,0c-0.103,-0.173 -0.179,-0.336 -0.228,-0.488c-0.048,-0.152 -0.084,-0.328 -0.105,-0.529c-0.321,0.428 -0.721,0.745 -1.201,0.948c-0.48,0.203 -1.002,0.305 -1.566,0.305Zm0.781,-1.652c0.499,0 0.888,-0.137 1.168,-0.411c0.279,-0.274 0.477,-0.618 0.594,-1.033c0.116,-0.415 0.175,-0.835 0.175,-1.258l-0,-0.162l-0.952,-0c-0.375,-0 -0.746,0.025 -1.115,0.077c-0.369,0.051 -0.674,0.179 -0.916,0.382c-0.241,0.204 -0.362,0.539 -0.362,1.005c0,0.445 0.123,0.79 0.37,1.034c0.247,0.244 0.593,0.366 1.038,0.366Z" style="fill:#252246;fill-rule:nonzero;"/><path d="M586.507,13.216c-1.112,0 -1.92,-0.529 -2.425,-1.587l-0.236,1.351l-2.14,0l-0,-12.663l2.376,0l0,4.843c0.575,-1.01 1.383,-1.514 2.425,-1.514c1.02,-0 1.822,0.422 2.405,1.265c0.583,0.844 0.875,2.014 0.875,3.512c-0,1.497 -0.29,2.67 -0.871,3.52c-0.58,0.849 -1.383,1.273 -2.409,1.273Zm-0.757,-1.953c0.499,0 0.9,-0.259 1.201,-0.777c0.301,-0.518 0.451,-1.214 0.451,-2.088c0,-0.851 -0.145,-1.525 -0.435,-2.022c-0.29,-0.496 -0.688,-0.744 -1.192,-0.744c-0.516,-0 -0.927,0.256 -1.233,0.769c-0.307,0.512 -0.46,1.194 -0.46,2.046c0,0.852 0.152,1.534 0.456,2.047c0.304,0.513 0.708,0.769 1.212,0.769Z" style="fill:#252246;fill-rule:nonzero;"/><path d="M596.541,13.216c-1.112,0 -1.92,-0.529 -2.425,-1.587l-0.236,1.351l-2.14,0l-0,-12.663l2.376,0l0,4.843c0.575,-1.01 1.384,-1.514 2.425,-1.514c1.02,-0 1.822,0.422 2.405,1.265c0.583,0.844 0.875,2.014 0.875,3.512c-0,1.497 -0.29,2.67 -0.871,3.52c-0.58,0.849 -1.383,1.273 -2.409,1.273Zm-0.756,-1.953c0.499,0 0.899,-0.259 1.2,-0.777c0.301,-0.518 0.452,-1.214 0.452,-2.088c-0,-0.851 -0.146,-1.525 -0.436,-2.022c-0.29,-0.496 -0.688,-0.744 -1.192,-0.744c-0.515,-0 -0.926,0.256 -1.233,0.769c-0.307,0.512 -0.46,1.194 -0.46,2.046c0,0.852 0.152,1.534 0.456,2.047c0.304,0.513 0.708,0.769 1.213,0.769Z" style="fill:#252246;fill-rule:nonzero;"/><path d="M606.323,13.216c-1.443,0 -2.565,-0.42 -3.365,-1.261c-0.8,-0.841 -1.2,-2.013 -1.2,-3.516c-0,-1.508 0.396,-2.687 1.188,-3.536c0.792,-0.849 1.893,-1.273 3.304,-1.273c0.966,-0 1.891,0.233 2.775,0.699l0,2.181c-0.705,-0.618 -1.5,-0.927 -2.384,-0.927c-0.798,-0 -1.408,0.247 -1.831,0.74c-0.424,0.494 -0.635,1.197 -0.635,2.108c-0,0.906 0.21,1.605 0.631,2.096c0.42,0.491 1.021,0.736 1.802,0.736c0.928,0 1.733,-0.312 2.417,-0.936l0,2.189c-0.808,0.467 -1.709,0.7 -2.702,0.7Z" style="fill:#252246;fill-rule:nonzero;"/><path d="M616.357,13.216c-1.443,0 -2.564,-0.42 -3.365,-1.261c-0.8,-0.841 -1.2,-2.013 -1.2,-3.516c-0,-1.508 0.396,-2.687 1.188,-3.536c0.792,-0.849 1.894,-1.273 3.304,-1.273c0.966,-0 1.891,0.233 2.775,0.699l0,2.181c-0.705,-0.618 -1.5,-0.927 -2.384,-0.927c-0.798,-0 -1.408,0.247 -1.831,0.74c-0.423,0.494 -0.635,1.197 -0.635,2.108c-0,0.906 0.21,1.605 0.631,2.096c0.42,0.491 1.021,0.736 1.802,0.736c0.928,0 1.734,-0.312 2.417,-0.936l0,2.189c-0.808,0.467 -1.709,0.7 -2.702,0.7Z" style="fill:#252246;fill-rule:nonzero;"/><path d="M624.634,13.216c-1.026,0 -1.829,-0.424 -2.409,-1.273c-0.581,-0.85 -0.871,-2.017 -0.871,-3.504c0,-1.503 0.293,-2.677 0.879,-3.524c0.586,-0.846 1.392,-1.269 2.417,-1.269c1.02,-0 1.823,0.504 2.409,1.514l-0,-4.843l2.376,0l0,12.663l-2.14,0l-0.236,-1.351c-0.505,1.058 -1.313,1.587 -2.425,1.587Zm0.757,-1.953c0.504,0 0.908,-0.256 1.212,-0.769c0.304,-0.513 0.456,-1.195 0.456,-2.047c-0,-0.852 -0.153,-1.534 -0.46,-2.046c-0.306,-0.513 -0.717,-0.769 -1.233,-0.769c-0.504,-0 -0.902,0.248 -1.192,0.744c-0.29,0.497 -0.435,1.171 -0.435,2.022c-0,0.874 0.15,1.57 0.451,2.088c0.301,0.518 0.701,0.777 1.201,0.777Z" style="fill:#252246;fill-rule:nonzero;"/><path d="M634.668,13.216c-1.025,0 -1.828,-0.424 -2.409,-1.273c-0.58,-0.85 -0.871,-2.017 -0.871,-3.504c0,-1.503 0.293,-2.677 0.879,-3.524c0.586,-0.846 1.392,-1.269 2.417,-1.269c1.02,-0 1.823,0.504 2.409,1.514l0,-4.843l2.376,0l0,12.663l-2.14,0l-0.236,-1.351c-0.504,1.058 -1.313,1.587 -2.425,1.587Zm0.757,-1.953c0.504,0 0.909,-0.256 1.212,-0.769c0.304,-0.513 0.456,-1.195 0.456,-2.047c0,-0.852 -0.153,-1.534 -0.46,-2.046c-0.306,-0.513 -0.717,-0.769 -1.233,-0.769c-0.504,-0 -0.902,0.248 -1.192,0.744c-0.29,0.497 -0.435,1.171 -0.435,2.022c-0,0.874 0.15,1.57 0.451,2.088c0.302,0.518 0.702,0.777 1.201,0.777Z" style="fill:#252246;fill-rule:nonzero;"/><path d="M646.159,13.216c-1.568,0 -2.76,-0.405 -3.577,-1.216c-0.816,-0.812 -1.225,-1.985 -1.225,-3.52c0,-0.971 0.169,-1.819 0.505,-2.543c0.336,-0.725 0.84,-1.287 1.51,-1.689c0.67,-0.401 1.509,-0.602 2.518,-0.602c0.83,-0 1.549,0.192 2.157,0.578c0.608,0.385 1.078,0.921 1.412,1.607c0.333,0.686 0.5,1.485 0.5,2.397l0,0.968l-6.176,-0c-0,1.421 0.83,2.132 2.49,2.132c1.09,0 2.192,-0.328 3.304,-0.985l-0,2.19c-1.107,0.455 -2.246,0.683 -3.418,0.683Zm1.4,-5.81c-0,-0.63 -0.155,-1.106 -0.464,-1.429c-0.31,-0.322 -0.752,-0.484 -1.327,-0.484c-0.586,0 -1.044,0.166 -1.375,0.497c-0.331,0.331 -0.526,0.803 -0.586,1.416l3.752,-0Z" style="fill:#252246;fill-rule:nonzero;"/><path d="M656.193,13.216c-1.568,0 -2.76,-0.405 -3.577,-1.216c-0.816,-0.812 -1.224,-1.985 -1.224,-3.52c-0,-0.971 0.168,-1.819 0.504,-2.543c0.337,-0.725 0.84,-1.287 1.51,-1.689c0.67,-0.401 1.509,-0.602 2.518,-0.602c0.831,-0 1.549,0.192 2.157,0.578c0.608,0.385 1.078,0.921 1.412,1.607c0.334,0.686 0.5,1.485 0.5,2.397l0,0.968l-6.176,-0c-0,1.421 0.83,2.132 2.49,2.132c1.09,0 2.192,-0.328 3.304,-0.985l0,2.19c-1.107,0.455 -2.246,0.683 -3.418,0.683Zm1.4,-5.81c-0,-0.63 -0.155,-1.106 -0.464,-1.429c-0.309,-0.322 -0.752,-0.484 -1.327,-0.484c-0.586,0 -1.044,0.166 -1.375,0.497c-0.331,0.331 -0.526,0.803 -0.586,1.416l3.752,-0Z" style="fill:#252246;fill-rule:nonzero;"/><path d="M664.225,5.697l-2.213,-0l-0,-1.831l2.213,-0l0,-0.635c0,-0.733 0.099,-1.312 0.297,-1.738c0.198,-0.426 0.532,-0.728 1.001,-0.907c0.47,-0.179 1.111,-0.269 1.925,-0.269l1.961,0l0,1.831l-1.863,0c-0.348,0 -0.59,0.068 -0.729,0.204c-0.138,0.136 -0.207,0.374 -0.207,0.716l-0,0.798l2.799,-0l0,1.831l-2.799,-0l-0,7.283l-2.385,0l0,-7.283Z" style="fill:#252246;fill-rule:nonzero;"/><path d="M674.259,5.697l-2.213,-0l-0,-1.831l2.213,-0l0,-0.635c0,-0.733 0.099,-1.312 0.297,-1.738c0.199,-0.426 0.532,-0.728 1.001,-0.907c0.47,-0.179 1.111,-0.269 1.925,-0.269l1.961,0l0,1.831l-1.863,0c-0.347,0 -0.59,0.068 -0.729,0.204c-0.138,0.136 -0.207,0.374 -0.207,0.716l-0,0.798l2.799,-0l0,1.831l-2.799,-0l-0,7.283l-2.385,0l0,-7.283Z" style="fill:#252246;fill-rule:nonzero;"/></g><defs><radialGradient id="_Radial1" cx="0" cy="0" r="1" gradientUnits="userSpaceOnUse" gradientTransform="matrix(565.375,0,0,397.668,57.0605,242.792)"><stop offset="0" style="stop-color:#ec3a5e;stop-opacity:1"/><stop offset="0.59" style="stop-color:#ca3879;stop-opacity:1"/><stop offset="0.81" style="stop-color:#7d34b6;stop-opacity:1"/><stop offset="1" style="stop-color:#2f2ff4;stop-opacity:1"/></radialGradient><linearGradient id="_Linear2" x1="0" y1="0" x2="1" y2="0" gradientUnits="userSpaceOnUse" gradientTransform="matrix(480.855,0,0,33.2342,99.294,94.7442)"><stop offset="0" style="stop-color:#e4395d;stop-opacity:1"/><stop offset="0.17" style="stop-color:#8f2f53;stop-opacity:1"/><stop offset="0.37" style="stop-color:#42264a;stop-opacity:1"/><stop offset="1" style="stop-color:#242246;stop-opacity:1"/></linearGradient><linearGradient id="_Linear3" x1="0" y1="0" x2="1" y2="0" gradientUnits="userSpaceOnUse" gradientTransform="matrix(130.45,0,0,33.2342,99.294,150.279)"><stop offset="0" style="stop-color:#242246;stop-opacity:1"/><stop offset="0.63" style="stop-color:#42264a;stop-opacity:1"/><stop offset="0.83" style="stop-color:#8f2f53;stop-opacity:1"/><stop offset="1" style="stop-color:#e4395d;stop-opacity:1"/></linearGradient><linearGradient id="_Linear4" x1="0" y1="0" x2="1" y2="0" gradientUnits="userSpaceOnUse" gradientTransform="matrix(480.855,0,0,33.2342,99.294,206.212)"><stop offset="0" style="stop-color:#e4395d;stop-opacity:1"/><stop offset="0.1" style="stop-color:#983054;stop-opacity:1"/><stop offset="0.21" style="stop-color:#49264a;stop-opacity:1"/><stop offset="0.5" style="stop-color:#242246;stop-opacity:1"/><stop offset="0.79" style="stop-color:#46264a;stop-opacity:1"/><stop offset="0.9" style="stop-color:#8f2f53;stop-opacity:1"/><stop offset="1" style="stop-color:#d6375b;stop-opacity:1"/></linearGradient><linearGradient id="_Linear5" x1="0" y1="0" x2="1" y2="0" gradientUnits="userSpaceOnUse" gradientTransform="matrix(326.867,0,0,33.2342,253.308,150.279)"><stop offset="0" style="stop-color:#e4395d;stop-opacity:1"/><stop offset="0.1" style="stop-color:#983054;stop-opacity:1"/><stop offset="0.21" style="stop-color:#49264a;stop-opacity:1"/><stop offset="0.5" style="stop-color:#242246;stop-opacity:1"/><stop offset="0.79" style="stop-color:#48264a;stop-opacity:1"/><stop offset="0.9" style="stop-color:#963054;stop-opacity:1"/><stop offset="1" style="stop-color:#e1395d;stop-opacity:1"/></linearGradient><linearGradient id="_Linear6" x1="0" y1="0" x2="1" y2="0" gradientUnits="userSpaceOnUse" gradientTransform="matrix(480.855,0,0,33.2342,99.3202,275.68)"><stop offset="0" style="stop-color:#e4395d;stop-opacity:1"/><stop offset="0.17" style="stop-color:#8f2f53;stop-opacity:1"/><stop offset="0.37" style="stop-color:#42264a;stop-opacity:1"/><stop offset="1" style="stop-color:#242246;stop-opacity:1"/></linearGradient><linearGradient id="_Linear7" x1="0" y1="0" x2="1" y2="0" gradientUnits="userSpaceOnUse" gradientTransform="matrix(77.7576,0,0,33.2342,99.3202,387.511)"><stop offset="0" style="stop-color:#242246;stop-opacity:1"/><stop offset="1" style="stop-color:#e4395d;stop-opacity:1"/></linearGradient></defs></svg>