<?xml version="1.0" encoding="UTF-8" standalone="no"?>
<!DOCTYPE svg PUBLIC "-//W3C//DTD SVG 1.1//EN" "http://www.w3.org/Graphics/SVG/1.1/DTD/svg11.dtd">
<svg width="100%" height="100%" viewBox="0 0 2105 3299" version="1.1" xmlns="http://www.w3.org/2000/svg" xmlns:xlink="http://www.w3.org/1999/xlink" xml:space="preserve" xmlns:serif="http://www.serif.com/" style="fill-rule:evenodd;clip-rule:evenodd;stroke-linejoin:round;">
    <g transform="matrix(4.16667,0,0,4.16667,-8331.91,-3562.34)">
        <g>
            <path d="M2158.69,1274.51C2140.65,1274.51 2125.38,1286.48 2125.38,1302.26L2125.38,1364.7C2125.38,1380.47 2140.65,1392.45 2158.69,1392.45L2394.48,1392.45C2412.52,1392.45 2427.79,1380.47 2427.79,1364.7L2427.79,1302.26C2427.79,1286.48 2412.52,1274.51 2394.48,1274.51L2158.69,1274.51ZM2158.69,1289.51L2394.48,1289.51C2404.92,1289.51 2412.79,1295.67 2412.79,1302.26L2412.79,1364.7C2412.79,1371.28 2404.93,1377.45 2394.48,1377.45L2158.69,1377.45C2148.36,1377.45 2140.59,1371.42 2140.41,1364.92L2157.57,1364.88C2161.71,1364.88 2165.07,1361.53 2165.07,1357.38C2165.07,1353.24 2161.71,1349.88 2157.57,1349.88L2140.38,1349.92L2140.38,1340.7L2157.57,1340.7C2161.71,1340.69 2165.07,1337.34 2165.07,1333.2C2165.07,1329.05 2161.71,1325.69 2157.57,1325.7L2140.38,1325.7L2140.38,1322.42L2157.57,1322.38C2161.71,1322.38 2165.07,1319.03 2165.07,1314.88C2165.07,1310.74 2161.71,1307.38 2157.57,1307.38L2140.38,1307.42L2140.38,1302.26C2140.38,1295.67 2148.24,1289.51 2158.69,1289.51Z" style="fill:url(#_Linear1);fill-rule:nonzero;"/>
            <g>
                <path d="M2227.93,1315.78L2227.93,1339.78L2212.08,1315.78L2205.08,1315.78L2205.08,1350.73L2212.08,1350.73L2212.08,1326.78L2227.93,1350.73L2234.93,1350.73L2234.93,1315.78L2227.93,1315.78Z" style="fill:url(#_Linear2);fill-rule:nonzero;"/>
                <path d="M2256.18,1343.58L2246.58,1315.83L2239.08,1315.83L2251.88,1350.73L2260.38,1350.73L2273.18,1315.83L2265.73,1315.83L2256.18,1343.58Z" style="fill:url(#_Linear3);fill-rule:nonzero;"/>
                <path d="M2277.38,1350.73L2284.38,1350.73L2284.38,1328.03L2293.78,1350.73L2299.08,1350.73L2308.43,1328.03L2308.43,1350.73L2315.43,1350.73L2315.43,1315.83L2307.53,1315.83L2296.43,1341.78L2285.33,1315.83L2277.38,1315.83L2277.38,1350.73Z" style="fill:url(#_Linear4);fill-rule:nonzero;"/>
                <path d="M2334.23,1328.33C2337.83,1328.33 2340.73,1330.63 2340.83,1334.28L2327.68,1334.28C2328.23,1330.48 2330.88,1328.33 2334.23,1328.33ZM2347.38,1342.03L2339.83,1342.03C2338.93,1343.88 2337.28,1345.38 2334.28,1345.38C2330.78,1345.38 2327.98,1343.08 2327.63,1338.98L2347.88,1338.98C2348.03,1338.08 2348.08,1337.18 2348.08,1336.28C2348.08,1328.03 2342.43,1322.58 2334.43,1322.58C2326.23,1322.58 2320.53,1328.13 2320.53,1336.88C2320.53,1345.58 2326.38,1351.18 2334.43,1351.18C2341.28,1351.18 2345.88,1347.13 2347.38,1342.03Z" style="fill:url(#_Linear5);fill-rule:nonzero;"/>
            </g>
            <g>
                <path d="M2158.66,1528.71C2140.62,1528.71 2125.38,1540.69 2125.38,1556.46L2125.38,1618.9C2125.38,1634.68 2140.62,1646.65 2158.66,1646.65L2394.48,1646.65C2412.52,1646.65 2427.79,1634.68 2427.79,1618.9L2427.79,1556.46C2427.79,1540.69 2412.52,1528.71 2394.48,1528.71L2158.66,1528.71ZM2158.66,1543.71L2394.48,1543.71C2404.92,1543.71 2412.79,1549.88 2412.79,1556.46L2412.79,1618.9C2412.79,1625.49 2404.93,1631.65 2394.48,1631.65L2384.54,1631.65L2383.98,1611.78C2383.86,1607.63 2380.4,1604.35 2376.26,1604.46C2372.12,1604.58 2368.86,1608.04 2368.98,1612.18L2369.54,1631.65L2362.44,1631.65L2361.88,1611.81C2361.77,1607.67 2358.3,1604.38 2354.16,1604.49C2350.02,1604.61 2346.77,1608.07 2346.88,1612.21L2347.41,1631.65L2340.13,1631.65L2339.57,1611.9C2339.45,1607.76 2336.02,1604.47 2331.88,1604.59C2327.74,1604.7 2324.45,1608.17 2324.57,1612.31L2325.1,1631.65L2318.66,1631.65L2318.13,1611.96C2318.02,1607.82 2314.55,1604.57 2310.41,1604.68C2306.27,1604.8 2303.02,1608.26 2303.13,1612.4L2303.66,1631.65L2296.63,1631.65L2296.07,1611.78C2295.95,1607.63 2292.49,1604.35 2288.35,1604.46C2284.21,1604.58 2280.95,1608.04 2281.07,1612.18L2281.63,1631.65L2241.69,1631.65L2241.13,1611.78C2241.02,1607.63 2237.55,1604.35 2233.41,1604.46C2229.27,1604.58 2226.02,1608.04 2226.13,1612.18L2226.69,1631.65L2219.6,1631.65L2219.04,1611.81C2218.92,1607.67 2215.46,1604.38 2211.32,1604.49C2207.18,1604.61 2203.92,1608.07 2204.04,1612.21L2204.57,1631.65L2197.29,1631.65L2196.73,1611.9C2196.61,1607.76 2193.18,1604.47 2189.04,1604.59C2184.9,1604.7 2181.61,1608.17 2181.73,1612.31L2182.26,1631.65L2175.82,1631.65L2175.29,1611.96C2175.17,1607.82 2171.71,1604.57 2167.57,1604.68C2163.43,1604.8 2160.17,1608.26 2160.29,1612.4L2160.82,1631.65L2158.66,1631.65C2148.21,1631.65 2140.38,1625.49 2140.38,1618.9L2140.38,1556.46C2140.38,1549.88 2148.21,1543.71 2158.66,1543.71Z" style="fill:url(#_Linear6);fill-rule:nonzero;"/>
                <g>
                    <path d="M2242.13,1571.81C2242.13,1574.96 2240.38,1577.01 2236.48,1577.01L2230.63,1577.01L2230.63,1566.76L2236.48,1566.76C2240.38,1566.76 2242.13,1568.71 2242.13,1571.81ZM2223.63,1560.96L2223.63,1595.86L2230.63,1595.86L2230.63,1582.26L2233.93,1582.26L2241.63,1595.86L2249.73,1595.86L2241.38,1581.71C2246.98,1580.21 2249.33,1575.91 2249.33,1571.66C2249.33,1565.81 2245.13,1560.96 2236.73,1560.96L2223.63,1560.96Z" style="fill:url(#_Linear7);fill-rule:nonzero;"/>
                    <path d="M2279.38,1595.86L2286.78,1595.86L2274.23,1560.91L2266.08,1560.91L2253.53,1595.86L2260.88,1595.86L2263.18,1589.21L2277.08,1589.21L2279.38,1595.86ZM2275.18,1583.61L2265.08,1583.61L2270.13,1569.01L2275.18,1583.61Z" style="fill:url(#_Linear8);fill-rule:nonzero;"/>
                    <path d="M2291.48,1595.86L2298.48,1595.86L2298.48,1573.16L2307.88,1595.86L2313.18,1595.86L2322.53,1573.16L2322.53,1595.86L2329.53,1595.86L2329.53,1560.96L2321.63,1560.96L2310.53,1586.91L2299.43,1560.96L2291.48,1560.96L2291.48,1595.86Z" style="fill:url(#_Linear9);fill-rule:nonzero;"/>
                </g>
            </g>
            <g>
                <g>
                    <path d="M2059.76,1348.05C2008.76,1373.34 1948.48,1437.84 2106.45,1588.03" style="fill:none;fill-rule:nonzero;stroke:rgb(236,58,94);stroke-width:10px;"/>
                    <path d="M2056.91,1386.02L2102.33,1333.46L2034.23,1319.8L2056.91,1386.02Z" style="fill:rgb(236,58,94);fill-rule:nonzero;"/>
                </g>
            </g>
            <g>
                <g>
                    <path d="M2466.74,1049.47C2486.78,1096.41 2505.39,1179.47 2445.2,1266.92" style="fill:none;fill-rule:nonzero;stroke:rgb(35,34,70);stroke-width:10px;"/>
                    <path d="M2504.65,1045.88L2445.19,1009.97L2443.2,1079.4L2504.65,1045.88Z" style="fill:rgb(35,34,70);fill-rule:nonzero;"/>
                </g>
            </g>
            <g>
                <path d="M2318.91,854.962C2285.63,854.962 2256.27,874.308 2242.41,903.118C2236.26,897.4 2228.08,893.993 2219.26,893.993C2200.54,893.993 2185.38,909.099 2185.23,927.775C2150.51,936.503 2125.38,965.372 2125.38,999.337C2125.38,1040.56 2162.1,1073.65 2207.04,1073.65L2342.23,1073.65C2387.16,1073.65 2423.88,1040.56 2423.88,999.337C2423.88,980.95 2416.44,963.689 2403.44,950.275C2403.62,948.07 2403.85,945.876 2403.85,943.65L2403.85,939.9C2403.85,892.992 2365.82,854.962 2318.91,854.962ZM2318.91,869.962C2357.54,869.962 2388.85,901.276 2388.85,939.9L2388.85,943.65C2388.85,946.493 2388.65,949.327 2388.32,952.118C2388.22,952.935 2388.28,953.719 2388.44,954.525C2388.76,956.844 2390,958.915 2392.01,960.056C2402.77,970.837 2408.88,984.649 2408.88,999.337C2408.88,1031.9 2379.21,1058.65 2342.23,1058.65L2207.04,1058.65C2170.05,1058.65 2140.38,1031.9 2140.38,999.337C2140.38,970.285 2164.15,945.428 2196.35,940.806C2200.45,940.217 2203.28,936.406 2202.69,932.306C2202.43,930.486 2201.49,928.969 2200.23,927.837C2200.35,917.417 2208.81,908.993 2219.26,908.993C2226.8,908.993 2233.5,913.447 2236.57,920.181C2236.37,923.683 2238.51,926.964 2242.04,927.868C2246.05,928.898 2250.13,926.474 2251.16,922.462C2259.03,891.797 2286.8,869.962 2318.91,869.962Z" style="fill:url(#_Linear10);fill-rule:nonzero;"/>
                <g>
                    <path d="M2203.7,993.162C2203.7,1003.61 2211.35,1010.96 2221.4,1010.96C2229.15,1010.96 2235.45,1006.86 2237.8,999.662L2229.75,999.662C2228.1,1003.06 2225.1,1004.71 2221.35,1004.71C2215.25,1004.71 2210.9,1000.21 2210.9,993.162C2210.9,986.062 2215.25,981.612 2221.35,981.612C2225.1,981.612 2228.1,983.262 2229.75,986.612L2237.8,986.612C2235.45,979.462 2229.15,975.312 2221.4,975.312C2211.35,975.312 2203.7,982.712 2203.7,993.162Z" style="fill:url(#_Linear11);fill-rule:nonzero;"/>
                    <rect x="2243.8" y="973.662" width="7" height="36.998" style="fill:url(#_Linear12);fill-rule:nonzero;"/>
                    <path d="M2284.45,996.812C2284.45,988.062 2278.2,982.512 2270.2,982.512C2262.2,982.512 2255.95,988.062 2255.95,996.812C2255.95,1005.51 2262,1011.11 2270,1011.11C2278.05,1011.11 2284.45,1005.51 2284.45,996.812ZM2263.05,996.812C2263.05,991.262 2266.4,988.612 2270.1,988.612C2273.8,988.612 2277.25,991.262 2277.25,996.812C2277.25,1002.31 2273.7,1005.01 2270,1005.01C2266.25,1005.01 2263.05,1002.31 2263.05,996.812Z" style="fill:url(#_Linear13);fill-rule:nonzero;"/>
                    <path d="M2315.75,982.962L2308.7,982.962L2308.7,998.212C2308.7,1002.66 2306.3,1005.06 2302.5,1005.06C2298.8,1005.06 2296.35,1002.66 2296.35,998.212L2296.35,982.962L2289.35,982.962L2289.35,999.212C2289.35,1006.81 2294,1011.01 2300.45,1011.01C2303.9,1011.01 2306.95,1009.51 2308.7,1007.16L2308.7,1010.66L2315.75,1010.66L2315.75,982.962Z" style="fill:url(#_Linear14);fill-rule:nonzero;"/>
                    <path d="M2320.85,996.712C2320.85,1005.36 2326.45,1011.11 2333.5,1011.11C2337.85,1011.11 2340.95,1009.11 2342.6,1006.56L2342.6,1010.66L2349.7,1010.66L2349.7,973.662L2342.6,973.662L2342.6,986.812C2340.7,984.212 2337.2,982.512 2333.55,982.512C2326.45,982.512 2320.85,988.062 2320.85,996.712ZM2342.65,996.812C2342.65,1002.06 2339.15,1004.96 2335.3,1004.96C2331.55,1004.96 2328,1001.96 2328,996.712C2328,991.462 2331.55,988.662 2335.3,988.662C2339.15,988.662 2342.65,991.562 2342.65,996.812Z" style="fill:url(#_Linear15);fill-rule:nonzero;"/>
                </g>
            </g>
            <g>
                <path d="M2074.08,987.816C2082,994.634 2092.56,993.632 2099.12,986.015C2104.17,980.141 2105.18,972.692 2101.25,966.214L2096,972.315C2097.5,975.783 2096.8,979.133 2094.35,981.975C2090.37,986.598 2084.12,986.959 2078.78,982.36C2073.4,977.728 2072.86,971.528 2076.84,966.905C2079.29,964.063 2082.5,962.866 2086.11,963.801L2091.36,957.7C2084.41,954.816 2077.16,956.883 2072.1,962.757C2065.54,970.373 2066.16,980.999 2074.08,987.816Z" style="fill:url(#_Linear16);fill-rule:nonzero;"/>
                <path d="M2120.46,939.534C2113.83,933.825 2105.55,934.941 2100.33,941.004C2095.11,947.067 2095.24,955.425 2101.87,961.133C2108.46,966.809 2116.65,965.878 2121.87,959.815C2127.12,953.714 2127.05,945.21 2120.46,939.534ZM2106.5,955.752C2102.29,952.132 2102.47,947.864 2104.88,945.06C2107.3,942.256 2111.56,941.37 2115.76,944.991C2119.93,948.579 2119.66,953.031 2117.25,955.835C2114.8,958.677 2110.67,959.341 2106.5,955.752Z" style="fill:url(#_Linear17);fill-rule:nonzero;"/>
                <path d="M2134.32,944.667L2138.88,939.362L2110.84,915.223L2106.28,920.528L2134.32,944.667Z" style="fill:url(#_Linear18);fill-rule:nonzero;"/>
                <path d="M2131.64,926.396C2138.19,932.039 2146.21,931.546 2150.8,926.203C2153.64,922.906 2154.15,919.252 2153.29,916.338L2156.4,919.013L2161.03,913.632L2132.99,889.493L2128.36,894.874L2138.33,903.453C2135.12,903.197 2131.54,904.74 2129.16,907.506C2124.53,912.887 2125.08,920.752 2131.64,926.396ZM2145.94,909.939C2149.92,913.364 2149.83,917.909 2147.32,920.827C2144.87,923.669 2140.28,924.402 2136.3,920.977C2132.32,917.552 2132.52,913.034 2134.96,910.192C2137.48,907.275 2141.96,906.514 2145.94,909.939Z" style="fill:url(#_Linear19);fill-rule:nonzero;"/>
            </g>
            <g>
                <path d="M2088.98,1313.7L2094.32,1307.48L2080.06,1286.01L2103.12,1297.37L2108.53,1291.14L2088.59,1260.88L2083.63,1266.58L2099.9,1288.94L2075.17,1276.32L2070.05,1282.21L2085.85,1305.34L2061.36,1292.2L2056.44,1297.87L2088.98,1313.7Z" style="fill:url(#_Linear20);fill-rule:nonzero;"/>
                <path d="M2106.2,1272.55C2112.73,1278.23 2120.74,1277.77 2125.34,1272.49C2128.22,1269.17 2128.7,1265.42 2127.97,1262.6L2131.03,1265.25L2135.66,1259.93L2114.75,1241.76L2110.13,1247.08L2113.11,1249.67C2110.29,1249.41 2106.7,1250.33 2103.78,1253.69C2099.16,1259.01 2099.67,1266.88 2106.2,1272.55ZM2120.58,1256.17C2124.54,1259.61 2124.43,1264.15 2121.91,1267.06C2119.45,1269.89 2114.85,1270.6 2110.89,1267.16C2106.93,1263.71 2107.15,1259.2 2109.61,1256.37C2112.13,1253.46 2116.62,1252.72 2120.58,1256.17Z" style="fill:url(#_Linear21);fill-rule:nonzero;"/>
                <path d="M2134.33,1240.43C2130.29,1236.92 2130.72,1233.98 2133.45,1230.85L2134.66,1229.45L2129.11,1224.63C2126.59,1227.53 2126.08,1230.94 2127.08,1234.13L2123.84,1231.31L2119.24,1236.59L2140.15,1254.76L2144.74,1249.48L2134.33,1240.43Z" style="fill:url(#_Linear22);fill-rule:nonzero;"/>
                <path d="M2178.83,1210.27L2183.42,1204.99L2171.15,1194.33C2165.38,1189.31 2159.13,1190.1 2154.76,1195.12C2152.11,1198.18 2151.33,1202.34 2152.53,1205.77C2148.68,1204.94 2144.96,1206.4 2142.13,1209.65C2139.87,1212.25 2139.03,1215.43 2139.62,1218.26L2137.09,1216.06L2132.5,1221.34L2153.4,1239.52L2158,1234.23L2146.45,1224.2C2143.13,1221.31 2143,1217.95 2145.49,1215.08C2147.92,1212.29 2151.26,1211.95 2154.58,1214.84L2166.13,1224.88L2170.72,1219.59L2159.18,1209.56C2155.86,1206.67 2155.73,1203.31 2158.19,1200.48C2160.61,1197.69 2163.96,1197.35 2167.28,1200.23L2178.83,1210.27Z" style="fill:url(#_Linear23);fill-rule:nonzero;"/>
            </g>
            <g>
                <path d="M2414.3,1518.82L2418.89,1524.11L2445.23,1501.21L2440.64,1495.93L2429.81,1505.34L2420,1494.06L2430.83,1484.65L2426.24,1479.36L2399.9,1502.26L2404.49,1507.54L2415.7,1497.8L2425.51,1509.08L2414.3,1518.82Z" style="fill:url(#_Linear24);fill-rule:nonzero;"/>
                <path d="M2451.42,1540.42C2458.02,1534.68 2458.11,1526.32 2452.86,1520.28C2447.61,1514.24 2439.33,1513.17 2432.72,1518.91C2426.16,1524.62 2425.9,1532.86 2431.15,1538.89C2436.43,1544.97 2444.85,1546.13 2451.42,1540.42ZM2437.38,1524.27C2441.57,1520.63 2445.77,1521.42 2448.19,1524.21C2450.62,1527 2450.88,1531.34 2446.7,1534.98C2442.54,1538.59 2438.18,1537.68 2435.75,1534.89C2433.29,1532.06 2433.23,1527.87 2437.38,1524.27Z" style="fill:url(#_Linear25);fill-rule:nonzero;"/>
                <path d="M2451.56,1548.58C2446.77,1552.74 2447.4,1556.9 2450.87,1560.9L2453.76,1564.22L2458.21,1560.35L2456.08,1557.9C2454.64,1556.24 2454.75,1555.15 2456.14,1553.93L2466.26,1545.14L2470.33,1549.82L2474.67,1546.05L2470.6,1541.37L2475.77,1536.87L2471.14,1531.55L2465.97,1536.05L2463.81,1533.56L2459.47,1537.33L2461.63,1539.82L2451.56,1548.58Z" style="fill:url(#_Linear26);fill-rule:nonzero;"/>
            </g>
        </g>
    </g>
    <defs>
        <linearGradient id="_Linear1" x1="0" y1="0" x2="1" y2="0" gradientUnits="userSpaceOnUse" gradientTransform="matrix(302.41,0,0,302.41,2125.38,1333.47)"><stop offset="0" style="stop-color:rgb(236,58,94);stop-opacity:1"/><stop offset="1" style="stop-color:rgb(35,34,70);stop-opacity:1"/></linearGradient>
        <linearGradient id="_Linear2" x1="0" y1="0" x2="1" y2="0" gradientUnits="userSpaceOnUse" gradientTransform="matrix(208.4,0,0,208.4,2218.12,1336.84)"><stop offset="0" style="stop-color:rgb(236,58,94);stop-opacity:1"/><stop offset="1" style="stop-color:rgb(35,34,70);stop-opacity:1"/></linearGradient>
        <linearGradient id="_Linear3" x1="0" y1="0" x2="1" y2="0" gradientUnits="userSpaceOnUse" gradientTransform="matrix(208.4,0,0,208.4,2218.12,1336.84)"><stop offset="0" style="stop-color:rgb(236,58,94);stop-opacity:1"/><stop offset="1" style="stop-color:rgb(35,34,70);stop-opacity:1"/></linearGradient>
        <linearGradient id="_Linear4" x1="0" y1="0" x2="1" y2="0" gradientUnits="userSpaceOnUse" gradientTransform="matrix(208.4,0,0,208.4,2218.12,1336.84)"><stop offset="0" style="stop-color:rgb(236,58,94);stop-opacity:1"/><stop offset="1" style="stop-color:rgb(35,34,70);stop-opacity:1"/></linearGradient>
        <linearGradient id="_Linear5" x1="0" y1="0" x2="1" y2="0" gradientUnits="userSpaceOnUse" gradientTransform="matrix(208.4,0,0,208.4,2218.12,1336.84)"><stop offset="0" style="stop-color:rgb(236,58,94);stop-opacity:1"/><stop offset="1" style="stop-color:rgb(35,34,70);stop-opacity:1"/></linearGradient>
        <linearGradient id="_Linear6" x1="0" y1="0" x2="1" y2="0" gradientUnits="userSpaceOnUse" gradientTransform="matrix(302.41,0,0,302.41,2125.38,1587.68)"><stop offset="0" style="stop-color:rgb(35,34,70);stop-opacity:1"/><stop offset="1" style="stop-color:rgb(236,58,94);stop-opacity:1"/></linearGradient>
        <linearGradient id="_Linear7" x1="0" y1="0" x2="1" y2="0" gradientUnits="userSpaceOnUse" gradientTransform="matrix(172.62,0,0,172.62,2200.09,1579.99)"><stop offset="0" style="stop-color:rgb(35,34,70);stop-opacity:1"/><stop offset="1" style="stop-color:rgb(236,58,94);stop-opacity:1"/></linearGradient>
        <linearGradient id="_Linear8" x1="0" y1="0" x2="1" y2="0" gradientUnits="userSpaceOnUse" gradientTransform="matrix(172.62,0,0,172.62,2200.09,1579.99)"><stop offset="0" style="stop-color:rgb(35,34,70);stop-opacity:1"/><stop offset="1" style="stop-color:rgb(236,58,94);stop-opacity:1"/></linearGradient>
        <linearGradient id="_Linear9" x1="0" y1="0" x2="1" y2="0" gradientUnits="userSpaceOnUse" gradientTransform="matrix(172.62,0,0,172.62,2200.09,1579.99)"><stop offset="0" style="stop-color:rgb(35,34,70);stop-opacity:1"/><stop offset="1" style="stop-color:rgb(236,58,94);stop-opacity:1"/></linearGradient>
        <linearGradient id="_Linear10" x1="0" y1="0" x2="1" y2="0" gradientUnits="userSpaceOnUse" gradientTransform="matrix(298.5,0,0,298.5,2125.39,964.306)"><stop offset="0" style="stop-color:rgb(35,34,70);stop-opacity:1"/><stop offset="0.96" style="stop-color:rgb(236,58,94);stop-opacity:1"/><stop offset="1" style="stop-color:rgb(236,58,94);stop-opacity:1"/></linearGradient>
        <linearGradient id="_Linear11" x1="0" y1="0" x2="1" y2="0" gradientUnits="userSpaceOnUse" gradientTransform="matrix(235.38,3.981,-3.981,235.38,2222.31,984.666)"><stop offset="0" style="stop-color:rgb(35,34,70);stop-opacity:1"/><stop offset="0.96" style="stop-color:rgb(236,58,94);stop-opacity:1"/><stop offset="1" style="stop-color:rgb(236,58,94);stop-opacity:1"/></linearGradient>
        <linearGradient id="_Linear12" x1="0" y1="0" x2="1" y2="0" gradientUnits="userSpaceOnUse" gradientTransform="matrix(235.38,3.981,-3.981,235.38,2222.31,984.666)"><stop offset="0" style="stop-color:rgb(35,34,70);stop-opacity:1"/><stop offset="0.96" style="stop-color:rgb(236,58,94);stop-opacity:1"/><stop offset="1" style="stop-color:rgb(236,58,94);stop-opacity:1"/></linearGradient>
        <linearGradient id="_Linear13" x1="0" y1="0" x2="1" y2="0" gradientUnits="userSpaceOnUse" gradientTransform="matrix(235.38,3.981,-3.981,235.38,2222.31,984.666)"><stop offset="0" style="stop-color:rgb(35,34,70);stop-opacity:1"/><stop offset="0.96" style="stop-color:rgb(236,58,94);stop-opacity:1"/><stop offset="1" style="stop-color:rgb(236,58,94);stop-opacity:1"/></linearGradient>
        <linearGradient id="_Linear14" x1="0" y1="0" x2="1" y2="0" gradientUnits="userSpaceOnUse" gradientTransform="matrix(235.38,3.981,-3.981,235.38,2222.31,984.666)"><stop offset="0" style="stop-color:rgb(35,34,70);stop-opacity:1"/><stop offset="0.96" style="stop-color:rgb(236,58,94);stop-opacity:1"/><stop offset="1" style="stop-color:rgb(236,58,94);stop-opacity:1"/></linearGradient>
        <linearGradient id="_Linear15" x1="0" y1="0" x2="1" y2="0" gradientUnits="userSpaceOnUse" gradientTransform="matrix(235.38,3.981,-3.981,235.38,2222.31,984.666)"><stop offset="0" style="stop-color:rgb(35,34,70);stop-opacity:1"/><stop offset="0.96" style="stop-color:rgb(236,58,94);stop-opacity:1"/><stop offset="1" style="stop-color:rgb(236,58,94);stop-opacity:1"/></linearGradient>
        <linearGradient id="_Linear16" x1="0" y1="0" x2="1" y2="0" gradientUnits="userSpaceOnUse" gradientTransform="matrix(82.54,-106.771,106.771,82.54,2103.08,967.284)"><stop offset="0" style="stop-color:rgb(47,47,244);stop-opacity:1"/><stop offset="1" style="stop-color:rgb(35,34,70);stop-opacity:1"/></linearGradient>
        <linearGradient id="_Linear17" x1="0" y1="0" x2="1" y2="0" gradientUnits="userSpaceOnUse" gradientTransform="matrix(82.54,-106.771,106.771,82.54,2103.08,967.284)"><stop offset="0" style="stop-color:rgb(47,47,244);stop-opacity:1"/><stop offset="1" style="stop-color:rgb(35,34,70);stop-opacity:1"/></linearGradient>
        <linearGradient id="_Linear18" x1="0" y1="0" x2="1" y2="0" gradientUnits="userSpaceOnUse" gradientTransform="matrix(82.54,-106.771,106.771,82.54,2103.08,967.284)"><stop offset="0" style="stop-color:rgb(47,47,244);stop-opacity:1"/><stop offset="1" style="stop-color:rgb(35,34,70);stop-opacity:1"/></linearGradient>
        <linearGradient id="_Linear19" x1="0" y1="0" x2="1" y2="0" gradientUnits="userSpaceOnUse" gradientTransform="matrix(82.54,-106.771,106.771,82.54,2103.08,967.284)"><stop offset="0" style="stop-color:rgb(47,47,244);stop-opacity:1"/><stop offset="1" style="stop-color:rgb(35,34,70);stop-opacity:1"/></linearGradient>
        <linearGradient id="_Linear20" x1="0" y1="0" x2="1" y2="0" gradientUnits="userSpaceOnUse" gradientTransform="matrix(172.64,0.92,-0.92,172.64,2073.41,1251.06)"><stop offset="0" style="stop-color:rgb(236,58,94);stop-opacity:1"/><stop offset="1" style="stop-color:rgb(35,34,70);stop-opacity:1"/></linearGradient>
        <linearGradient id="_Linear21" x1="0" y1="0" x2="1" y2="0" gradientUnits="userSpaceOnUse" gradientTransform="matrix(172.64,0.92,-0.92,172.64,2073.41,1251.06)"><stop offset="0" style="stop-color:rgb(236,58,94);stop-opacity:1"/><stop offset="1" style="stop-color:rgb(35,34,70);stop-opacity:1"/></linearGradient>
        <linearGradient id="_Linear22" x1="0" y1="0" x2="1" y2="0" gradientUnits="userSpaceOnUse" gradientTransform="matrix(172.64,0.92,-0.92,172.64,2073.41,1251.06)"><stop offset="0" style="stop-color:rgb(236,58,94);stop-opacity:1"/><stop offset="1" style="stop-color:rgb(35,34,70);stop-opacity:1"/></linearGradient>
        <linearGradient id="_Linear23" x1="0" y1="0" x2="1" y2="0" gradientUnits="userSpaceOnUse" gradientTransform="matrix(172.64,0.92,-0.92,172.64,2073.41,1251.06)"><stop offset="0" style="stop-color:rgb(236,58,94);stop-opacity:1"/><stop offset="1" style="stop-color:rgb(35,34,70);stop-opacity:1"/></linearGradient>
        <linearGradient id="_Linear24" x1="0" y1="0" x2="1" y2="0" gradientUnits="userSpaceOnUse" gradientTransform="matrix(164.57,-12.45,12.45,164.57,2489.06,1607.3)"><stop offset="0" style="stop-color:rgb(236,58,94);stop-opacity:1"/><stop offset="1" style="stop-color:rgb(35,34,70);stop-opacity:1"/></linearGradient>
        <linearGradient id="_Linear25" x1="0" y1="0" x2="1" y2="0" gradientUnits="userSpaceOnUse" gradientTransform="matrix(164.57,-12.45,12.45,164.57,2489.06,1607.3)"><stop offset="0" style="stop-color:rgb(236,58,94);stop-opacity:1"/><stop offset="1" style="stop-color:rgb(35,34,70);stop-opacity:1"/></linearGradient>
        <linearGradient id="_Linear26" x1="0" y1="0" x2="1" y2="0" gradientUnits="userSpaceOnUse" gradientTransform="matrix(164.57,-12.45,12.45,164.57,2489.06,1607.3)"><stop offset="0" style="stop-color:rgb(236,58,94);stop-opacity:1"/><stop offset="1" style="stop-color:rgb(35,34,70);stop-opacity:1"/></linearGradient>
    </defs>
</svg>
