<?xml version="1.0" encoding="UTF-8" standalone="no"?> <!-- Created with Vectornator for iOS (http://vectornator.io/) --><!DOCTYPE svg PUBLIC "-//W3C//DTD SVG 1.1//EN" "http://www.w3.org/Graphics/SVG/1.1/DTD/svg11.dtd">
<svg height="100%" style="fill-rule:nonzero;clip-rule:evenodd;stroke-linecap:round;stroke-linejoin:round;" xmlns:xlink="http://www.w3.org/1999/xlink" xmlns="http://www.w3.org/2000/svg" xml:space="preserve" width="100%" xmlns:vectornator="http://vectornator.io" version="1.1" viewBox="0 0 1113.24 408.427">
<metadata>
<vectornator:setting key="DimensionsVisible" value="1"/>
<vectornator:setting key="PencilOnly" value="0"/>
<vectornator:setting key="SnapToPoints" value="0"/>
<vectornator:setting key="OutlineMode" value="0"/>
<vectornator:setting key="CMYKEnabledKey" value="0"/>
<vectornator:setting key="RulersVisible" value="1"/>
<vectornator:setting key="SnapToEdges" value="0"/>
<vectornator:setting key="GuidesVisible" value="1"/>
<vectornator:setting key="DisplayWhiteBackground" value="0"/>
<vectornator:setting key="doHistoryDisabled" value="0"/>
<vectornator:setting key="SnapToGuides" value="1"/>
<vectornator:setting key="TimeLapseWatermarkDisabled" value="0"/>
<vectornator:setting key="Units" value="Points"/>
<vectornator:setting key="DynamicGuides" value="0"/>
<vectornator:setting key="IsolateActiveLayer" value="0"/>
<vectornator:setting key="SnapToGrid" value="0"/>
</metadata>
<defs/>
<g id="Untitled" vectornator:layerName="Untitled">
<g opacity="1">
<path d="M0.713961+3.2508L200.188+3.2508L200.188+3.2508L200.188+3.251C200.188+113.369+110.881+202.638+0.714126+202.638L0.713961+202.638L0.713961+202.638L0.713961+3.2508L0.713961+3.2508Z" opacity="1" fill="#2f2ff4"/>
<path d="M200.781+3.2508L200.781+3.2508C310.947+3.2508+400.255+92.5193+400.255+202.638L400.255+202.638L400.255+202.638L200.781+202.638L200.781+202.638L200.781+3.2508L200.781+3.2508Z" opacity="1" fill="#ca2a4c"/>
<path d="M200.188+403.377L200.188+403.377C90.0215+403.377+0.713898+314.109+0.713888+203.99L0.713888+203.99L0.713888+203.99L200.188+203.99L200.188+203.99L200.188+403.377L200.188+403.377Z" opacity="1" fill="#2f2ff4"/>
<path d="M400.255+403.459L200.781+403.459L200.781+403.459L200.781+403.459C200.781+293.341+290.088+204.072+400.255+204.072L400.255+204.072L400.255+204.072L400.255+403.459L400.255+403.459Z" opacity="1" fill="#2f2ff4"/>
</g>
<g opacity="1">
<path d="M448.878+191.867C444.852+190.248+441.352+187.545+438.768+184.059C436.246+180.537+434.895+176.311+434.908+171.979L451.254+171.917C451.341+174.73+452.547+177.392+454.606+179.312C456.909+181.225+459.855+182.188+462.843+182.005C465.857+182.168+468.829+181.249+471.225+179.414C473.221+177.767+474.34+175.286+474.251+172.699C474.317+170.645+473.564+168.649+472.159+167.15C470.695+165.652+468.925+164.487+466.969+163.736C464.164+162.674+461.305+161.758+458.404+160.992C454.29+159.855+450.261+158.432+446.346+156.733C443.201+155.288+440.46+153.09+438.366+150.334C436.139+147.473+435.016+143.645+434.999+138.85C434.887+134.675+436.05+130.565+438.332+127.067C440.67+123.635+443.953+120.955+447.782+119.349C452.189+117.484+456.936+116.556+461.721+116.624C469.567+116.594+475.949+118.477+480.868+122.273C485.786+126.068+488.513+131.379+489.048+138.207L472.266+138.271C472.147+135.728+470.924+133.365+468.917+131.799C466.557+130.009+463.638+129.114+460.68+129.271C458.101+129.148+455.566+129.972+453.551+131.587C451.704+133.289+450.731+135.739+450.906+138.245C450.858+140.14+451.594+141.971+452.942+143.304C454.387+144.707+456.095+145.811+457.967+146.554C459.968+147.382+462.786+148.333+466.424+149.409C470.56+150.553+474.608+151.994+478.537+153.722C481.719+155.206+484.494+157.439+486.626+160.229C488.888+163.127+490.028+166.937+490.048+171.658C490.083+175.656+489.004+179.585+486.931+183.004C484.712+186.614+481.51+189.518+477.7+191.375C473.192+193.562+468.228+194.646+463.219+194.537C458.307+194.631+453.427+193.723+448.878+191.867Z" opacity="1" fill="#ffffff"/>
<path d="M565.2+133.011L528.163+222.076L511.926+222.138L524.888+192.012L500.47+133.259L517.579+133.193L533.323+175.307L548.963+133.073L565.2+133.011Z" opacity="1" fill="#ffffff"/>
<path d="M670.655+138.547C675.212+143.07+677.506+149.399+677.538+157.536L677.674+192.952L662.418+193.011L662.29+159.664C662.272+154.943+661.059+151.333+658.653+148.836C656.052+146.261+652.483+144.908+648.83+145.113C645.16+144.944+641.588+146.321+638.983+148.911C636.557+151.426+635.354+155.045+635.373+159.767L635.501+193.114L620.245+193.172L620.117+159.826C620.099+155.104+618.886+151.495+616.479+148.997C613.879+146.423+610.311+145.07+606.657+145.275C602.443+145.291+599.124+146.557+596.7+149.073C594.276+151.588+593.073+155.207+593.092+159.929L593.219+193.276L577.963+193.334L577.732+132.963L592.988+132.904L593.016+140.206C595.011+137.62+597.602+135.554+600.567+134.184C603.753+132.696+607.231+131.938+610.747+131.965C615.145+131.87+619.496+132.884+623.4+134.912C627.056+136.841+630.062+139.805+632.042+143.434C634.043+139.887+636.994+136.969+640.564+135.01C644.26+132.899+648.445+131.794+652.702+131.804C660.112+131.776+666.097+134.023+670.655+138.547Z" opacity="1" fill="#ffffff"/>
<path d="M789.217+138.092C793.774+142.615+796.068+148.945+796.1+157.082L796.236+192.498L780.98+192.556L780.852+159.21C780.834+154.488+779.621+150.879+777.214+148.381C774.614+145.807+771.045+144.454+767.392+144.659C763.722+144.489+760.15+145.867+757.545+148.457C755.119+150.972+753.916+154.591+753.935+159.313L754.063+192.66L738.807+192.718L738.679+159.371C738.661+154.65+737.448+151.04+735.041+148.543C732.441+145.968+728.873+144.616+725.219+144.82C721.005+144.836+717.686+146.103+715.262+148.619C712.838+151.134+711.635+154.753+711.654+159.475L711.781+192.822L696.525+192.88L696.294+132.508L711.55+132.45L711.578+139.752C713.573+137.166+716.164+135.1+719.129+133.73C722.315+132.242+725.793+131.484+729.309+131.511C733.707+131.416+738.058+132.43+741.961+134.458C745.618+136.387+748.624+139.351+750.604+142.98C752.604+139.433+755.556+136.515+759.126+134.556C762.822+132.445+767.007+131.34+771.264+131.35C778.674+131.322+784.659+133.569+789.217+138.092Z" opacity="1" fill="#ffffff"/>
<path d="M870.675+166.604L826.541+166.773C826.699+170.651+828.354+174.316+831.157+176.999C833.866+179.464+837.427+180.779+841.088+180.666C846.755+180.644+850.778+178.195+853.156+173.317L869.611+173.254C867.941+179.002+864.44+184.047+859.641+187.624C854.714+191.385+848.655+193.279+841.464+193.306C836.004+193.415+830.61+192.102+825.81+189.497C821.227+186.977+817.466+183.189+814.98+178.586C812.306+173.564+810.953+167.944+811.049+162.255C810.902+156.538+812.191+150.875+814.8+145.786C817.203+141.18+820.9+137.378+825.438+134.848C835.204+129.762+846.818+129.677+856.658+134.618C861.139+137.004+864.826+140.644+867.27+145.094C869.859+149.889+871.174+155.269+871.089+160.718C871.112+162.688+870.973+164.657+870.675+166.604ZM855.27+156.419C855.321+152.799+853.749+149.347+850.985+147.01C848.147+144.635+844.535+143.388+840.836+143.506C837.338+143.418+833.936+144.657+831.314+146.975C828.638+149.482+826.966+152.878+826.611+156.528L855.27+156.419Z" opacity="1" fill="#ffffff"/>
<path d="M904.261+144.244L904.373+173.449C904.228+175.062+904.768+176.661+905.861+177.857C906.845+178.763+908.499+179.21+910.823+179.2L917.907+179.173L917.957+192.032L908.368+192.068C895.508+192.118+889.055+185.894+889.007+173.398L888.896+144.303L881.703+144.331L881.655+131.798L888.848+131.77L888.79+116.842L904.156+116.783L904.213+131.712L917.725+131.66L917.773+144.192L904.261+144.244Z" opacity="1" fill="#ffffff"/>
<path d="M956.035+133.367C959.336+131.499+963.076+130.545+966.868+130.601L966.93+146.619L962.896+146.634C958.102+146.652+954.492+147.792+952.067+150.054C949.64+152.316+948.439+156.244+948.462+161.838L948.577+191.914L933.32+191.973L933.089+131.601L948.346+131.543L948.382+140.915C950.251+137.79+952.885+135.193+956.035+133.367Z" opacity="1" fill="#ffffff"/>
<path d="M1037.29+165.966L993.158+166.135C993.316+170.012+994.97+173.677+997.773+176.36C1000.48+178.826+1004.04+180.141+1007.71+180.028C1013.37+180.006+1017.39+177.556+1019.77+172.679L1036.23+172.616C1034.56+178.364+1031.06+183.409+1026.26+186.986C1021.33+190.747+1015.27+192.641+1008.08+192.667C1002.62+192.776+997.226+191.464+992.427+188.859C987.843+186.338+984.084+182.55+981.598+177.948C978.923+172.926+977.57+167.306+977.667+161.617C977.519+155.9+978.809+150.237+981.417+145.148C983.819+140.542+987.517+136.739+992.054+134.209C1001.82+129.124+1013.44+129.039+1023.28+133.98C1027.76+136.366+1031.44+140.006+1033.89+144.455C1036.48+149.25+1037.79+154.63+1037.71+160.079C1037.73+162.049+1037.59+164.018+1037.29+165.966ZM1021.89+155.78C1021.94+152.161+1020.37+148.708+1017.6+146.371C1014.76+143.997+1011.15+142.75+1007.45+142.868C1003.95+142.78+1000.55+144.019+997.931+146.337C995.255+148.844+993.582+152.24+993.226+155.89L1021.89+155.78Z" opacity="1" fill="#ffffff"/>
<path d="M1108.89+165.692L1064.75+165.861C1064.91+169.738+1066.56+173.403+1069.37+176.086C1072.08+178.551+1075.64+179.866+1079.3+179.753C1084.96+179.732+1088.99+177.282+1091.37+172.405L1107.82+172.342C1106.15+178.089+1102.65+183.134+1097.85+186.711C1092.92+190.473+1086.86+192.367+1079.67+192.393C1074.21+192.502+1068.82+191.19+1064.02+188.584C1059.44+186.064+1055.68+182.276+1053.19+177.673C1050.52+172.651+1049.16+167.031+1049.26+161.342C1049.11+155.625+1050.4+149.963+1053.01+144.873C1055.41+140.267+1059.11+136.465+1063.65+133.935C1073.41+128.85+1085.03+128.764+1094.87+133.706C1099.35+136.091+1103.04+139.732+1105.48+144.181C1108.07+148.976+1109.38+154.356+1109.3+159.805C1109.32+161.775+1109.18+163.744+1108.89+165.692ZM1093.48+155.506C1093.53+151.886+1091.96+148.434+1089.19+146.097C1086.36+143.722+1082.74+142.475+1079.05+142.594C1075.55+142.505+1072.15+143.745+1069.52+146.062C1066.85+148.57+1065.18+151.966+1064.82+155.616L1093.48+155.506Z" opacity="1" fill="#ffffff"/>
<path d="M456.079+291.723L445.96+274.791L438.461+274.82L438.526+291.79L434.459+291.806L434.303+251.18L446.507+251.133C451.041+251.116+454.484+252.188+456.836+254.348C459.203+256.541+460.498+259.655+460.385+262.879C460.469+265.607+459.584+268.278+457.886+270.416C455.974+272.627+453.327+274.072+450.433+274.483L460.961+291.704L456.079+291.723ZM438.449+271.507L446.644+271.475C449.821+271.463+452.21+270.679+453.813+269.122C455.451+267.476+456.318+265.214+456.2+262.895C456.336+260.594+455.482+258.344+453.852+256.714C452.297+255.267+449.853+254.55+446.521+254.562L438.384+254.593L438.449+271.507Z" opacity="1" fill="#ffffff"/>
<path d="M493.422+254.267L493.48+269.435L508.882+269.376L508.894+272.748L493.493+272.807L493.552+288.208L510.698+288.142L510.711+291.514L489.497+291.595L489.341+250.911L510.555+250.829L510.568+254.201L493.422+254.267Z" opacity="1" fill="#ffffff"/>
<path d="M544.909+290.395C542.983+289.564+541.32+288.223+540.099+286.518C538.94+284.885+538.286+282.948+538.218+280.947L542.519+280.93C542.73+282.926+543.668+284.773+545.155+286.121C546.71+287.608+548.979+288.346+551.963+288.333C554.331+288.453+556.658+287.688+558.493+286.187C560.061+284.844+560.94+282.865+560.884+280.802C560.952+279.282+560.472+277.789+559.532+276.592C558.642+275.536+557.499+274.721+556.21+274.223C554.419+273.558+552.593+272.992+550.74+272.529C548.539+271.975+546.38+271.265+544.28+270.404C542.664+269.694+541.258+268.578+540.2+267.165C538.985+265.416+538.384+263.313+538.491+261.185C538.454+259.195+539.013+257.24+540.097+255.571C541.229+253.873+542.815+252.527+544.674+251.687C546.805+250.715+549.126+250.23+551.468+250.266C554.727+250.098+557.945+251.061+560.575+252.993C562.825+254.714+564.274+257.281+564.583+260.097L560.166+260.114C559.827+258.348+558.848+256.768+557.417+255.678C553.69+253.095+548.746+253.114+545.038+255.726C543.424+257.01+542.524+258.991+542.617+261.052C542.551+262.545+543.033+264.011+543.97+265.175C544.878+266.225+546.028+267.038+547.321+267.544C549.1+268.223+550.916+268.798+552.762+269.266C554.943+269.837+557.082+270.557+559.164+271.422C560.801+272.138+562.226+273.263+563.303+274.689C564.511+276.42+565.112+278.503+565.01+280.612C565.016+282.517+564.5+284.388+563.52+286.022C562.452+287.795+560.907+289.231+559.061+290.167C556.866+291.271+554.433+291.819+551.976+291.762C549.55+291.821+547.139+291.354+544.909+290.395Z" opacity="1" fill="#ffffff"/>
<path d="M597.745+253.867L597.803+269.035L613.205+268.976L613.217+272.348L597.816+272.407L597.875+287.808L615.021+287.742L615.034+291.114L593.82+291.195L593.664+250.511L614.878+250.43L614.891+253.801L597.745+253.867Z" opacity="1" fill="#ffffff"/>
<path d="M667.478+281.266L648.996+281.337L645.487+290.997L641.186+291.014L655.853+250.854L660.444+250.837L675.36+290.883L671.06+290.899L667.478+281.266ZM666.244+277.899L658.14+255.961L650.203+277.96L666.244+277.899Z" opacity="1" fill="#ffffff"/>
<path d="M724.413+290.695L714.294+273.763L706.795+273.792L706.861+290.762L702.793+290.778L702.637+250.152L714.842+250.105C719.375+250.088+722.818+251.16+725.17+253.32C727.537+255.513+728.832+258.626+728.719+261.851C728.803+264.579+727.918+267.25+726.22+269.388C724.308+271.599+721.661+273.044+718.767+273.455L729.295+290.676L724.413+290.695ZM706.783+270.478L714.978+270.447C718.155+270.435+720.544+269.651+722.147+268.094C723.785+266.448+724.652+264.186+724.535+261.867C724.67+259.566+723.816+257.316+722.186+255.685C720.631+254.239+718.187+253.521+714.855+253.534L706.718+253.565L706.783+270.478Z" opacity="1" fill="#ffffff"/>
<path d="M758.468+259.5C760.115+256.422+762.578+253.859+765.588+252.091C768.652+250.303+772.143+249.376+775.69+249.407C779.81+249.275+783.874+250.383+787.356+252.589C790.634+254.771+793.122+257.951+794.452+261.657L789.686+261.675C788.603+259.037+786.739+256.793+784.343+255.245C779.202+252.249+772.863+252.185+767.662+255.077C765.258+256.508+763.318+258.604+762.077+261.113C759.386+266.873+759.412+273.535+762.147+279.275C763.413+281.762+765.368+283.832+767.778+285.239C773+288.082+779.329+287.98+784.457+284.972C786.833+283.435+788.681+281.207+789.751+278.587L794.517+278.569C793.204+282.265+790.728+285.435+787.461+287.605C783.997+289.812+779.955+290.94+775.849+290.847C772.302+290.906+768.805+290.006+765.727+288.241C762.71+286.502+760.227+283.969+758.55+280.917C755.037+274.217+755.006+266.226+758.468+259.5Z" opacity="1" fill="#ffffff"/>
<path d="M853.572+249.574L853.727+290.199L849.659+290.215L849.587+271.21L827.559+271.294L827.632+290.299L823.564+290.315L823.408+249.689L827.476+249.674L827.546+267.923L849.574+267.838L849.504+249.589L853.572+249.574Z" opacity="1" fill="#ffffff"/>
<path d="M924.85+286.613L939.438+286.558L939.451+289.871L920.794+289.942L920.638+249.317L924.707+249.301L924.85+286.613Z" opacity="1" fill="#ffffff"/>
<path d="M989.687+280.031L971.205+280.102L967.696+289.763L963.397+289.779L978.062+249.62L982.654+249.602L997.57+289.648L993.269+289.665L989.687+280.031ZM988.453+276.664L980.349+254.726L972.412+276.726L988.453+276.664Z" opacity="1" fill="#ffffff"/>
<path d="M1049.75+271.954C1051.33+273.795+1052.19+276.146+1052.16+278.57C1052.19+280.529+1051.67+282.457+1050.64+284.127C1049.55+285.836+1047.99+287.194+1046.15+288.038C1043.93+289.049+1041.51+289.545+1039.07+289.489L1025+289.543L1024.85+248.917L1038.5+248.865C1042.61+248.849+1045.74+249.787+1047.9+251.678C1050.04+253.52+1051.23+256.225+1051.16+259.045C1051.26+261.27+1050.55+263.456+1049.15+265.185C1047.77+266.776+1045.95+267.926+1043.93+268.49C1046.22+268.911+1048.29+270.14+1049.75+271.954ZM1028.98+266.86L1038.46+266.824C1040.74+266.964+1043.01+266.264+1044.81+264.854C1046.33+263.486+1047.14+261.507+1047.03+259.469C1047.12+257.456+1046.29+255.512+1044.77+254.189C1042.89+252.794+1040.57+252.122+1038.23+252.295L1028.93+252.33L1028.98+266.86ZM1045.64+283.942C1047.3+282.501+1048.21+280.375+1048.09+278.179C1048.17+275.937+1047.21+273.784+1045.48+272.348C1043.5+270.819+1041.03+270.054+1038.53+270.195L1029+270.232L1029.06+286.099L1038.76+286.062C1041.24+286.202+1043.68+285.45+1045.64+283.942Z" opacity="1" fill="#ffffff"/>
<path d="M1085.88+288.322C1083.95+287.491+1082.29+286.151+1081.07+284.445C1079.91+282.813+1079.25+280.876+1079.19+278.874L1083.49+278.858C1083.7+280.853+1084.63+282.701+1086.12+284.048C1087.68+285.536+1089.95+286.273+1092.93+286.26C1095.3+286.381+1097.63+285.616+1099.46+284.114C1101.03+282.771+1101.91+280.793+1101.85+278.729C1101.92+277.209+1101.44+275.716+1100.5+274.52C1099.61+273.463+1098.47+272.648+1097.18+272.15C1095.39+271.485+1093.56+270.919+1091.71+270.456C1089.51+269.902+1087.35+269.192+1085.25+268.331C1083.63+267.621+1082.23+266.505+1081.17+265.092C1079.95+263.343+1079.35+261.24+1079.46+259.113C1079.42+257.123+1079.98+255.167+1081.06+253.498C1082.2+251.8+1083.78+250.455+1085.64+249.614C1087.77+248.643+1090.09+248.158+1092.44+248.194C1095.7+248.025+1098.91+248.988+1101.54+250.92C1103.79+252.642+1105.24+255.209+1105.55+258.025L1101.13+258.042C1100.79+256.275+1099.82+254.696+1098.38+253.605C1094.66+251.023+1089.71+251.042+1086+253.653C1084.39+254.938+1083.49+256.919+1083.58+258.98C1083.52+260.473+1084+261.938+1084.94+263.102C1085.84+264.153+1087+264.966+1088.29+265.471C1090.07+266.15+1091.88+266.725+1093.73+267.194C1095.91+267.764+1098.05+268.484+1100.13+269.349C1101.77+270.065+1103.19+271.19+1104.27+272.616C1105.48+274.347+1106.08+276.43+1105.98+278.539C1105.98+280.445+1105.47+282.315+1104.49+283.949C1103.42+285.722+1101.87+287.158+1100.03+288.094C1097.83+289.198+1095.4+289.746+1092.94+289.689C1090.52+289.748+1088.11+289.282+1085.88+288.322Z" opacity="1" fill="#ffffff"/>
<path d="M874.661+257.997L874.661+257.997C887.271+257.948+897.532+268.131+897.581+280.741L897.581+280.741L897.581+280.741L874.749+280.829L874.749+280.829L874.661+257.997L874.661+257.997Z" opacity="1" fill="#ca2a4c"/>
</g>
</g>
</svg>
