<?xml version="1.0" standalone="no"?>
<!DOCTYPE svg PUBLIC "-//W3C//DTD SVG 20010904//EN"
 "http://www.w3.org/TR/2001/REC-SVG-20010904/DTD/svg10.dtd">
<svg version="1.0" xmlns="http://www.w3.org/2000/svg"
 width="614.000000pt" height="614.000000pt" viewBox="0 0 614.000000 614.000000"
 preserveAspectRatio="xMidYMid meet">
<metadata>
Created by potrace 1.14, written by Peter Selinger 2001-2017
</metadata>
<g transform="translate(0.000000,614.000000) scale(0.100000,-0.100000)"
fill="#000000" stroke="none">
<path d="M10 4610 l0 -1531 143 7 c78 3 150 7 160 7 9 1 17 4 17 7 0 3 17 5
38 6 41 0 153 14 162 19 3 2 21 6 40 9 42 7 76 14 110 22 14 3 32 7 40 9 8 1
22 5 30 7 8 3 58 17 110 31 53 14 109 31 125 38 17 7 36 14 43 16 6 1 18 5 25
6 6 2 24 9 39 15 15 6 67 27 115 47 101 42 344 166 381 195 13 11 29 20 34 20
5 0 14 5 21 10 7 6 62 45 124 88 61 42 142 102 180 132 83 68 342 324 409 405
27 33 52 62 56 63 5 2 8 10 8 17 0 7 4 15 9 17 11 4 141 185 141 197 0 5 4 11
8 13 5 2 23 30 42 63 18 33 37 62 40 65 4 3 36 64 72 135 72 142 143 311 178
420 12 39 24 77 27 85 7 18 6 14 33 120 25 95 29 114 36 150 2 14 9 45 14 70
5 25 12 63 15 85 3 22 8 56 11 75 8 52 12 101 20 253 l7 137 -1532 0 -1531 0
0 -1530z"/>
<path d="M3080 5907 c-1 -336 -1 -364 1 -373 1 -5 0 -13 -1 -19 -1 -5 -1 -50
0 -100 1 -49 1 -97 1 -105 -2 -60 -2 -177 -1 -185 1 -6 2 -14 1 -20 -1 -5 -1
-66 -1 -135 1 -69 1 -132 1 -140 -2 -86 -2 -177 -1 -185 1 -6 2 -14 1 -20 -5
-26 -1 -267 4 -275 3 -5 1 -11 -4 -14 -4 -3 -7 -20 -4 -38 5 -40 5 -47 3 -128
-1 -36 -1 -69 0 -75 1 -5 1 -14 0 -20 -2 -11 -1 -128 1 -142 1 -4 0 -12 -1
-18 -2 -11 -1 -128 1 -142 1 -4 0 -12 -1 -18 -2 -11 -1 -128 1 -142 1 -4 0
-12 -1 -18 -2 -11 -1 -128 1 -142 1 -4 0 -12 -1 -18 -2 -11 -1 -128 1 -142 1
-4 0 -12 -1 -18 -4 -20 0 -137 5 -145 3 -5 1 -11 -4 -15 -6 -3 -8 -12 -5 -19
5 -12 250 -14 1535 -14 l1530 0 -6 126 c-6 138 -10 193 -19 250 -4 20 -8 55
-11 77 -3 22 -7 51 -10 65 -3 14 -7 41 -10 60 -4 32 -33 149 -69 280 -16 59
-42 142 -56 175 -19 48 -73 183 -84 210 -6 17 -13 32 -16 35 -3 3 -33 61 -67
130 -98 195 -270 447 -428 625 -82 93 -282 285 -335 322 -12 8 -32 25 -45 37
-14 13 -44 36 -67 52 -24 16 -45 31 -48 34 -32 34 -273 181 -410 251 -89 44
-251 118 -275 123 -5 2 -19 6 -30 10 -11 5 -42 16 -70 26 -58 22 -248 77 -285
84 -14 2 -43 9 -65 14 -39 11 -62 15 -139 27 -21 4 -46 8 -55 10 -9 2 -44 6
-76 10 -33 4 -73 9 -90 11 -16 3 -90 7 -162 9 l-133 5 0 -233z"/>
<path d="M106 3063 c-3 -3 -27 -5 -52 -5 l-46 2 6 -127 c6 -129 13 -217 20
-263 2 -14 7 -45 11 -70 4 -25 14 -79 22 -120 8 -41 17 -85 18 -97 2 -12 6
-26 9 -31 3 -5 8 -24 11 -43 20 -114 133 -424 217 -590 26 -53 48 -101 48
-108 0 -6 3 -11 8 -11 4 0 13 -15 21 -32 8 -18 17 -35 21 -38 3 -3 22 -32 40
-65 19 -33 37 -61 42 -63 4 -2 8 -10 8 -17 0 -7 3 -15 8 -17 4 -1 20 -23 36
-47 16 -25 33 -50 38 -55 4 -6 31 -40 59 -76 27 -36 64 -83 82 -105 35 -44
268 -280 333 -336 101 -90 310 -240 434 -314 65 -38 319 -171 332 -174 11 -3
79 -30 103 -41 80 -38 347 -120 475 -145 14 -3 36 -8 50 -11 14 -4 34 -8 45
-10 11 -1 45 -7 76 -13 31 -5 87 -13 125 -16 38 -4 72 -9 75 -11 4 -2 70 -6
147 -9 l142 -6 2 233 c2 128 2 816 0 1530 l-2 1296 -56 4 c-31 1 -58 0 -60 -4
-3 -4 -15 -4 -27 1 -12 4 -33 5 -47 1 -14 -4 -36 -4 -50 0 -14 3 -36 5 -50 3
-35 -5 -30 -5 -173 -3 -71 1 -131 0 -134 -3 -3 -3 -15 -2 -27 2 -11 4 -32 5
-46 1 -14 -4 -36 -4 -50 0 -14 3 -36 5 -50 3 -28 -4 -24 -4 -140 -4 -47 -1
-94 0 -105 1 -11 1 -26 1 -32 1 -30 -2 -42 -2 -111 0 -40 1 -75 -1 -78 -4 -3
-3 -16 -2 -28 2 -11 4 -32 5 -46 1 -14 -4 -36 -4 -50 0 -14 3 -36 5 -50 3 -28
-4 -24 -4 -140 -4 -47 -1 -94 0 -105 1 -11 1 -26 1 -32 1 -30 -2 -42 -2 -111
0 -40 1 -75 -1 -78 -4 -3 -3 -16 -2 -28 2 -11 4 -32 5 -46 1 -14 -4 -36 -4
-50 0 -14 3 -36 5 -50 3 -28 -4 -24 -4 -140 -4 -47 -1 -94 0 -105 1 -11 1 -26
1 -32 1 -29 -2 -41 -2 -108 -1 -38 1 -74 0 -80 -1 -5 -1 -14 0 -20 1 -5 1 -48
1 -95 0 -47 0 -96 0 -110 0 -14 1 -32 1 -40 1 -55 -2 -164 0 -170 4 -4 2 -10
2 -14 -2z"/>
<path d="M5967 3054 c-1 -1 -40 -5 -87 -8 -230 -16 -473 -67 -715 -148 -127
-43 -304 -114 -320 -129 -5 -5 -14 -9 -21 -9 -6 0 -67 -31 -135 -68 -154 -84
-168 -93 -193 -114 -11 -10 -23 -18 -28 -18 -7 0 -97 -59 -108 -71 -3 -3 -23
-18 -45 -34 -42 -31 -188 -149 -216 -175 -112 -105 -183 -177 -283 -290 -183
-206 -421 -599 -515 -850 -18 -47 -36 -94 -41 -105 -7 -17 -29 -80 -37 -110
-1 -5 -12 -41 -23 -80 -12 -38 -23 -81 -26 -94 -3 -14 -7 -28 -9 -31 -2 -4 -7
-22 -10 -41 -3 -19 -12 -65 -20 -104 -16 -86 -23 -125 -30 -190 -3 -27 -8 -60
-10 -71 -3 -12 -7 -87 -11 -168 l-6 -146 1531 0 1531 0 0 1529 0 1529 -85 -1
c-47 -1 -87 -2 -88 -3z"/>
</g>
</svg>
