<?xml version="1.0" encoding="UTF-8" standalone="no"?><!DOCTYPE svg PUBLIC "-//W3C//DTD SVG 1.1//EN" "http://www.w3.org/Graphics/SVG/1.1/DTD/svg11.dtd"><svg width="100%" height="100%" viewBox="0 0 1342 1475" version="1.1" xmlns="http://www.w3.org/2000/svg" xmlns:xlink="http://www.w3.org/1999/xlink" xml:space="preserve" xmlns:serif="http://www.serif.com/" style="fill-rule:evenodd;clip-rule:evenodd;stroke-linejoin:round;"><g id="Layer-1" serif:id="Layer 1"><path d="M611.544,1218.06c-23.14,0 -41.094,22.74 -41.094,50.06l0,92.03c0,15.54 5.953,29.42 15.219,38.66c-3.13,0.9 -5.854,1.97 -7.969,3.28c-3.696,2.3 -6.156,5.47 -6.156,9.78l0,18.94c0,4.32 2.46,7.49 6.156,9.78c2.402,1.49 5.485,2.69 9.188,3.66c6.882,1.81 15.932,2.81 25.5,2.81l214.593,0c9.57,0 18.62,-1 25.5,-2.81c3.7,-0.97 6.79,-2.17 9.19,-3.66c3.69,-2.29 6.15,-5.46 6.15,-9.78l0,-18.94c0,-4.31 -2.46,-7.48 -6.15,-9.78c-2.11,-1.31 -4.83,-2.35 -7.94,-3.25c9.28,-9.24 15.22,-23.14 15.22,-38.69l-0,-92.03c-0,-27.32 -17.99,-50.06 -41.13,-50.06l-216.277,0Zm0,15l216.277,0c13.98,0 26.13,15.35 26.13,35.06l-0,92.03c-0,19.72 -12.15,35.1 -26.13,35.1l-216.277,0c-13.973,0 -26.094,-15.38 -26.094,-35.1l0,-92.03c0,-19.71 12.121,-35.06 26.094,-35.06Zm0.844,177.56l66.656,0c-0.006,0.15 -0.094,0.26 -0.094,0.41c-0,5.92 4.772,10.72 10.688,10.72l60.094,0c5.916,0 10.719,-4.8 10.719,-10.72c-0,-0.15 -0.09,-0.26 -0.09,-0.41l66.62,0c8.36,0 16.15,0.86 21.69,2.32c1.94,0.5 3.14,1.05 4.15,1.56l-0,13.69c-1.01,0.5 -2.21,1.05 -4.15,1.56c-5.54,1.45 -13.33,2.31 -21.69,2.31l-214.593,0c-8.357,0 -16.147,-0.86 -21.688,-2.31c-1.938,-0.51 -3.141,-1.06 -4.156,-1.56l-0,-13.69c1.015,-0.51 2.217,-1.05 4.156,-1.56c5.541,-1.46 13.331,-2.32 21.688,-2.32Z" style="fill:url(#_Linear1);fill-rule:nonzero;"/><path d="M1088.32,1157.76c-25.04,0 -45.25,20.71 -45.25,46.16l0,135.34c0,25.45 20.21,46.12 45.25,46.12l96.06,0l0.87,55.41l-38.5,0c-11.07,0 -20.81,6.98 -20.81,17.03c0,10.05 9.74,17.03 20.81,17.03l91.13,0c11.07,0 20.84,-6.98 20.84,-17.03c0,-10.05 -9.77,-17.03 -20.84,-17.03l-37.63,0l-0.87,-55.41l96.94,0c25.03,0 45.24,-20.67 45.25,-46.12l0,-135.34c0,-25.45 -20.22,-46.16 -45.25,-46.16l-208,0Zm0,15l208,0c16.66,0 30.24,13.92 30.25,31.16l0,135.34c0,17.24 -13.59,31.12 -30.25,31.12l-208,0c-16.67,0 -30.25,-13.88 -30.25,-31.12l0,-135.34c0,-17.24 13.58,-31.16 30.25,-31.16Zm58.43,283.03l44.35,0c0.62,0.16 1.23,0.36 1.9,0.34c0.57,0 1.07,-0.21 1.6,-0.34l43.28,0c2.06,0 3.92,0.57 5.09,1.41c0.33,0.23 0.49,0.44 0.63,0.62c-0.14,0.18 -0.3,0.39 -0.63,0.63c-1.18,0.84 -3.03,1.4 -5.09,1.4l-91.13,-0c-2.06,-0 -3.88,-0.56 -5.06,-1.4c-0.33,-0.24 -0.49,-0.45 -0.62,-0.63c0.13,-0.18 0.29,-0.39 0.62,-0.62c1.18,-0.84 3,-1.41 5.06,-1.41Z" style="fill:url(#_Linear2);fill-rule:nonzero;"/><g><path d="M1010.99,0c-94.82,0 -178.47,55.121 -217.96,137.209c-17.52,-16.293 -40.827,-25.999 -65.981,-25.999c-53.315,0 -96.522,43.04 -96.963,96.251c-98.9,24.869 -170.509,107.125 -170.51,203.899c0,117.448 104.617,211.734 232.659,211.735l385.185,0c128.04,0 232.66,-94.287 232.66,-211.735c0,-52.39 -21.2,-101.57 -58.24,-139.791c0.5,-6.281 1.16,-12.533 1.16,-18.876l-0,-10.685c-0,-133.651 -108.35,-242.008 -242.01,-242.008Zm-0,42.739c110.05,0 199.27,89.222 199.27,199.269l-0,10.685c-0,8.102 -0.55,16.177 -1.51,24.129c-0.28,2.327 -0.12,4.562 0.36,6.856c0.89,6.608 4.44,12.51 10.15,15.76c30.66,30.717 48.08,70.072 48.08,111.922c-0,92.79 -84.55,168.996 -189.92,168.996l-385.185,0c-105.376,0 -189.921,-76.206 -189.92,-168.996c-0,-82.777 67.726,-153.6 159.469,-166.77c11.682,-1.677 19.752,-12.536 18.074,-24.218c-0.744,-5.186 -3.422,-9.507 -7.034,-12.733c0.345,-29.69 24.453,-53.691 54.225,-53.69c21.502,0 40.581,12.689 49.331,31.876c-0.56,9.977 5.53,19.325 15.58,21.903c11.43,2.933 23.06,-3.972 26,-15.404c22.41,-87.371 101.53,-149.585 193.03,-149.585Z" style="fill:url(#_Linear3);fill-rule:nonzero;"/></g><path d="M233.455,969.649c-23.141,-0 -41.094,22.74 -41.094,50.06l-0,92.03c-0,15.54 5.953,29.41 15.219,38.66c-3.131,0.9 -5.854,1.97 -7.969,3.28c-3.696,2.29 -6.156,5.46 -6.156,9.78l-0,18.94c-0,4.32 2.46,7.48 6.156,9.78c2.402,1.49 5.484,2.68 9.188,3.66c6.882,1.8 15.932,2.81 25.5,2.81l214.593,-0c9.568,-0 18.618,-1.01 25.5,-2.81c3.703,-0.98 6.786,-2.17 9.188,-3.66c3.696,-2.3 6.156,-5.46 6.156,-9.78l-0,-18.94c-0,-4.32 -2.46,-7.49 -6.156,-9.78c-2.107,-1.31 -4.824,-2.35 -7.938,-3.25c9.284,-9.24 15.219,-23.14 15.219,-38.69l-0,-92.03c-0,-27.32 -17.984,-50.06 -41.125,-50.06l-216.281,-0Zm-0,15l216.281,-0c13.973,-0 26.125,15.35 26.125,35.06l-0,92.03c-0,19.71 -12.152,35.09 -26.125,35.1l-216.281,0c-13.973,0 -26.094,-15.39 -26.094,-35.1l-0,-92.03c-0,-19.71 12.121,-35.06 26.094,-35.06Zm0.844,177.56l66.656,0c-0.006,0.14 -0.094,0.26 -0.094,0.41c-0,5.91 4.771,10.72 10.688,10.72l60.093,-0c5.916,-0 10.719,-4.81 10.719,-10.72c-0,-0.15 -0.088,-0.27 -0.094,-0.41l66.625,0c8.357,0 16.147,0.86 21.688,2.31c1.939,0.51 3.141,1.06 4.156,1.57l-0,13.68c-1.015,0.51 -2.217,1.06 -4.156,1.57c-5.541,1.45 -13.331,2.31 -21.688,2.31l-214.593,0c-8.357,0 -16.147,-0.86 -21.688,-2.31c-1.939,-0.51 -3.142,-1.06 -4.156,-1.57l-0,-13.68c1.014,-0.51 2.217,-1.06 4.156,-1.57c5.541,-1.45 13.331,-2.31 21.688,-2.31Z" style="fill:url(#_Linear4);fill-rule:nonzero;"/><path d="M45.25,587.437c-25.031,0 -45.25,20.709 -45.25,46.156l-0,135.344c-0,25.447 20.219,46.125 45.25,46.125l96.062,0l0.875,55.406l-38.5,0c-11.071,0 -20.812,6.983 -20.812,17.031c-0,10.05 9.741,17.03 20.812,17.03l91.125,0c11.071,0 20.843,-6.98 20.844,-17.03c-0,-10.048 -9.773,-17.031 -20.844,-17.031l-37.625,0l-0.875,-55.406l96.938,0c25.03,0 45.25,-20.678 45.25,-46.125l0,-135.344c0,-25.447 -20.219,-46.156 -45.25,-46.156l-208,0Zm0,15l208,0c16.666,0 30.25,13.915 30.25,31.156l0,135.344c0,17.24 -13.584,31.124 -30.25,31.125l-208,0c-16.667,0 -30.25,-13.885 -30.25,-31.125l-0,-135.344c-0,-17.241 13.583,-31.156 30.25,-31.156Zm58.437,283.031l44.344,0c0.623,0.156 1.234,0.354 1.906,0.344c0.568,-0.009 1.064,-0.216 1.594,-0.344l43.281,0c2.066,0 3.918,0.567 5.094,1.406c0.329,0.235 0.49,0.443 0.625,0.625c-0.135,0.183 -0.296,0.39 -0.625,0.625c-1.176,0.84 -3.029,1.406 -5.094,1.406l-91.125,0c-2.065,0 -3.886,-0.566 -5.062,-1.406c-0.33,-0.235 -0.49,-0.442 -0.625,-0.625c0.135,-0.182 0.295,-0.39 0.625,-0.625c1.176,-0.839 2.997,-1.406 5.062,-1.406Z" style="fill:url(#_Linear5);fill-rule:nonzero;"/><g><g><path d="M375.629,431.517c-146.422,22.256 -213.857,128.006 -213.857,128.006" style="fill:none;fill-rule:nonzero;stroke:#232246;stroke-width:10px;"/><path d="M363.758,467.698l56.697,-40.131l-62.841,-29.599l6.144,69.73Z" style="fill:#232246;fill-rule:nonzero;"/></g></g><g><g><path d="M536.919,671.195c-55.334,171.824 -195.798,267.144 -195.798,267.144" style="fill:none;fill-rule:nonzero;stroke:#232246;stroke-width:10px;"/><path d="M566.817,694.777l-18.202,-67.035l-49.392,48.84l67.594,18.195Z" style="fill:#232246;fill-rule:nonzero;"/></g></g><g><g><path d="M739.33,727.343c-43.937,137.18 6.191,455.166 6.191,455.166" style="fill:none;fill-rule:nonzero;stroke:#232246;stroke-width:10px;"/><path d="M764.111,756.253l-4.917,-69.288l-57.891,38.387l62.808,30.901Z" style="fill:#232246;fill-rule:nonzero;"/></g></g><g><g><path d="M1219.47,687.734c173.92,307.325 17.03,427.375 17.03,427.375" style="fill:none;fill-rule:nonzero;stroke:#232246;stroke-width:10px;"/><path d="M1257.22,682.705l-60.78,-33.629l0.64,69.459l60.14,-35.83Z" style="fill:#232246;fill-rule:nonzero;"/></g></g><g><path d="M145.808,425.585l42.46,0c6.97,0 12.62,5.673 12.62,12.672l-0,37.537c-0,6.998 -5.65,12.672 -12.62,12.672l-42.46,-0c-6.97,-0 -12.62,-5.674 -12.62,-12.672l0,-37.537c0,-6.999 5.65,-12.672 12.62,-12.672Z" style="fill:url(#_Linear6);fill-rule:nonzero;"/><g><path d="M155.589,467.628l4.309,0l-0,-4.388l2.708,0l0,-3.771l-2.708,0l-0,-14.093l-5.017,0l-10.064,14.464l-0,3.4l10.772,0l0,4.388Zm-6.032,-8.159l6.309,-9.457l0,9.457l-6.309,0Z" style="fill:#ecf0f1;fill-rule:nonzero;"/><path d="M165.838,467.628l4.309,0l0,-14.031l5.786,14.031l3.262,0l5.755,-14.031l0,14.031l4.309,0l-0,-21.572l-4.863,0l-6.832,16.04l-6.833,-16.04l-4.893,0l-0,21.572Z" style="fill:#ecf0f1;fill-rule:nonzero;"/></g></g><g><path d="M453.469,853.696l42.46,0c6.97,0 12.62,5.673 12.62,12.672l0,37.541c0,6.99 -5.65,12.67 -12.62,12.67l-42.46,-0c-6.969,-0 -12.619,-5.68 -12.619,-12.67l0,-37.541c0,-6.999 5.65,-12.672 12.619,-12.672Z" style="fill:url(#_Linear7);fill-rule:nonzero;"/><g><path d="M463.25,895.739l4.309,0l-0,-4.388l2.708,0l-0,-3.771l-2.708,0l-0,-14.093l-5.016,-0l-10.064,14.464l-0,3.4l10.771,-0l0,4.388Zm-6.032,-8.159l6.309,-9.457l-0,9.457l-6.309,-0Z" style="fill:#ecf0f1;fill-rule:nonzero;"/><path d="M473.499,895.739l4.309,0l-0,-14.031l5.786,14.031l3.262,0l5.755,-14.031l-0,14.031l4.309,0l-0,-21.572l-4.863,0l-6.832,16.04l-6.832,-16.04l-4.894,0l-0,21.572Z" style="fill:#ecf0f1;fill-rule:nonzero;"/></g></g><g><path d="M760.061,1052.71l42.46,0c6.97,0 12.62,5.67 12.62,12.67l-0,37.54c-0,6.99 -5.65,12.67 -12.62,12.67l-42.46,-0c-6.968,-0 -12.618,-5.68 -12.618,-12.67l0,-37.54c0,-7 5.65,-12.67 12.618,-12.67Z" style="fill:url(#_Linear8);fill-rule:nonzero;"/><g><path d="M769.841,1094.75l4.31,0l0,-4.39l2.71,0l0,-3.77l-2.71,0l0,-14.09l-5.02,0l-10.059,14.46l0,3.4l10.769,-0l0,4.39Zm-6.03,-8.16l6.31,-9.46l0,9.46l-6.31,-0Z" style="fill:#ecf0f1;fill-rule:nonzero;"/><path d="M780.091,1094.75l4.31,0l0,-14.03l5.79,14.03l3.26,0l5.75,-14.03l0,14.03l4.31,0l0,-21.57l-4.86,0l-6.83,16.04l-6.84,-16.04l-4.89,0l0,21.57Z" style="fill:#ecf0f1;fill-rule:nonzero;"/></g></g><g><path d="M1190.32,1021.27l42.46,0c6.97,0 12.62,5.67 12.62,12.67l0,37.54c0,6.99 -5.65,12.67 -12.62,12.67l-42.46,-0c-6.97,-0 -12.62,-5.68 -12.62,-12.67l0,-37.54c0,-7 5.65,-12.67 12.62,-12.67Z" style="fill:url(#_Linear9);fill-rule:nonzero;"/><g><path d="M1200.1,1063.31l4.31,0l0,-4.39l2.7,0l-0,-3.77l-2.7,0l0,-14.09l-5.02,0l-10.06,14.46l0,3.4l10.77,0l0,4.39Zm-6.03,-8.16l6.3,-9.46l0,9.46l-6.3,-0Z" style="fill:#ecf0f1;fill-rule:nonzero;"/><path d="M1210.35,1063.31l4.3,0l-0,-14.03l5.79,14.03l3.26,0l5.76,-14.03l-0,14.03l4.31,0l0,-21.57l-4.87,0l-6.83,16.04l-6.83,-16.04l-4.89,0l0,21.57Z" style="fill:#ecf0f1;fill-rule:nonzero;"/></g></g><g><path d="M630.226,411.111l62.232,0c10.215,0 18.496,8.316 18.496,18.574l0,55.015c0,10.258 -8.281,18.574 -18.496,18.574l-62.232,0c-10.216,0 -18.497,-8.316 -18.497,-18.574l-0,-55.015c-0,-10.258 8.281,-18.574 18.497,-18.574Z" style="fill:url(#_Linear10);fill-rule:nonzero;"/><g><path d="M644.561,472.733l6.316,-0l-0,-6.432l3.969,0l-0,-5.527l-3.969,0l-0,-20.655l-7.353,0l-14.751,21.199l-0,4.983l15.788,0l-0,6.432Zm-8.841,-11.959l9.247,-13.861l-0,13.861l-9.247,-0Z" style="fill:#ecf0f1;fill-rule:nonzero;"/><path d="M659.583,472.733l6.315,-0l0,-20.565l8.48,20.565l4.782,-0l8.435,-20.565l0,20.565l6.315,-0l-0,-31.618l-7.127,0l-10.014,23.51l-10.014,-23.51l-7.172,0l-0,31.618Z" style="fill:#ecf0f1;fill-rule:nonzero;"/></g></g><g><path d="M795.051,411.111l62.23,0c10.21,0 18.49,8.316 18.49,18.574l0,55.015c0,10.258 -8.28,18.574 -18.49,18.574l-62.23,0c-10.22,0 -18.5,-8.316 -18.5,-18.574l-0,-55.015c-0,-10.258 8.28,-18.574 18.5,-18.574Z" style="fill:url(#_Linear11);fill-rule:nonzero;"/><g><path d="M809.381,472.733l6.32,-0l-0,-6.432l3.97,0l-0,-5.527l-3.97,0l-0,-20.655l-7.36,0l-14.75,21.199l0,4.983l15.79,0l0,6.432Zm-8.84,-11.959l9.25,-13.861l0,13.861l-9.25,-0Z" style="fill:#ecf0f1;fill-rule:nonzero;"/><path d="M824.401,472.733l6.32,-0l-0,-20.565l8.48,20.565l4.78,-0l8.43,-20.565l-0,20.565l6.32,-0l-0,-31.618l-7.13,0l-10.01,23.51l-10.02,-23.51l-7.17,0l-0,31.618Z" style="fill:#ecf0f1;fill-rule:nonzero;"/></g></g><g><path d="M960.371,411.111l62.23,0c10.22,0 18.5,8.316 18.5,18.574l0,55.015c0,10.258 -8.28,18.574 -18.5,18.574l-62.23,0c-10.22,0 -18.5,-8.316 -18.5,-18.574l-0,-55.015c-0,-10.258 8.28,-18.574 18.5,-18.574Z" style="fill:url(#_Linear12);fill-rule:nonzero;"/><g><path d="M974.701,472.733l6.32,-0l0,-6.432l3.97,0l-0,-5.527l-3.97,0l0,-20.655l-7.35,0l-14.75,21.199l-0,4.983l15.78,0l-0,6.432Zm-8.84,-11.959l9.25,-13.861l0,13.861l-9.25,-0Z" style="fill:#ecf0f1;fill-rule:nonzero;"/><path d="M989.721,472.733l6.32,-0l0,-20.565l8.48,20.565l4.78,-0l8.44,-20.565l-0,20.565l6.31,-0l-0,-31.618l-7.13,0l-10.01,23.51l-10.01,-23.51l-7.18,0l-0,31.618Z" style="fill:#ecf0f1;fill-rule:nonzero;"/></g></g><g><path d="M1122.33,411.111l62.23,0c10.22,0 18.5,8.316 18.5,18.574l0,55.015c0,10.258 -8.28,18.574 -18.5,18.574l-62.23,0c-10.22,0 -18.5,-8.316 -18.5,-18.574l0,-55.015c0,-10.258 8.28,-18.574 18.5,-18.574Z" style="fill:url(#_Linear13);fill-rule:nonzero;"/><g><path d="M1136.66,472.733l6.32,-0l-0,-6.432l3.97,0l0,-5.527l-3.97,0l-0,-20.655l-7.35,0l-14.75,21.199l-0,4.983l15.78,0l0,6.432Zm-8.84,-11.959l9.25,-13.861l-0,13.861l-9.25,-0Z" style="fill:#ecf0f1;fill-rule:nonzero;"/><path d="M1151.69,472.733l6.31,-0l-0,-20.565l8.48,20.565l4.78,-0l8.44,-20.565l0,20.565l6.31,-0l0,-31.618l-7.12,0l-10.02,23.51l-10.01,-23.51l-7.17,0l-0,31.618Z" style="fill:#ecf0f1;fill-rule:nonzero;"/></g></g><g><path d="M716.524,290.414l62.237,0c10.21,0 18.49,8.316 18.49,18.574l-0,55.016c-0,10.258 -8.28,18.574 -18.49,18.574l-62.237,-0c-10.215,-0 -18.496,-8.316 -18.496,-18.574l0,-55.016c0,-10.258 8.281,-18.574 18.496,-18.574Z" style="fill:url(#_Linear14);fill-rule:nonzero;"/><g><path d="M730.86,352.036l6.315,0l-0,-6.432l3.97,0l-0,-5.526l-3.97,0l-0,-20.656l-7.353,0l-14.75,21.199l-0,4.983l15.788,0l-0,6.432Zm-8.841,-11.958l9.247,-13.861l-0,13.861l-9.247,0Z" style="fill:#ecf0f1;fill-rule:nonzero;"/><path d="M745.881,352.036l6.315,0l0,-20.565l8.485,20.565l4.78,0l8.43,-20.565l0,20.565l6.32,0l0,-31.617l-7.13,0l-10.01,23.509l-10.018,-23.509l-7.172,0l0,31.617Z" style="fill:#ecf0f1;fill-rule:nonzero;"/></g></g><g><path d="M880.421,290.414l62.23,0c10.21,0 18.5,8.316 18.5,18.574l-0,55.016c-0,10.258 -8.29,18.574 -18.5,18.574l-62.23,-0c-10.22,-0 -18.5,-8.316 -18.5,-18.574l-0,-55.016c-0,-10.258 8.28,-18.574 18.5,-18.574Z" style="fill:url(#_Linear15);fill-rule:nonzero;"/><g><path d="M894.751,352.036l6.32,0l0,-6.432l3.97,0l0,-5.526l-3.97,0l0,-20.656l-7.36,0l-14.75,21.199l-0,4.983l15.79,0l-0,6.432Zm-8.84,-11.958l9.25,-13.861l0,13.861l-9.25,0Z" style="fill:#ecf0f1;fill-rule:nonzero;"/><path d="M909.771,352.036l6.32,0l-0,-20.565l8.48,20.565l4.78,0l8.44,-20.565l-0,20.565l6.31,0l-0,-31.617l-7.13,0l-10.01,23.509l-10.01,-23.509l-7.18,0l-0,31.617Z" style="fill:#ecf0f1;fill-rule:nonzero;"/></g></g></g><defs><linearGradient id="_Linear1" x1="0" y1="0" x2="1" y2="0" gradientUnits="userSpaceOnUse" gradientTransform="matrix(298.501,0,0,298.501,570.451,1332.56)"><stop offset="0" style="stop-color:#232246;stop-opacity:1"/><stop offset="1" style="stop-color:#ec3a5e;stop-opacity:1"/></linearGradient><linearGradient id="_Linear2" x1="0" y1="0" x2="1" y2="0" gradientUnits="userSpaceOnUse" gradientTransform="matrix(298.5,0,0,298.5,1043.06,1316.31)"><stop offset="0" style="stop-color:#ec3a5e;stop-opacity:1"/><stop offset="1" style="stop-color:#232246;stop-opacity:1"/></linearGradient><linearGradient id="_Linear3" x1="0" y1="0" x2="1" y2="0" gradientUnits="userSpaceOnUse" gradientTransform="matrix(850.501,0,0,850.501,459.596,311.55)"><stop offset="0" style="stop-color:#232246;stop-opacity:1"/><stop offset="0.96" style="stop-color:#ec3a5e;stop-opacity:1"/><stop offset="1" style="stop-color:#ec3a5e;stop-opacity:1"/></linearGradient><linearGradient id="_Linear4" x1="0" y1="0" x2="1" y2="0" gradientUnits="userSpaceOnUse" gradientTransform="matrix(298.501,0,0,298.501,192.361,1084.15)"><stop offset="0" style="stop-color:#232246;stop-opacity:1"/><stop offset="1" style="stop-color:#ec3a5e;stop-opacity:1"/></linearGradient><linearGradient id="_Linear5" x1="0" y1="0" x2="1" y2="0" gradientUnits="userSpaceOnUse" gradientTransform="matrix(298.5,0,0,298.5,-0.004,745.984)"><stop offset="0" style="stop-color:#ec3a5e;stop-opacity:1"/><stop offset="1" style="stop-color:#232246;stop-opacity:1"/></linearGradient><linearGradient id="_Linear6" x1="0" y1="0" x2="1" y2="0" gradientUnits="userSpaceOnUse" gradientTransform="matrix(67.7,0,0,67.7,133.188,457.025)"><stop offset="0" style="stop-color:#2f2ff4;stop-opacity:1"/><stop offset="0.62" style="stop-color:#2f2ff4;stop-opacity:1"/><stop offset="1" style="stop-color:#232246;stop-opacity:1"/></linearGradient><linearGradient id="_Linear7" x1="0" y1="0" x2="1" y2="0" gradientUnits="userSpaceOnUse" gradientTransform="matrix(67.7,0,0,67.7,440.849,885.136)"><stop offset="0" style="stop-color:#2f2ff4;stop-opacity:1"/><stop offset="0.62" style="stop-color:#2f2ff4;stop-opacity:1"/><stop offset="1" style="stop-color:#232246;stop-opacity:1"/></linearGradient><linearGradient id="_Linear8" x1="0" y1="0" x2="1" y2="0" gradientUnits="userSpaceOnUse" gradientTransform="matrix(67.7,0,0,67.7,747.442,1084.15)"><stop offset="0" style="stop-color:#2f2ff4;stop-opacity:1"/><stop offset="0.62" style="stop-color:#2f2ff4;stop-opacity:1"/><stop offset="1" style="stop-color:#232246;stop-opacity:1"/></linearGradient><linearGradient id="_Linear9" x1="0" y1="0" x2="1" y2="0" gradientUnits="userSpaceOnUse" gradientTransform="matrix(67.7,0,0,67.7,1177.7,1052.71)"><stop offset="0" style="stop-color:#2f2ff4;stop-opacity:1"/><stop offset="0.62" style="stop-color:#2f2ff4;stop-opacity:1"/><stop offset="1" style="stop-color:#232246;stop-opacity:1"/></linearGradient><linearGradient id="_Linear10" x1="0" y1="0" x2="1" y2="0" gradientUnits="userSpaceOnUse" gradientTransform="matrix(99.2259,0,0,99.2259,611.728,457.192)"><stop offset="0" style="stop-color:#2f2ff4;stop-opacity:1"/><stop offset="0.62" style="stop-color:#2f2ff4;stop-opacity:1"/><stop offset="1" style="stop-color:#232246;stop-opacity:1"/></linearGradient><linearGradient id="_Linear11" x1="0" y1="0" x2="1" y2="0" gradientUnits="userSpaceOnUse" gradientTransform="matrix(99.2259,0,0,99.2259,776.549,457.192)"><stop offset="0" style="stop-color:#2f2ff4;stop-opacity:1"/><stop offset="0.62" style="stop-color:#2f2ff4;stop-opacity:1"/><stop offset="1" style="stop-color:#232246;stop-opacity:1"/></linearGradient><linearGradient id="_Linear12" x1="0" y1="0" x2="1" y2="0" gradientUnits="userSpaceOnUse" gradientTransform="matrix(99.2259,0,0,99.2259,941.871,457.192)"><stop offset="0" style="stop-color:#2f2ff4;stop-opacity:1"/><stop offset="0.62" style="stop-color:#2f2ff4;stop-opacity:1"/><stop offset="1" style="stop-color:#232246;stop-opacity:1"/></linearGradient><linearGradient id="_Linear13" x1="0" y1="0" x2="1" y2="0" gradientUnits="userSpaceOnUse" gradientTransform="matrix(99.2259,0,0,99.2259,1103.83,457.192)"><stop offset="0" style="stop-color:#2f2ff4;stop-opacity:1"/><stop offset="0.62" style="stop-color:#2f2ff4;stop-opacity:1"/><stop offset="1" style="stop-color:#232246;stop-opacity:1"/></linearGradient><linearGradient id="_Linear14" x1="0" y1="0" x2="1" y2="0" gradientUnits="userSpaceOnUse" gradientTransform="matrix(99.2259,0,0,99.2259,698.027,336.495)"><stop offset="0" style="stop-color:#2f2ff4;stop-opacity:1"/><stop offset="0.62" style="stop-color:#2f2ff4;stop-opacity:1"/><stop offset="1" style="stop-color:#232246;stop-opacity:1"/></linearGradient><linearGradient id="_Linear15" x1="0" y1="0" x2="1" y2="0" gradientUnits="userSpaceOnUse" gradientTransform="matrix(99.2259,0,0,99.2259,861.92,336.495)"><stop offset="0" style="stop-color:#2f2ff4;stop-opacity:1"/><stop offset="0.62" style="stop-color:#2f2ff4;stop-opacity:1"/><stop offset="1" style="stop-color:#232246;stop-opacity:1"/></linearGradient></defs></svg>