<?xml version="1.0" encoding="UTF-8" standalone="no"?><!DOCTYPE svg PUBLIC "-//W3C//DTD SVG 1.1//EN" "http://www.w3.org/Graphics/SVG/1.1/DTD/svg11.dtd"><svg width="100%" height="100%" viewBox="0 0 1025 1012" version="1.1" xmlns="http://www.w3.org/2000/svg" xmlns:xlink="http://www.w3.org/1999/xlink" xml:space="preserve" xmlns:serif="http://www.serif.com/" style="fill-rule:evenodd;clip-rule:evenodd;stroke-miterlimit:3;"><g id="Layer-1" serif:id="Layer 1"><g><path d="M193.529,440.453c-33.279,0 -62.637,19.346 -76.497,48.156c-6.149,-5.718 -14.329,-9.125 -23.157,-9.125c-18.712,0 -33.877,15.106 -34.031,33.782c-34.711,8.728 -59.844,37.597 -59.844,71.562c0,41.22 36.717,74.312 81.656,74.312l135.188,-0c44.938,-0 81.656,-33.092 81.656,-74.312c0,-18.388 -7.441,-35.648 -20.44,-49.063c0.175,-2.204 0.407,-4.398 0.407,-6.624l-0,-3.751c-0,-46.907 -38.028,-84.937 -84.938,-84.937Zm-0,15c38.624,0 69.937,31.314 69.937,69.937l0,3.751c0,2.843 -0.193,5.677 -0.53,8.468c-0.098,0.817 -0.042,1.601 0.127,2.406c0.312,2.319 1.558,4.391 3.562,5.532c10.761,10.78 16.875,24.593 16.875,39.281c-0,32.566 -29.675,59.312 -66.656,59.312l-135.188,-0c-36.984,-0 -66.656,-26.746 -66.656,-59.312c0,-29.052 23.77,-53.909 55.969,-58.531c4.1,-0.589 6.932,-4.4 6.343,-8.5c-0.261,-1.82 -1.201,-3.337 -2.469,-4.469c0.121,-10.42 8.583,-18.844 19.032,-18.844c7.546,0 14.242,4.454 17.313,11.188c-0.196,3.502 1.941,6.782 5.468,7.687c4.012,1.03 8.094,-1.394 9.125,-5.406c7.866,-30.665 35.634,-52.5 67.748,-52.5Z" style="fill:url(#_Linear1);fill-rule:nonzero;"/></g><path d="M471.294,782.747c-23.141,-0 -41.094,22.74 -41.094,50.06l0,92.03c0,15.54 5.953,29.41 15.219,38.66c-3.131,0.9 -5.854,1.97 -7.969,3.28c-3.696,2.29 -6.156,5.46 -6.156,9.78l0,18.94c0,4.32 2.46,7.48 6.156,9.78c2.402,1.49 5.484,2.68 9.188,3.66c6.882,1.8 15.932,2.81 25.5,2.81l214.593,-0c9.568,-0 18.618,-1.01 25.5,-2.81c3.703,-0.98 6.786,-2.17 9.188,-3.66c3.696,-2.3 6.156,-5.46 6.156,-9.78l0,-18.94c0,-4.32 -2.46,-7.49 -6.156,-9.78c-2.107,-1.31 -4.824,-2.35 -7.938,-3.25c9.284,-9.24 15.219,-23.14 15.219,-38.69l0,-92.03c0,-27.32 -17.984,-50.06 -41.125,-50.06l-216.281,-0Zm0,15l216.281,-0c13.973,-0 26.125,15.35 26.125,35.06l0,92.03c0,19.71 -12.152,35.09 -26.125,35.1l-216.281,-0c-13.973,-0 -26.094,-15.39 -26.094,-35.1l0,-92.03c0,-19.71 12.121,-35.06 26.094,-35.06Zm0.844,177.56l66.656,-0c-0.006,0.14 -0.094,0.26 -0.094,0.41c0,5.91 4.771,10.72 10.688,10.72l60.093,-0c5.916,-0 10.719,-4.81 10.719,-10.72c0,-0.15 -0.088,-0.27 -0.094,-0.41l66.625,-0c8.357,-0 16.147,0.86 21.688,2.31c1.939,0.51 3.141,1.06 4.156,1.57l0,13.68c-1.015,0.51 -2.217,1.06 -4.156,1.57c-5.541,1.45 -13.331,2.31 -21.688,2.31l-214.593,-0c-8.357,-0 -16.147,-0.86 -21.688,-2.31c-1.939,-0.51 -3.142,-1.06 -4.156,-1.57l0,-13.68c1.014,-0.51 2.217,-1.06 4.156,-1.57c5.541,-1.45 13.331,-2.31 21.688,-2.31Z" style="fill:url(#_Linear2);fill-rule:nonzero;"/><path d="M475.45,0c-25.031,0 -45.25,20.709 -45.25,46.156l0,135.344c0,25.447 20.219,46.125 45.25,46.125l96.062,0l0.875,55.406l-38.5,-0c-11.071,-0 -20.812,6.983 -20.812,17.031c0,10.05 9.741,17.03 20.812,17.03l91.125,0c11.071,0 20.843,-6.98 20.844,-17.03c0,-10.048 -9.773,-17.031 -20.844,-17.031l-37.625,-0l-0.875,-55.406l96.938,0c25.03,0 45.25,-20.678 45.25,-46.125l0,-135.344c0,-25.447 -20.219,-46.156 -45.25,-46.156l-208,-0Zm0,15l208,-0c16.666,-0 30.25,13.915 30.25,31.156l0,135.344c0,17.24 -13.584,31.124 -30.25,31.125l-208,0c-16.667,0 -30.25,-13.885 -30.25,-31.125l0,-135.344c0,-17.241 13.583,-31.156 30.25,-31.156Zm58.437,283.031l44.344,-0c0.623,0.156 1.234,0.354 1.906,0.344c0.568,-0.009 1.064,-0.216 1.594,-0.344l43.281,-0c2.066,-0 3.918,0.567 5.094,1.406c0.329,0.235 0.49,0.443 0.625,0.625c-0.135,0.183 -0.296,0.39 -0.625,0.625c-1.176,0.84 -3.029,1.406 -5.094,1.406l-91.125,-0c-2.065,-0 -3.886,-0.566 -5.062,-1.406c-0.33,-0.235 -0.49,-0.442 -0.625,-0.625c0.135,-0.182 0.295,-0.39 0.625,-0.625c1.176,-0.839 2.997,-1.406 5.062,-1.406Z" style="fill:url(#_Linear3);fill-rule:nonzero;"/><path d="M1024.19,421.541c-0,-15.864 -12.88,-28.744 -28.745,-28.744c0,-0 -99.142,-0 -99.142,-0c-15.865,-0 -28.745,12.88 -28.745,28.744c0,0 0,256.511 0,256.511c0,15.864 12.88,28.745 28.745,28.745c-0,-0 99.142,-0 99.142,-0c15.865,-0 28.745,-12.881 28.745,-28.745l-0,-256.511Zm-115.446,-13.744l-12.441,-0c-7.586,-0 -13.745,6.158 -13.745,13.744l0,256.511c0,7.586 6.159,13.745 13.745,13.745l99.142,-0c7.586,-0 13.745,-6.159 13.745,-13.745l-0,-256.511c-0,-7.586 -6.159,-13.744 -13.745,-13.744l-12.44,-0c0.182,0.647 0.28,1.331 0.28,2.037l-0,5.812c-0,4.143 -3.358,7.5 -7.5,7.5l-59.822,0c-4.142,0 -7.5,-3.357 -7.5,-7.5l0,-5.812c0,-0.706 0.098,-1.39 0.281,-2.037Zm14.016,262.324c-4.142,0 -7.5,3.358 -7.5,7.5l0,1c0,4.142 3.358,7.5 7.5,7.5l46.228,0c4.142,0 7.5,-3.358 7.5,-7.5l-0,-1c-0,-0.191 -0.007,-0.381 -0.021,-0.569l-0.001,-0.006l-0,-0.008c-0.216,-2.803 -1.973,-5.175 -4.425,-6.269l-0.05,-0.022l-0.042,-0.018l-0.042,-0.018l-0.042,-0.018l-0.042,-0.017l-0.043,-0.018l-0.042,-0.017l-0.043,-0.016l-0.043,-0.017l-0.042,-0.016l-0.05,-0.018l-0.048,-0.017c-0.049,-0.018 -0.098,-0.035 -0.147,-0.051l-0.015,-0.005l-0.044,-0.015l-0.044,-0.014l-0.044,-0.014l-0.044,-0.013l-0.044,-0.013l-0.045,-0.013l-0.044,-0.013l-0.044,-0.013l-0.045,-0.012l-0.045,-0.012l-0.056,-0.015l-0.043,-0.01l-0.042,-0.011l-0.043,-0.01l-0.043,-0.01l-0.044,-0.01l-0.045,-0.01l-0.046,-0.01l-0.046,-0.009l-0.045,-0.01l-0.046,-0.009l-0.046,-0.008l-0.047,-0.009l-0.046,-0.008l-0.046,-0.008l-0.046,-0.007l-0.047,-0.007l-0.06,-0.009l-0.044,-0.007l-0.044,-0.006l-0.045,-0.005l-0.044,-0.006l-0.044,-0.005l-0.047,-0.005l-0.047,-0.005l-0.048,-0.005l-0.047,-0.004l-0.048,-0.004l-0.047,-0.004l-0.048,-0.003l-0.047,-0.004l-0.048,-0.002l-0.048,-0.003l-0.048,-0.002l-0.048,-0.002l-0.061,-0.002l-0.046,-0.002l-0.046,-0.001l-0.045,-0l-0.045,-0.001c-0.016,0 -0.031,0 -0.047,0l-46.228,0Z" style="fill:url(#_Linear4);"/><path d="M558.635,453.135l20.815,8.168l-19.023,11.752l-1.792,-19.92Z" style="fill:url(#_Radial5);"/><path d="M579.45,463.57c23.833,-0.095 45.465,9.495 61.156,25.071c15.737,15.622 25.501,37.252 25.581,61.156c0.067,23.962 -9.601,45.7 -25.28,61.456c-15.71,15.788 -37.447,25.572 -61.457,25.623c-24.045,0.037 -45.847,-9.689 -61.637,-25.442c-15.805,-15.768 -25.585,-37.57 -25.604,-61.637c0.048,-21.221 7.633,-40.711 20.346,-55.759c6.495,-7.687 14.328,-14.217 23.132,-19.205c8.598,-4.871 18.14,-8.222 28.234,-9.866l-0.813,-4.46c-10.487,2.113 -20.285,6.058 -29.13,11.407c-8.965,5.421 -16.934,12.3 -23.562,20.339c-12.913,15.661 -20.762,35.679 -20.712,57.544c-0.019,24.773 10.028,47.218 26.259,63.487c16.246,16.283 38.691,26.382 63.487,26.42c24.831,0.053 47.34,-9.992 63.668,-26.24c16.359,-16.278 26.513,-38.789 26.582,-63.667c0.084,-24.938 -9.984,-47.552 -26.281,-63.969c-16.344,-16.464 -38.961,-26.692 -63.969,-26.792l0,4.534Z" style="fill:url(#_Radial6);"/><g transform="matrix(1,0,0,1,-1785.87,-273.661)"><g transform="matrix(20.8333,0,0,20.8333,2048.97,626.904)"><path d="M0.417,0.163c-0.081,0 -0.135,-0.012 -0.163,-0.036c-0.028,-0.024 -0.042,-0.072 -0.042,-0.144l0,-0.105c0,-0.023 -0.002,-0.043 -0.006,-0.061c-0.004,-0.018 -0.01,-0.031 -0.019,-0.041c-0.009,-0.01 -0.022,-0.017 -0.038,-0.021c-0.016,-0.005 -0.035,-0.007 -0.057,-0.007l-0.045,0l-0,-0.093l0.045,-0c0.045,-0 0.077,-0.009 0.095,-0.028c0.017,-0.019 0.025,-0.053 0.025,-0.102l0,-0.105c0,-0.072 0.014,-0.12 0.042,-0.144c0.027,-0.024 0.081,-0.036 0.163,-0.036l0.073,0l-0,0.093l-0.06,0c-0.034,0 -0.057,0.007 -0.068,0.021c-0.012,0.014 -0.017,0.044 -0.017,0.09l-0,0.102c-0,0.054 -0.008,0.091 -0.024,0.113c-0.016,0.022 -0.045,0.036 -0.086,0.042c0.041,0.007 0.07,0.021 0.086,0.044c0.016,0.021 0.024,0.059 0.024,0.113l-0,0.1c-0,0.047 0.005,0.077 0.017,0.091c0.011,0.014 0.034,0.021 0.068,0.021l0.06,-0l-0,0.093l-0.073,0Z" style="fill:#232246;fill-rule:nonzero;"/></g><g transform="matrix(20.8333,0,0,20.8333,2074.05,647.737)"><path d="M0.113,-0.729l0.125,-0l-0,0.271l-0.125,-0l-0,-0.271Zm0.25,-0l0.125,-0l-0,0.271l-0.125,-0l-0,-0.271Z" style="fill:#232246;fill-rule:nonzero;"/></g><g transform="matrix(20.8333,0,0,20.8333,2086.6,647.737)"><path d="M0.04,-0.547l0.09,0l0.014,0.057c0.008,-0.022 0.021,-0.039 0.039,-0.052c0.017,-0.012 0.037,-0.018 0.059,-0.018c0.023,-0 0.043,0.007 0.062,0.02c0.018,0.013 0.029,0.029 0.033,0.048c0.021,-0.045 0.056,-0.068 0.104,-0.068c0.046,-0 0.078,0.016 0.096,0.048c0.018,0.033 0.027,0.101 0.027,0.204l-0,0.308l-0.117,-0l-0,-0.351c-0,-0.04 -0.003,-0.067 -0.01,-0.081c-0.006,-0.014 -0.017,-0.021 -0.034,-0.021c-0.016,-0 -0.027,0.007 -0.033,0.02c-0.007,0.015 -0.01,0.043 -0.01,0.082l-0,0.351l-0.116,-0l0,-0.351c0,-0.038 -0.003,-0.066 -0.01,-0.081c-0.006,-0.014 -0.017,-0.021 -0.033,-0.021c-0.017,-0 -0.028,0.006 -0.034,0.019c-0.007,0.013 -0.01,0.041 -0.01,0.083l0,0.351l-0.117,-0l0,-0.547Z" style="fill:#232246;fill-rule:nonzero;"/></g><g transform="matrix(20.8333,0,0,20.8333,2099.14,647.737)"><path d="M0.328,0.014c-0.094,0 -0.165,-0.024 -0.214,-0.073c-0.049,-0.049 -0.074,-0.119 -0.074,-0.211c0,-0.058 0.01,-0.109 0.03,-0.153c0.02,-0.043 0.051,-0.077 0.091,-0.101c0.04,-0.024 0.09,-0.036 0.151,-0.036c0.05,-0 0.093,0.011 0.129,0.035c0.037,0.023 0.065,0.055 0.085,0.096c0.02,0.041 0.03,0.089 0.03,0.144l0,0.058l-0.37,-0c-0,0.085 0.049,0.128 0.149,0.128c0.065,-0 0.131,-0.02 0.198,-0.059l0,0.131c-0.066,0.027 -0.135,0.041 -0.205,0.041Zm0.084,-0.348c0,-0.038 -0.009,-0.067 -0.028,-0.086c-0.018,-0.02 -0.045,-0.029 -0.079,-0.029c-0.035,-0 -0.063,0.01 -0.083,0.03c-0.02,0.019 -0.031,0.048 -0.035,0.085l0.225,-0Z" style="fill:#232246;fill-rule:nonzero;"/></g><g transform="matrix(20.8333,0,0,20.8333,2111.68,647.737)"><path d="M0.404,0.002c-0.054,-0 -0.096,-0.006 -0.127,-0.017c-0.03,-0.011 -0.052,-0.03 -0.064,-0.057c-0.013,-0.027 -0.019,-0.064 -0.019,-0.111l-0,-0.254l-0.14,-0l0,-0.11l0.14,0l-0,-0.149l0.143,-0.064l-0,0.213l0.187,0l-0,0.11l-0.187,-0l-0,0.261c-0,0.024 0.006,0.041 0.018,0.052c0.012,0.011 0.032,0.016 0.059,0.016l0.11,0l-0,0.11l-0.12,-0Z" style="fill:#232246;fill-rule:nonzero;"/></g><g transform="matrix(20.8333,0,0,20.8333,2124.22,647.737)"><path d="M0.118,-0.547l0.129,0l0.014,0.085c0.014,-0.031 0.035,-0.055 0.064,-0.072c0.029,-0.017 0.063,-0.026 0.101,-0.026c0.04,-0 0.077,0.009 0.112,0.028l-0,0.136c-0.032,-0.029 -0.073,-0.043 -0.124,-0.043c-0.042,0 -0.075,0.009 -0.101,0.028c-0.026,0.019 -0.042,0.046 -0.048,0.082c-0.001,0.008 -0.003,0.019 -0.003,0.031c-0.001,0.012 -0.001,0.027 -0.001,0.046l-0,0.252l-0.143,-0l-0,-0.547Z" style="fill:#232246;fill-rule:nonzero;"/></g><g transform="matrix(20.8333,0,0,20.8333,2136.77,647.737)"><path d="M0.22,-0.612c-0.01,0 -0.014,-0.005 -0.014,-0.014l-0,-0.138c-0,-0.01 0.004,-0.015 0.014,-0.015l0.114,0c0.01,0 0.015,0.005 0.015,0.015l-0,0.138c-0,0.009 -0.005,0.014 -0.015,0.014l-0.114,0Zm0.176,0.618c-0.067,-0 -0.116,-0.018 -0.146,-0.054c-0.03,-0.035 -0.044,-0.093 -0.044,-0.174l-0,-0.215l-0.116,-0l-0,-0.11l0.259,0l-0,0.325c-0,0.042 0.006,0.072 0.02,0.091c0.013,0.018 0.036,0.027 0.068,0.027l0.114,-0l-0,0.11l-0.155,-0Z" style="fill:#232246;fill-rule:nonzero;"/></g><g transform="matrix(20.8333,0,0,20.8333,2149.31,647.737)"><path d="M0.346,0.014c-0.086,0 -0.154,-0.025 -0.202,-0.076c-0.048,-0.05 -0.072,-0.12 -0.072,-0.21c0,-0.091 0.024,-0.162 0.072,-0.213c0.047,-0.051 0.113,-0.076 0.198,-0.076c0.058,-0 0.113,0.014 0.166,0.042l0,0.131c-0.042,-0.037 -0.09,-0.056 -0.143,-0.056c-0.048,0 -0.084,0.015 -0.11,0.045c-0.025,0.029 -0.038,0.071 -0.038,0.126c0,0.054 0.013,0.096 0.038,0.126c0.025,0.029 0.061,0.044 0.108,0.044c0.056,-0 0.104,-0.019 0.145,-0.056l0,0.131c-0.048,0.028 -0.102,0.042 -0.162,0.042Z" style="fill:#232246;fill-rule:nonzero;"/></g><g transform="matrix(20.8333,0,0,20.8333,2161.85,647.737)"><path d="M0.113,-0.729l0.125,-0l-0,0.271l-0.125,-0l-0,-0.271Zm0.25,-0l0.125,-0l-0,0.271l-0.125,-0l-0,-0.271Z" style="fill:#232246;fill-rule:nonzero;"/></g><g transform="matrix(20.8333,0,0,20.8333,2174.4,647.737)"><path d="M0.302,-0.367c-0.012,-0 -0.024,-0.003 -0.034,-0.007c-0.01,-0.005 -0.019,-0.011 -0.026,-0.018c-0.017,-0.017 -0.026,-0.039 -0.026,-0.065c0,-0.014 0.003,-0.026 0.007,-0.037c0.005,-0.011 0.011,-0.02 0.018,-0.028c0.017,-0.017 0.037,-0.025 0.062,-0.025c0.024,0 0.045,0.008 0.061,0.025c0.008,0.008 0.014,0.017 0.018,0.028c0.005,0.011 0.007,0.023 0.007,0.036c0,0.028 -0.008,0.05 -0.024,0.066c-0.017,0.017 -0.038,0.025 -0.063,0.025Zm0.001,0.349c-0.024,0 -0.045,-0.008 -0.061,-0.024c-0.017,-0.017 -0.026,-0.039 -0.026,-0.065c0,-0.027 0.009,-0.048 0.026,-0.065c0.016,-0.017 0.037,-0.025 0.061,-0.025c0.024,-0 0.045,0.008 0.061,0.025c0.008,0.007 0.014,0.016 0.018,0.027c0.005,0.011 0.007,0.024 0.007,0.038c0,0.026 -0.008,0.048 -0.025,0.065c-0.016,0.016 -0.037,0.024 -0.061,0.024Z" style="fill:#232246;fill-rule:nonzero;"/></g><g transform="matrix(20.8333,0,0,20.8333,2199.48,647.737)"><path d="M0.113,-0.729l0.125,-0l-0,0.271l-0.125,-0l-0,-0.271Zm0.25,-0l0.125,-0l-0,0.271l-0.125,-0l-0,-0.271Z" style="fill:#232246;fill-rule:nonzero;"/></g><g transform="matrix(20.8333,0,0,20.8333,2212.02,647.737)"><path d="M0.301,0.014c-0.052,0 -0.097,-0.011 -0.135,-0.035c-0.038,-0.023 -0.067,-0.056 -0.087,-0.099c-0.021,-0.043 -0.031,-0.094 -0.031,-0.152c-0,-0.059 0.01,-0.11 0.031,-0.153c0.021,-0.043 0.05,-0.076 0.088,-0.1c0.038,-0.023 0.084,-0.035 0.136,-0.035c0.052,-0 0.097,0.011 0.134,0.034c0.037,0.023 0.066,0.056 0.087,0.099c0.02,0.042 0.03,0.093 0.03,0.152c0,0.059 -0.01,0.111 -0.031,0.154c-0.02,0.043 -0.05,0.077 -0.087,0.1c-0.038,0.023 -0.083,0.035 -0.135,0.035Zm0,-0.116c0.034,-0 0.06,-0.015 0.08,-0.046c0.02,-0.031 0.03,-0.073 0.03,-0.125c0,-0.053 -0.01,-0.094 -0.03,-0.125c-0.02,-0.031 -0.046,-0.046 -0.08,-0.046c-0.034,0 -0.06,0.016 -0.08,0.046c-0.02,0.031 -0.03,0.073 -0.03,0.125c-0,0.052 0.01,0.094 0.03,0.125c0.02,0.031 0.046,0.046 0.08,0.046Z" style="fill:#232246;fill-rule:nonzero;"/></g><g transform="matrix(20.8333,0,0,20.8333,2224.57,647.737)"><path d="M0.073,-0.547l0.129,0l0.014,0.082c0.03,-0.063 0.079,-0.095 0.145,-0.095c0.062,-0 0.11,0.025 0.145,0.076c0.035,0.051 0.052,0.122 0.052,0.212c0,0.089 -0.017,0.16 -0.052,0.21c-0.035,0.051 -0.083,0.076 -0.144,0.076c-0.064,0 -0.113,-0.03 -0.146,-0.091l-0,0.285l-0.143,0l0,-0.755Zm0.243,0.442c0.03,0 0.054,-0.016 0.072,-0.047c0.018,-0.031 0.027,-0.072 0.027,-0.125c0,-0.051 -0.009,-0.091 -0.026,-0.121c-0.017,-0.03 -0.041,-0.045 -0.072,-0.045c-0.031,0 -0.055,0.016 -0.074,0.046c-0.018,0.031 -0.027,0.072 -0.027,0.123c-0,0.051 0.009,0.092 0.027,0.123c0.018,0.031 0.043,0.046 0.073,0.046Z" style="fill:#232246;fill-rule:nonzero;"/></g><g transform="matrix(20.8333,0,0,20.8333,2237.11,647.737)"><path d="M0.328,0.014c-0.094,0 -0.165,-0.024 -0.214,-0.073c-0.049,-0.049 -0.074,-0.119 -0.074,-0.211c0,-0.058 0.01,-0.109 0.03,-0.153c0.02,-0.043 0.051,-0.077 0.091,-0.101c0.04,-0.024 0.09,-0.036 0.151,-0.036c0.05,-0 0.093,0.011 0.129,0.035c0.037,0.023 0.065,0.055 0.085,0.096c0.02,0.041 0.03,0.089 0.03,0.144l0,0.058l-0.37,-0c-0,0.085 0.049,0.128 0.149,0.128c0.065,-0 0.131,-0.02 0.198,-0.059l0,0.131c-0.066,0.027 -0.135,0.041 -0.205,0.041Zm0.084,-0.348c0,-0.038 -0.009,-0.067 -0.028,-0.086c-0.018,-0.02 -0.045,-0.029 -0.079,-0.029c-0.035,-0 -0.063,0.01 -0.083,0.03c-0.02,0.019 -0.031,0.048 -0.035,0.085l0.225,-0Z" style="fill:#232246;fill-rule:nonzero;"/></g><g transform="matrix(20.8333,0,0,20.8333,2249.65,647.737)"><path d="M0.084,-0.547l0.128,0l0.014,0.082c0.01,-0.03 0.027,-0.054 0.052,-0.07c0.025,-0.017 0.055,-0.025 0.09,-0.025c0.05,-0 0.089,0.017 0.115,0.052c0.027,0.035 0.04,0.086 0.04,0.153l-0,0.355l-0.142,-0l-0,-0.333c-0,-0.038 -0.006,-0.066 -0.016,-0.084c-0.011,-0.018 -0.028,-0.027 -0.051,-0.027c-0.028,0 -0.049,0.012 -0.065,0.035c-0.015,0.024 -0.023,0.056 -0.023,0.096l0,0.313l-0.142,0l-0,-0.547Z" style="fill:#232246;fill-rule:nonzero;"/></g><g transform="matrix(20.8333,0,0,20.8333,2262.19,647.737)"><path d="M0.113,-0.729l0.125,-0l-0,0.271l-0.125,-0l-0,-0.271Zm0.25,-0l0.125,-0l-0,0.271l-0.125,-0l-0,-0.271Z" style="fill:#232246;fill-rule:nonzero;"/></g><g transform="matrix(20.8333,0,0,20.8333,2274.74,647.737)"><path d="M0.186,0.134l0.006,-0.003c0.034,-0.014 0.061,-0.034 0.082,-0.059c0.022,-0.025 0.034,-0.054 0.037,-0.089c-0.003,0.001 -0.005,0.001 -0.007,0.001c-0.001,0 -0.004,0 -0.007,0c-0.022,0 -0.041,-0.007 -0.057,-0.021c-0.007,-0.006 -0.013,-0.014 -0.017,-0.024c-0.005,-0.009 -0.007,-0.021 -0.007,-0.035c0,-0.008 0.001,-0.016 0.003,-0.023c0.003,-0.009 0.005,-0.015 0.008,-0.021c0.003,-0.005 0.007,-0.01 0.014,-0.016c0.01,-0.008 0.019,-0.013 0.028,-0.016c0.01,-0.004 0.021,-0.006 0.033,-0.006c0.005,0 0.01,0.001 0.015,0.001c0.004,0.001 0.009,0.002 0.013,0.003c0.009,0.002 0.017,0.007 0.024,0.012c0.007,0.006 0.014,0.012 0.019,0.021c0.016,0.023 0.024,0.055 0.024,0.096c-0,0.028 -0.004,0.055 -0.012,0.08c-0.003,0.011 -0.008,0.022 -0.013,0.034c-0.006,0.011 -0.013,0.023 -0.021,0.034c-0.016,0.022 -0.035,0.04 -0.057,0.055c-0.021,0.015 -0.046,0.027 -0.074,0.038l-0.006,0.002l-0.028,-0.064Z" style="fill:#232246;fill-rule:nonzero;"/></g><g transform="matrix(20.8333,0,0,20.8333,2074.05,668.57)"><path d="M0.113,-0.729l0.125,-0l-0,0.271l-0.125,-0l-0,-0.271Zm0.25,-0l0.125,-0l-0,0.271l-0.125,-0l-0,-0.271Z" style="fill:#232246;fill-rule:nonzero;"/></g><g transform="matrix(20.8333,0,0,20.8333,2086.6,668.57)"><path d="M0.039,-0.547l0.145,0l0.117,0.427l0.117,-0.427l0.145,0l-0.174,0.547l-0.176,-0l-0.174,-0.547Z" style="fill:#232246;fill-rule:nonzero;"/></g><g transform="matrix(20.8333,0,0,20.8333,2099.14,668.57)"><path d="M0.236,0.014c-0.056,0 -0.102,-0.016 -0.137,-0.048c-0.035,-0.033 -0.053,-0.079 -0.053,-0.14c0,-0.039 0.007,-0.07 0.021,-0.094c0.014,-0.025 0.033,-0.043 0.057,-0.057c0.024,-0.013 0.051,-0.022 0.081,-0.027c0.03,-0.005 0.062,-0.008 0.095,-0.008l0.099,0l0,-0.024c0,-0.019 -0.005,-0.034 -0.015,-0.044c-0.01,-0.01 -0.023,-0.017 -0.04,-0.021c-0.016,-0.003 -0.032,-0.005 -0.049,-0.005c-0.035,-0 -0.068,0.005 -0.099,0.014c-0.032,0.009 -0.064,0.023 -0.095,0.04l-0,-0.122c0.033,-0.014 0.067,-0.023 0.1,-0.03c0.034,-0.006 0.068,-0.009 0.102,-0.009c0.06,0 0.107,0.009 0.142,0.026c0.035,0.017 0.059,0.044 0.074,0.079c0.015,0.036 0.023,0.081 0.023,0.136c-0,0.013 -0.001,0.029 -0.001,0.049c-0.001,0.02 -0.001,0.04 -0.001,0.06c0,0.017 -0,0.034 -0,0.049c-0.001,0.016 -0.001,0.029 -0.001,0.04c0,0.009 0.001,0.022 0.002,0.037c0.001,0.015 0.003,0.03 0.006,0.046c0.004,0.016 0.009,0.029 0.017,0.039l-0.142,0c-0.006,-0.01 -0.01,-0.02 -0.013,-0.029c-0.003,-0.009 -0.005,-0.02 -0.007,-0.032c-0.019,0.026 -0.043,0.045 -0.072,0.057c-0.028,0.012 -0.06,0.018 -0.094,0.018Zm0.047,-0.099c0.03,0 0.054,-0.008 0.07,-0.025c0.017,-0.016 0.029,-0.037 0.036,-0.062c0.007,-0.025 0.01,-0.05 0.01,-0.075l0,-0.01l-0.057,0c-0.022,0 -0.044,0.002 -0.067,0.005c-0.022,0.003 -0.04,0.011 -0.055,0.023c-0.014,0.012 -0.021,0.032 -0.021,0.06c-0,0.027 0.007,0.047 0.022,0.062c0.015,0.015 0.036,0.022 0.062,0.022Z" style="fill:#232246;fill-rule:nonzero;"/></g><g transform="matrix(20.8333,0,0,20.8333,2111.68,668.57)"><path d="M0.385,0.004c-0.068,-0 -0.117,-0.018 -0.146,-0.054c-0.03,-0.035 -0.045,-0.093 -0.045,-0.174l-0,-0.426l-0.145,0l-0,-0.11l0.288,0l-0,0.536c-0,0.042 0.007,0.072 0.02,0.091c0.014,0.018 0.036,0.027 0.068,0.027l0.114,0l0,0.11l-0.154,-0Z" style="fill:#232246;fill-rule:nonzero;"/></g><g transform="matrix(20.8333,0,0,20.8333,2124.22,668.57)"><path d="M0.234,0.014c-0.05,0 -0.089,-0.017 -0.116,-0.052c-0.027,-0.035 -0.04,-0.086 -0.04,-0.153l0,-0.356l0.143,0l0,0.334c0,0.073 0.023,0.11 0.068,0.11c0.027,-0 0.048,-0.011 0.063,-0.034c0.015,-0.023 0.023,-0.055 0.023,-0.096l-0,-0.314l0.143,0l0,0.547l-0.129,-0l-0.014,-0.081c-0.022,0.063 -0.069,0.095 -0.141,0.095Z" style="fill:#232246;fill-rule:nonzero;"/></g><g transform="matrix(20.8333,0,0,20.8333,2136.77,668.57)"><path d="M0.328,0.014c-0.094,0 -0.165,-0.024 -0.214,-0.073c-0.049,-0.049 -0.074,-0.119 -0.074,-0.211c0,-0.058 0.01,-0.109 0.03,-0.153c0.02,-0.043 0.051,-0.077 0.091,-0.101c0.04,-0.024 0.09,-0.036 0.151,-0.036c0.05,-0 0.093,0.011 0.129,0.035c0.037,0.023 0.065,0.055 0.085,0.096c0.02,0.041 0.03,0.089 0.03,0.144l0,0.058l-0.37,-0c-0,0.085 0.049,0.128 0.149,0.128c0.065,-0 0.131,-0.02 0.198,-0.059l0,0.131c-0.066,0.027 -0.135,0.041 -0.205,0.041Zm0.084,-0.348c0,-0.038 -0.009,-0.067 -0.028,-0.086c-0.018,-0.02 -0.045,-0.029 -0.079,-0.029c-0.035,-0 -0.063,0.01 -0.083,0.03c-0.02,0.019 -0.031,0.048 -0.035,0.085l0.225,-0Z" style="fill:#232246;fill-rule:nonzero;"/></g><g transform="matrix(20.8333,0,0,20.8333,2149.31,668.57)"><path d="M0.113,-0.729l0.125,-0l-0,0.271l-0.125,-0l-0,-0.271Zm0.25,-0l0.125,-0l-0,0.271l-0.125,-0l-0,-0.271Z" style="fill:#232246;fill-rule:nonzero;"/></g><g transform="matrix(20.8333,0,0,20.8333,2161.85,668.57)"><path d="M0.302,-0.367c-0.012,-0 -0.024,-0.003 -0.034,-0.007c-0.01,-0.005 -0.019,-0.011 -0.026,-0.018c-0.017,-0.017 -0.026,-0.039 -0.026,-0.065c0,-0.014 0.003,-0.026 0.007,-0.037c0.005,-0.011 0.011,-0.02 0.018,-0.028c0.017,-0.017 0.037,-0.025 0.062,-0.025c0.024,0 0.045,0.008 0.061,0.025c0.008,0.008 0.014,0.017 0.018,0.028c0.005,0.011 0.007,0.023 0.007,0.036c0,0.028 -0.008,0.05 -0.024,0.066c-0.017,0.017 -0.038,0.025 -0.063,0.025Zm0.001,0.349c-0.024,0 -0.045,-0.008 -0.061,-0.024c-0.017,-0.017 -0.026,-0.039 -0.026,-0.065c0,-0.027 0.009,-0.048 0.026,-0.065c0.016,-0.017 0.037,-0.025 0.061,-0.025c0.024,-0 0.045,0.008 0.061,0.025c0.008,0.007 0.014,0.016 0.018,0.027c0.005,0.011 0.007,0.024 0.007,0.038c0,0.026 -0.008,0.048 -0.025,0.065c-0.016,0.016 -0.037,0.024 -0.061,0.024Z" style="fill:#232246;fill-rule:nonzero;"/></g><g transform="matrix(20.8333,0,0,20.8333,2186.94,668.57)"><path d="M0.092,-0.127l0.161,0l-0,-0.454l-0.109,0.119l-0.069,-0.071l0.179,-0.196l0.139,-0l0,0.602l0.161,0l0,0.127l-0.462,-0l-0,-0.127Z" style="fill:#232246;fill-rule:nonzero;"/></g><g transform="matrix(20.8333,0,0,20.8333,2199.48,668.57)"><path d="M0.37,-0.602l-0.304,-0l-0,-0.127l0.461,-0l-0,0.102l-0.247,0.627l-0.147,-0l0.237,-0.602Z" style="fill:#232246;fill-rule:nonzero;"/></g><g transform="matrix(20.8333,0,0,20.8333,2212.02,668.57)"><path d="M0.245,0.019c-0.013,0 -0.025,-0.001 -0.037,-0.002c-0.011,-0.001 -0.023,-0.003 -0.035,-0.005c-0.026,-0.006 -0.05,-0.013 -0.074,-0.022l0,-0.131c0.025,0.015 0.05,0.026 0.074,0.033c0.023,0.007 0.046,0.011 0.069,0.011c0.024,-0 0.047,-0.004 0.067,-0.013c0.02,-0.008 0.037,-0.022 0.051,-0.039c0.013,-0.017 0.023,-0.038 0.031,-0.064c0.007,-0.026 0.011,-0.056 0.012,-0.092c-0.031,0.043 -0.079,0.064 -0.143,0.064c-0.066,-0 -0.117,-0.021 -0.153,-0.063c-0.035,-0.041 -0.053,-0.1 -0.053,-0.176c0,-0.081 0.02,-0.144 0.06,-0.189c0.039,-0.045 0.098,-0.067 0.174,-0.067c0.045,0 0.083,0.008 0.114,0.023c0.03,0.016 0.056,0.038 0.075,0.067c0.022,0.032 0.038,0.072 0.047,0.119c0.009,0.047 0.014,0.1 0.014,0.158c0,0.071 -0.006,0.131 -0.019,0.178c-0.013,0.047 -0.031,0.085 -0.054,0.115c-0.026,0.033 -0.057,0.057 -0.094,0.072c-0.038,0.015 -0.08,0.023 -0.126,0.023Zm0.043,-0.381c0.031,0 0.055,-0.011 0.071,-0.034c0.017,-0.023 0.025,-0.056 0.025,-0.098c-0,-0.022 -0.002,-0.042 -0.007,-0.058c-0.004,-0.016 -0.01,-0.03 -0.018,-0.04c-0.016,-0.023 -0.04,-0.034 -0.071,-0.034c-0.017,0 -0.031,0.003 -0.043,0.009c-0.011,0.006 -0.021,0.014 -0.029,0.025c-0.017,0.023 -0.025,0.055 -0.025,0.098c-0,0.043 0.008,0.075 0.025,0.098c0.017,0.023 0.041,0.034 0.072,0.034Z" style="fill:#232246;fill-rule:nonzero;"/></g><g transform="matrix(20.8333,0,0,20.8333,2224.57,668.57)"><path d="M0.299,0.021c-0.013,-0 -0.024,-0.003 -0.034,-0.007c-0.01,-0.004 -0.019,-0.011 -0.027,-0.019c-0.017,-0.017 -0.025,-0.038 -0.025,-0.064c-0,-0.027 0.008,-0.048 0.025,-0.065c0.017,-0.017 0.037,-0.025 0.061,-0.025c0.025,-0 0.045,0.008 0.062,0.025c0.016,0.016 0.025,0.038 0.025,0.065c-0,0.026 -0.009,0.048 -0.025,0.064c-0.017,0.017 -0.038,0.026 -0.062,0.026Z" style="fill:#232246;fill-rule:nonzero;"/></g><g transform="matrix(20.8333,0,0,20.8333,2237.11,668.57)"><path d="M0.245,0.019c-0.013,0 -0.025,-0.001 -0.037,-0.002c-0.011,-0.001 -0.023,-0.003 -0.035,-0.005c-0.026,-0.006 -0.05,-0.013 -0.074,-0.022l0,-0.131c0.025,0.015 0.05,0.026 0.074,0.033c0.023,0.007 0.046,0.011 0.069,0.011c0.024,-0 0.047,-0.004 0.067,-0.013c0.02,-0.008 0.037,-0.022 0.051,-0.039c0.013,-0.017 0.023,-0.038 0.031,-0.064c0.007,-0.026 0.011,-0.056 0.012,-0.092c-0.031,0.043 -0.079,0.064 -0.143,0.064c-0.066,-0 -0.117,-0.021 -0.153,-0.063c-0.035,-0.041 -0.053,-0.1 -0.053,-0.176c0,-0.081 0.02,-0.144 0.06,-0.189c0.039,-0.045 0.098,-0.067 0.174,-0.067c0.045,0 0.083,0.008 0.114,0.023c0.03,0.016 0.056,0.038 0.075,0.067c0.022,0.032 0.038,0.072 0.047,0.119c0.009,0.047 0.014,0.1 0.014,0.158c0,0.071 -0.006,0.131 -0.019,0.178c-0.013,0.047 -0.031,0.085 -0.054,0.115c-0.026,0.033 -0.057,0.057 -0.094,0.072c-0.038,0.015 -0.08,0.023 -0.126,0.023Zm0.043,-0.381c0.031,0 0.055,-0.011 0.071,-0.034c0.017,-0.023 0.025,-0.056 0.025,-0.098c-0,-0.022 -0.002,-0.042 -0.007,-0.058c-0.004,-0.016 -0.01,-0.03 -0.018,-0.04c-0.016,-0.023 -0.04,-0.034 -0.071,-0.034c-0.017,0 -0.031,0.003 -0.043,0.009c-0.011,0.006 -0.021,0.014 -0.029,0.025c-0.017,0.023 -0.025,0.055 -0.025,0.098c-0,0.043 0.008,0.075 0.025,0.098c0.017,0.023 0.041,0.034 0.072,0.034Z" style="fill:#232246;fill-rule:nonzero;"/></g><g transform="matrix(20.8333,0,0,20.8333,2249.65,668.57)"><path d="M0.186,0.134l0.006,-0.003c0.034,-0.014 0.061,-0.034 0.082,-0.059c0.022,-0.025 0.034,-0.054 0.037,-0.089c-0.003,0.001 -0.005,0.001 -0.007,0.001c-0.001,0 -0.004,0 -0.007,0c-0.022,0 -0.041,-0.007 -0.057,-0.021c-0.007,-0.006 -0.013,-0.014 -0.017,-0.024c-0.005,-0.009 -0.007,-0.021 -0.007,-0.035c0,-0.008 0.001,-0.016 0.003,-0.023c0.003,-0.009 0.005,-0.015 0.008,-0.021c0.003,-0.005 0.007,-0.01 0.014,-0.016c0.01,-0.008 0.019,-0.013 0.028,-0.016c0.01,-0.004 0.021,-0.006 0.033,-0.006c0.005,0 0.01,0.001 0.015,0.001c0.004,0.001 0.009,0.002 0.013,0.003c0.009,0.002 0.017,0.007 0.024,0.012c0.007,0.006 0.014,0.012 0.019,0.021c0.016,0.023 0.024,0.055 0.024,0.096c-0,0.028 -0.004,0.055 -0.012,0.08c-0.003,0.011 -0.008,0.022 -0.013,0.034c-0.006,0.011 -0.013,0.023 -0.021,0.034c-0.016,0.022 -0.035,0.04 -0.057,0.055c-0.021,0.015 -0.046,0.027 -0.074,0.038l-0.006,0.002l-0.028,-0.064Z" style="fill:#232246;fill-rule:nonzero;"/></g><g transform="matrix(20.8333,0,0,20.8333,2074.05,689.404)"><path d="M0.113,-0.729l0.125,-0l-0,0.271l-0.125,-0l-0,-0.271Zm0.25,-0l0.125,-0l-0,0.271l-0.125,-0l-0,-0.271Z" style="fill:#232246;fill-rule:nonzero;"/></g><g transform="matrix(20.8333,0,0,20.8333,2086.6,689.404)"><path d="M0.404,0.002c-0.054,-0 -0.096,-0.006 -0.127,-0.017c-0.03,-0.011 -0.052,-0.03 -0.064,-0.057c-0.013,-0.027 -0.019,-0.064 -0.019,-0.111l-0,-0.254l-0.14,-0l0,-0.11l0.14,0l-0,-0.149l0.143,-0.064l-0,0.213l0.187,0l-0,0.11l-0.187,-0l-0,0.261c-0,0.024 0.006,0.041 0.018,0.052c0.012,0.011 0.032,0.016 0.059,0.016l0.11,0l-0,0.11l-0.12,-0Z" style="fill:#232246;fill-rule:nonzero;"/></g><g transform="matrix(20.8333,0,0,20.8333,2099.14,689.404)"><path d="M0.22,-0.612c-0.01,0 -0.014,-0.005 -0.014,-0.014l-0,-0.138c-0,-0.01 0.004,-0.015 0.014,-0.015l0.114,0c0.01,0 0.015,0.005 0.015,0.015l-0,0.138c-0,0.009 -0.005,0.014 -0.015,0.014l-0.114,0Zm0.176,0.618c-0.067,-0 -0.116,-0.018 -0.146,-0.054c-0.03,-0.035 -0.044,-0.093 -0.044,-0.174l-0,-0.215l-0.116,-0l-0,-0.11l0.259,0l-0,0.325c-0,0.042 0.006,0.072 0.02,0.091c0.013,0.018 0.036,0.027 0.068,0.027l0.114,-0l-0,0.11l-0.155,-0Z" style="fill:#232246;fill-rule:nonzero;"/></g><g transform="matrix(20.8333,0,0,20.8333,2111.68,689.404)"><path d="M0.04,-0.547l0.09,0l0.014,0.057c0.008,-0.022 0.021,-0.039 0.039,-0.052c0.017,-0.012 0.037,-0.018 0.059,-0.018c0.023,-0 0.043,0.007 0.062,0.02c0.018,0.013 0.029,0.029 0.033,0.048c0.021,-0.045 0.056,-0.068 0.104,-0.068c0.046,-0 0.078,0.016 0.096,0.048c0.018,0.033 0.027,0.101 0.027,0.204l-0,0.308l-0.117,-0l-0,-0.351c-0,-0.04 -0.003,-0.067 -0.01,-0.081c-0.006,-0.014 -0.017,-0.021 -0.034,-0.021c-0.016,-0 -0.027,0.007 -0.033,0.02c-0.007,0.015 -0.01,0.043 -0.01,0.082l-0,0.351l-0.116,-0l0,-0.351c0,-0.038 -0.003,-0.066 -0.01,-0.081c-0.006,-0.014 -0.017,-0.021 -0.033,-0.021c-0.017,-0 -0.028,0.006 -0.034,0.019c-0.007,0.013 -0.01,0.041 -0.01,0.083l0,0.351l-0.117,-0l0,-0.547Z" style="fill:#232246;fill-rule:nonzero;"/></g><g transform="matrix(20.8333,0,0,20.8333,2124.22,689.404)"><path d="M0.328,0.014c-0.094,0 -0.165,-0.024 -0.214,-0.073c-0.049,-0.049 -0.074,-0.119 -0.074,-0.211c0,-0.058 0.01,-0.109 0.03,-0.153c0.02,-0.043 0.051,-0.077 0.091,-0.101c0.04,-0.024 0.09,-0.036 0.151,-0.036c0.05,-0 0.093,0.011 0.129,0.035c0.037,0.023 0.065,0.055 0.085,0.096c0.02,0.041 0.03,0.089 0.03,0.144l0,0.058l-0.37,-0c-0,0.085 0.049,0.128 0.149,0.128c0.065,-0 0.131,-0.02 0.198,-0.059l0,0.131c-0.066,0.027 -0.135,0.041 -0.205,0.041Zm0.084,-0.348c0,-0.038 -0.009,-0.067 -0.028,-0.086c-0.018,-0.02 -0.045,-0.029 -0.079,-0.029c-0.035,-0 -0.063,0.01 -0.083,0.03c-0.02,0.019 -0.031,0.048 -0.035,0.085l0.225,-0Z" style="fill:#232246;fill-rule:nonzero;"/></g><g transform="matrix(20.8333,0,0,20.8333,2136.77,689.404)"><path d="M0.297,0.014c-0.061,0 -0.129,-0.011 -0.204,-0.034l-0,-0.125c0.064,0.037 0.128,0.055 0.193,0.055c0.067,0 0.1,-0.02 0.1,-0.059c0,-0.018 -0.008,-0.032 -0.024,-0.043c-0.016,-0.011 -0.043,-0.02 -0.081,-0.028l-0.04,-0.009c-0.105,-0.023 -0.157,-0.077 -0.157,-0.162c-0,-0.054 0.019,-0.095 0.058,-0.125c0.039,-0.029 0.096,-0.044 0.17,-0.044c0.028,-0 0.057,0.002 0.085,0.007c0.028,0.005 0.057,0.013 0.087,0.023l-0,0.125c-0.029,-0.018 -0.056,-0.031 -0.082,-0.039c-0.027,-0.008 -0.054,-0.012 -0.081,-0.012c-0.033,-0 -0.058,0.005 -0.075,0.014c-0.018,0.01 -0.027,0.022 -0.027,0.038c0,0.015 0.008,0.027 0.025,0.038c0.016,0.011 0.043,0.02 0.08,0.029l0.046,0.011c0.052,0.012 0.09,0.032 0.115,0.059c0.024,0.028 0.036,0.064 0.036,0.109c-0,0.115 -0.075,0.172 -0.224,0.172Z" style="fill:#232246;fill-rule:nonzero;"/></g><g transform="matrix(20.8333,0,0,20.8333,2149.31,689.404)"><path d="M0.404,0.002c-0.054,-0 -0.096,-0.006 -0.127,-0.017c-0.03,-0.011 -0.052,-0.03 -0.064,-0.057c-0.013,-0.027 -0.019,-0.064 -0.019,-0.111l-0,-0.254l-0.14,-0l0,-0.11l0.14,0l-0,-0.149l0.143,-0.064l-0,0.213l0.187,0l-0,0.11l-0.187,-0l-0,0.261c-0,0.024 0.006,0.041 0.018,0.052c0.012,0.011 0.032,0.016 0.059,0.016l0.11,0l-0,0.11l-0.12,-0Z" style="fill:#232246;fill-rule:nonzero;"/></g><g transform="matrix(20.8333,0,0,20.8333,2161.85,689.404)"><path d="M0.236,0.014c-0.056,0 -0.102,-0.016 -0.137,-0.048c-0.035,-0.033 -0.053,-0.079 -0.053,-0.14c0,-0.039 0.007,-0.07 0.021,-0.094c0.014,-0.025 0.033,-0.043 0.057,-0.057c0.024,-0.013 0.051,-0.022 0.081,-0.027c0.03,-0.005 0.062,-0.008 0.095,-0.008l0.099,0l0,-0.024c0,-0.019 -0.005,-0.034 -0.015,-0.044c-0.01,-0.01 -0.023,-0.017 -0.04,-0.021c-0.016,-0.003 -0.032,-0.005 -0.049,-0.005c-0.035,-0 -0.068,0.005 -0.099,0.014c-0.032,0.009 -0.064,0.023 -0.095,0.04l-0,-0.122c0.033,-0.014 0.067,-0.023 0.1,-0.03c0.034,-0.006 0.068,-0.009 0.102,-0.009c0.06,0 0.107,0.009 0.142,0.026c0.035,0.017 0.059,0.044 0.074,0.079c0.015,0.036 0.023,0.081 0.023,0.136c-0,0.013 -0.001,0.029 -0.001,0.049c-0.001,0.02 -0.001,0.04 -0.001,0.06c0,0.017 -0,0.034 -0,0.049c-0.001,0.016 -0.001,0.029 -0.001,0.04c0,0.009 0.001,0.022 0.002,0.037c0.001,0.015 0.003,0.03 0.006,0.046c0.004,0.016 0.009,0.029 0.017,0.039l-0.142,0c-0.006,-0.01 -0.01,-0.02 -0.013,-0.029c-0.003,-0.009 -0.005,-0.02 -0.007,-0.032c-0.019,0.026 -0.043,0.045 -0.072,0.057c-0.028,0.012 -0.06,0.018 -0.094,0.018Zm0.047,-0.099c0.03,0 0.054,-0.008 0.07,-0.025c0.017,-0.016 0.029,-0.037 0.036,-0.062c0.007,-0.025 0.01,-0.05 0.01,-0.075l0,-0.01l-0.057,0c-0.022,0 -0.044,0.002 -0.067,0.005c-0.022,0.003 -0.04,0.011 -0.055,0.023c-0.014,0.012 -0.021,0.032 -0.021,0.06c-0,0.027 0.007,0.047 0.022,0.062c0.015,0.015 0.036,0.022 0.062,0.022Z" style="fill:#232246;fill-rule:nonzero;"/></g><g transform="matrix(20.8333,0,0,20.8333,2174.4,689.404)"><path d="M0.04,-0.547l0.09,0l0.014,0.057c0.008,-0.022 0.021,-0.039 0.039,-0.052c0.017,-0.012 0.037,-0.018 0.059,-0.018c0.023,-0 0.043,0.007 0.062,0.02c0.018,0.013 0.029,0.029 0.033,0.048c0.021,-0.045 0.056,-0.068 0.104,-0.068c0.046,-0 0.078,0.016 0.096,0.048c0.018,0.033 0.027,0.101 0.027,0.204l-0,0.308l-0.117,-0l-0,-0.351c-0,-0.04 -0.003,-0.067 -0.01,-0.081c-0.006,-0.014 -0.017,-0.021 -0.034,-0.021c-0.016,-0 -0.027,0.007 -0.033,0.02c-0.007,0.015 -0.01,0.043 -0.01,0.082l-0,0.351l-0.116,-0l0,-0.351c0,-0.038 -0.003,-0.066 -0.01,-0.081c-0.006,-0.014 -0.017,-0.021 -0.033,-0.021c-0.017,-0 -0.028,0.006 -0.034,0.019c-0.007,0.013 -0.01,0.041 -0.01,0.083l0,0.351l-0.117,-0l0,-0.547Z" style="fill:#232246;fill-rule:nonzero;"/></g><g transform="matrix(20.8333,0,0,20.8333,2186.94,689.404)"><path d="M0.073,-0.547l0.129,0l0.014,0.082c0.03,-0.063 0.079,-0.095 0.145,-0.095c0.062,-0 0.11,0.025 0.145,0.076c0.035,0.051 0.052,0.122 0.052,0.212c0,0.089 -0.017,0.16 -0.052,0.21c-0.035,0.051 -0.083,0.076 -0.144,0.076c-0.064,0 -0.113,-0.03 -0.146,-0.091l-0,0.285l-0.143,0l0,-0.755Zm0.243,0.442c0.03,0 0.054,-0.016 0.072,-0.047c0.018,-0.031 0.027,-0.072 0.027,-0.125c0,-0.051 -0.009,-0.091 -0.026,-0.121c-0.017,-0.03 -0.041,-0.045 -0.072,-0.045c-0.031,0 -0.055,0.016 -0.074,0.046c-0.018,0.031 -0.027,0.072 -0.027,0.123c-0,0.051 0.009,0.092 0.027,0.123c0.018,0.031 0.043,0.046 0.073,0.046Z" style="fill:#232246;fill-rule:nonzero;"/></g><g transform="matrix(20.8333,0,0,20.8333,2199.48,689.404)"><path d="M0.113,-0.729l0.125,-0l-0,0.271l-0.125,-0l-0,-0.271Zm0.25,-0l0.125,-0l-0,0.271l-0.125,-0l-0,-0.271Z" style="fill:#232246;fill-rule:nonzero;"/></g><g transform="matrix(20.8333,0,0,20.8333,2212.02,689.404)"><path d="M0.302,-0.367c-0.012,-0 -0.024,-0.003 -0.034,-0.007c-0.01,-0.005 -0.019,-0.011 -0.026,-0.018c-0.017,-0.017 -0.026,-0.039 -0.026,-0.065c0,-0.014 0.003,-0.026 0.007,-0.037c0.005,-0.011 0.011,-0.02 0.018,-0.028c0.017,-0.017 0.037,-0.025 0.062,-0.025c0.024,0 0.045,0.008 0.061,0.025c0.008,0.008 0.014,0.017 0.018,0.028c0.005,0.011 0.007,0.023 0.007,0.036c0,0.028 -0.008,0.05 -0.024,0.066c-0.017,0.017 -0.038,0.025 -0.063,0.025Zm0.001,0.349c-0.024,0 -0.045,-0.008 -0.061,-0.024c-0.017,-0.017 -0.026,-0.039 -0.026,-0.065c0,-0.027 0.009,-0.048 0.026,-0.065c0.016,-0.017 0.037,-0.025 0.061,-0.025c0.024,-0 0.045,0.008 0.061,0.025c0.008,0.007 0.014,0.016 0.018,0.027c0.005,0.011 0.007,0.024 0.007,0.038c0,0.026 -0.008,0.048 -0.025,0.065c-0.016,0.016 -0.037,0.024 -0.061,0.024Z" style="fill:#232246;fill-rule:nonzero;"/></g><g transform="matrix(20.8333,0,0,20.8333,2237.11,689.404)"><path d="M0.092,-0.127l0.161,0l-0,-0.454l-0.109,0.119l-0.069,-0.071l0.179,-0.196l0.139,-0l0,0.602l0.161,0l0,0.127l-0.462,-0l-0,-0.127Z" style="fill:#232246;fill-rule:nonzero;"/></g><g transform="matrix(20.8333,0,0,20.8333,2249.65,689.404)"><path d="M0.056,-0.105c0,-0.012 0.004,-0.022 0.012,-0.031l0.066,-0.07c0.036,-0.039 0.065,-0.07 0.086,-0.092c0.021,-0.023 0.038,-0.041 0.05,-0.054c0.012,-0.013 0.023,-0.026 0.033,-0.037c0.012,-0.014 0.023,-0.026 0.031,-0.038c0.009,-0.012 0.016,-0.023 0.022,-0.035c0.011,-0.022 0.016,-0.044 0.016,-0.066c0,-0.032 -0.01,-0.056 -0.03,-0.074c-0.02,-0.018 -0.047,-0.027 -0.083,-0.027c-0.027,0 -0.056,0.005 -0.087,0.015c-0.016,0.005 -0.032,0.012 -0.049,0.019c-0.016,0.007 -0.034,0.016 -0.051,0.026l-0,-0.134c0.019,-0.007 0.038,-0.013 0.055,-0.018c0.018,-0.005 0.034,-0.009 0.047,-0.011c0.034,-0.007 0.066,-0.01 0.098,-0.01c0.035,-0 0.069,0.004 0.099,0.013c0.031,0.008 0.058,0.022 0.081,0.041c0.021,0.016 0.037,0.037 0.049,0.062c0.011,0.024 0.017,0.053 0.017,0.087c0,0.027 -0.005,0.053 -0.015,0.079c-0.012,0.029 -0.028,0.056 -0.049,0.083c-0.011,0.014 -0.028,0.033 -0.05,0.056c-0.022,0.022 -0.052,0.054 -0.092,0.093c-0.024,0.025 -0.042,0.042 -0.056,0.053c-0.014,0.012 -0.025,0.02 -0.033,0.026c-0.009,0.006 -0.017,0.013 -0.026,0.022l0.322,0l0,0.127l-0.463,-0l0,-0.105Z" style="fill:#232246;fill-rule:nonzero;"/></g><g transform="matrix(20.8333,0,0,20.8333,2262.19,689.404)"><path d="M0.271,0.014c-0.017,0 -0.035,-0.001 -0.053,-0.002c-0.018,-0.002 -0.037,-0.004 -0.054,-0.007c-0.017,-0.003 -0.034,-0.007 -0.051,-0.011c-0.017,-0.004 -0.035,-0.01 -0.052,-0.016l0,-0.134c0.031,0.016 0.064,0.027 0.099,0.035c0.019,0.004 0.037,0.007 0.055,0.009c0.018,0.002 0.034,0.003 0.049,0.003c0.022,0 0.041,-0.002 0.058,-0.006c0.017,-0.004 0.031,-0.011 0.043,-0.021c0.023,-0.018 0.034,-0.044 0.034,-0.076c-0,-0.035 -0.011,-0.063 -0.034,-0.084c-0.011,-0.009 -0.024,-0.017 -0.041,-0.022c-0.016,-0.005 -0.034,-0.008 -0.056,-0.008l-0.077,-0l-0,-0.127l0.077,-0c0.036,-0 0.063,-0.007 0.084,-0.022c0.019,-0.014 0.029,-0.034 0.029,-0.06c-0,-0.027 -0.01,-0.048 -0.029,-0.063c-0.019,-0.015 -0.047,-0.022 -0.085,-0.022c-0.013,-0 -0.026,0.001 -0.041,0.002c-0.015,0.002 -0.03,0.005 -0.046,0.008c-0.014,0.003 -0.03,0.008 -0.047,0.013c-0.016,0.005 -0.033,0.01 -0.05,0.017l0,-0.131c0.034,-0.01 0.067,-0.018 0.099,-0.023c0.032,-0.006 0.063,-0.008 0.093,-0.008c0.078,-0 0.138,0.017 0.181,0.05c0.043,0.034 0.064,0.08 0.064,0.139c0,0.021 -0.003,0.04 -0.009,0.057c-0.005,0.018 -0.015,0.034 -0.028,0.049c-0.025,0.027 -0.06,0.045 -0.106,0.054c0.052,0.009 0.092,0.03 0.119,0.062c0.027,0.032 0.041,0.075 0.041,0.129c0,0.07 -0.022,0.123 -0.067,0.16c-0.045,0.038 -0.111,0.056 -0.199,0.056Z" style="fill:#232246;fill-rule:nonzero;"/></g><g transform="matrix(20.8333,0,0,20.8333,2274.74,689.404)"><path d="M0.339,-0.157l-0.289,-0l-0,-0.14l0.276,-0.432l0.151,-0l0,0.448l0.08,0l0,0.124l-0.08,-0l0,0.157l-0.138,0l-0,-0.157Zm-0,-0.124l-0,-0.288l-0.184,0.288l0.184,0Z" style="fill:#232246;fill-rule:nonzero;"/></g><g transform="matrix(20.8333,0,0,20.8333,2287.28,689.404)"><path d="M0.26,0.014c-0.014,0 -0.029,-0 -0.045,-0.002c-0.016,-0.001 -0.032,-0.003 -0.048,-0.006c-0.016,-0.002 -0.032,-0.006 -0.049,-0.01c-0.016,-0.004 -0.032,-0.008 -0.048,-0.013l-0,-0.13c0.014,0.007 0.028,0.013 0.041,0.018c0.013,0.004 0.027,0.008 0.042,0.012c0.028,0.007 0.056,0.01 0.085,0.01c0.052,0 0.091,-0.011 0.116,-0.033c0.027,-0.022 0.04,-0.053 0.04,-0.092c0,-0.041 -0.013,-0.073 -0.038,-0.095c-0.026,-0.022 -0.062,-0.033 -0.108,-0.033c-0.011,0 -0.023,0.001 -0.036,0.002c-0.013,0.002 -0.026,0.004 -0.039,0.007c-0.013,0.004 -0.027,0.008 -0.041,0.013c-0.014,0.005 -0.026,0.011 -0.038,0.016l0,-0.407l0.396,-0l0,0.127l-0.279,-0l-0,0.135c0.003,-0.001 0.008,-0.003 0.016,-0.005c0.007,-0.002 0.014,-0.004 0.022,-0.005c0.005,-0.001 0.012,-0.002 0.021,-0.002c0.008,-0.001 0.015,-0.001 0.022,-0.001c0.034,0 0.067,0.006 0.097,0.017c0.03,0.012 0.056,0.029 0.078,0.051c0.021,0.021 0.038,0.047 0.05,0.078c0.011,0.03 0.017,0.064 0.017,0.101c0,0.077 -0.024,0.137 -0.072,0.181c-0.048,0.044 -0.115,0.066 -0.202,0.066Z" style="fill:#232246;fill-rule:nonzero;"/></g><g transform="matrix(20.8333,0,0,20.8333,2299.82,689.404)"><path d="M0.314,0.015c-0.042,0 -0.079,-0.007 -0.111,-0.022c-0.031,-0.014 -0.057,-0.037 -0.078,-0.068c-0.021,-0.031 -0.037,-0.071 -0.047,-0.117c-0.009,-0.047 -0.014,-0.101 -0.014,-0.162c-0,-0.064 0.006,-0.121 0.017,-0.17c0.011,-0.049 0.03,-0.09 0.057,-0.123c0.049,-0.063 0.122,-0.094 0.219,-0.094c0.026,-0 0.05,0.002 0.073,0.007c0.024,0.005 0.048,0.012 0.073,0.022l-0,0.131c-0.025,-0.015 -0.049,-0.026 -0.074,-0.033c-0.023,-0.007 -0.046,-0.011 -0.069,-0.011c-0.103,0 -0.157,0.069 -0.161,0.208c0.016,-0.023 0.036,-0.039 0.059,-0.048c0.01,-0.005 0.023,-0.009 0.037,-0.012c0.014,-0.002 0.03,-0.004 0.048,-0.004c0.066,0 0.116,0.021 0.151,0.062c0.036,0.041 0.054,0.1 0.054,0.177c-0,0.04 -0.005,0.076 -0.015,0.108c-0.01,0.032 -0.025,0.06 -0.045,0.082c-0.041,0.045 -0.098,0.067 -0.174,0.067Zm-0,-0.116c0.015,-0 0.028,-0.003 0.04,-0.008c0.013,-0.006 0.023,-0.014 0.032,-0.026c0.017,-0.023 0.025,-0.055 0.025,-0.098c0,-0.043 -0.008,-0.075 -0.025,-0.098c-0.016,-0.023 -0.041,-0.034 -0.073,-0.034c-0.016,-0 -0.03,0.003 -0.041,0.009c-0.012,0.005 -0.022,0.014 -0.029,0.024c-0.017,0.024 -0.025,0.056 -0.025,0.099c-0,0.022 0.002,0.041 0.006,0.058c0.005,0.016 0.011,0.029 0.019,0.04c0.008,0.012 0.018,0.02 0.031,0.026c0.012,0.005 0.025,0.008 0.04,0.008Z" style="fill:#232246;fill-rule:nonzero;"/></g><g transform="matrix(20.8333,0,0,20.8333,2312.37,689.404)"><path d="M0.37,-0.602l-0.304,-0l-0,-0.127l0.461,-0l-0,0.102l-0.247,0.627l-0.147,-0l0.237,-0.602Z" style="fill:#232246;fill-rule:nonzero;"/></g><g transform="matrix(20.8333,0,0,20.8333,2324.91,689.404)"><path d="M0.301,0.014c-0.04,0 -0.074,-0.005 -0.103,-0.015c-0.029,-0.01 -0.053,-0.024 -0.073,-0.042c-0.041,-0.038 -0.062,-0.091 -0.062,-0.159c-0,-0.025 0.003,-0.047 0.009,-0.066c0.006,-0.019 0.014,-0.036 0.026,-0.052c0.022,-0.032 0.055,-0.054 0.096,-0.066c-0.037,-0.013 -0.065,-0.033 -0.084,-0.06c-0.019,-0.028 -0.029,-0.062 -0.029,-0.101c0,-0.06 0.02,-0.107 0.059,-0.142c0.04,-0.036 0.093,-0.053 0.161,-0.053c0.067,-0 0.121,0.017 0.161,0.053c0.039,0.035 0.059,0.082 0.059,0.142c-0,0.04 -0.009,0.074 -0.028,0.1c-0.019,0.028 -0.047,0.048 -0.083,0.061c0.04,0.012 0.072,0.034 0.095,0.066c0.023,0.032 0.034,0.071 0.034,0.118c0,0.068 -0.021,0.121 -0.062,0.159c-0.041,0.038 -0.1,0.057 -0.176,0.057Zm-0,-0.455c0.028,0 0.051,-0.008 0.068,-0.025c0.016,-0.018 0.024,-0.04 0.024,-0.068c0,-0.029 -0.008,-0.051 -0.024,-0.068c-0.017,-0.016 -0.039,-0.024 -0.068,-0.024c-0.028,0 -0.051,0.008 -0.067,0.025c-0.017,0.017 -0.025,0.039 -0.025,0.067c-0,0.028 0.008,0.05 0.025,0.068c0.016,0.017 0.039,0.025 0.067,0.025Zm-0,0.339c0.033,-0 0.059,-0.01 0.078,-0.031c0.02,-0.02 0.03,-0.047 0.03,-0.082c0,-0.032 -0.01,-0.059 -0.03,-0.08c-0.009,-0.009 -0.02,-0.017 -0.033,-0.022c-0.013,-0.006 -0.028,-0.008 -0.045,-0.008c-0.033,-0 -0.059,0.01 -0.078,0.03c-0.02,0.02 -0.03,0.047 -0.03,0.081c-0,0.033 0.01,0.061 0.03,0.082c0.008,0.009 0.02,0.016 0.033,0.022c0.013,0.005 0.028,0.008 0.045,0.008Z" style="fill:#232246;fill-rule:nonzero;"/></g><g transform="matrix(20.8333,0,0,20.8333,2337.45,689.404)"><path d="M0.245,0.019c-0.013,0 -0.025,-0.001 -0.037,-0.002c-0.011,-0.001 -0.023,-0.003 -0.035,-0.005c-0.026,-0.006 -0.05,-0.013 -0.074,-0.022l0,-0.131c0.025,0.015 0.05,0.026 0.074,0.033c0.023,0.007 0.046,0.011 0.069,0.011c0.024,-0 0.047,-0.004 0.067,-0.013c0.02,-0.008 0.037,-0.022 0.051,-0.039c0.013,-0.017 0.023,-0.038 0.031,-0.064c0.007,-0.026 0.011,-0.056 0.012,-0.092c-0.031,0.043 -0.079,0.064 -0.143,0.064c-0.066,-0 -0.117,-0.021 -0.153,-0.063c-0.035,-0.041 -0.053,-0.1 -0.053,-0.176c0,-0.081 0.02,-0.144 0.06,-0.189c0.039,-0.045 0.098,-0.067 0.174,-0.067c0.045,0 0.083,0.008 0.114,0.023c0.03,0.016 0.056,0.038 0.075,0.067c0.022,0.032 0.038,0.072 0.047,0.119c0.009,0.047 0.014,0.1 0.014,0.158c0,0.071 -0.006,0.131 -0.019,0.178c-0.013,0.047 -0.031,0.085 -0.054,0.115c-0.026,0.033 -0.057,0.057 -0.094,0.072c-0.038,0.015 -0.08,0.023 -0.126,0.023Zm0.043,-0.381c0.031,0 0.055,-0.011 0.071,-0.034c0.017,-0.023 0.025,-0.056 0.025,-0.098c-0,-0.022 -0.002,-0.042 -0.007,-0.058c-0.004,-0.016 -0.01,-0.03 -0.018,-0.04c-0.016,-0.023 -0.04,-0.034 -0.071,-0.034c-0.017,0 -0.031,0.003 -0.043,0.009c-0.011,0.006 -0.021,0.014 -0.029,0.025c-0.017,0.023 -0.025,0.055 -0.025,0.098c-0,0.043 0.008,0.075 0.025,0.098c0.017,0.023 0.041,0.034 0.072,0.034Z" style="fill:#232246;fill-rule:nonzero;"/></g><g transform="matrix(20.8333,0,0,20.8333,2349.99,689.404)"><path d="M0.301,0.014c-0.08,0 -0.141,-0.031 -0.181,-0.095c-0.04,-0.062 -0.06,-0.157 -0.06,-0.283c0,-0.126 0.02,-0.221 0.06,-0.284c0.04,-0.063 0.1,-0.094 0.181,-0.094c0.081,-0 0.141,0.031 0.181,0.094c0.04,0.063 0.06,0.158 0.06,0.284c-0,0.252 -0.08,0.378 -0.241,0.378Zm-0,-0.122c0.033,0 0.058,-0.02 0.073,-0.061c0.015,-0.041 0.023,-0.106 0.023,-0.195c-0,-0.089 -0.008,-0.154 -0.023,-0.195c-0.015,-0.041 -0.04,-0.061 -0.073,-0.061c-0.033,-0 -0.058,0.02 -0.073,0.061c-0.015,0.041 -0.023,0.106 -0.023,0.195c0,0.089 0.008,0.154 0.023,0.195c0.015,0.041 0.04,0.061 0.073,0.061Zm0,-0.117c-0.005,0 -0.009,-0.006 -0.012,-0.017c-0.003,-0.012 -0.006,-0.026 -0.008,-0.04c-0.001,-0.013 -0.002,-0.027 -0.004,-0.044c-0.001,-0.018 -0.002,-0.031 -0.002,-0.04c0,-0.006 0.001,-0.017 0.001,-0.034c0.001,-0.016 0.002,-0.032 0.004,-0.047c0.005,-0.038 0.012,-0.057 0.02,-0.057c0.005,0 0.009,0.006 0.013,0.016c0.004,0.011 0.006,0.025 0.008,0.042c0.002,0.014 0.003,0.029 0.004,0.045c0.001,0.017 0.002,0.029 0.002,0.038c-0,0.006 -0.001,0.016 -0.001,0.032c-0.001,0.016 -0.002,0.032 -0.004,0.048c-0.004,0.039 -0.011,0.058 -0.021,0.058Z" style="fill:#232246;fill-rule:nonzero;"/></g><g transform="matrix(20.8333,0,0,20.8333,2048.97,710.237)"><path d="M0.112,0.07l0.059,-0c0.034,-0 0.057,-0.007 0.069,-0.021c0.011,-0.014 0.017,-0.045 0.017,-0.091l0,-0.1c0,-0.054 0.008,-0.092 0.024,-0.113c0.017,-0.023 0.045,-0.037 0.085,-0.044c-0.041,-0.006 -0.069,-0.02 -0.085,-0.042c-0.016,-0.022 -0.024,-0.059 -0.024,-0.113l0,-0.102c0,-0.046 -0.005,-0.076 -0.017,-0.09c-0.006,-0.007 -0.015,-0.013 -0.027,-0.016c-0.012,-0.003 -0.026,-0.005 -0.042,-0.005l-0.059,0l0,-0.093l0.074,0c0.081,0 0.135,0.012 0.162,0.036c0.027,0.024 0.04,0.072 0.04,0.144l0,0.105c0.002,0.034 0.006,0.061 0.013,0.079c0.006,0.018 0.018,0.031 0.035,0.038c0.017,0.007 0.042,0.011 0.074,0.013l0.045,-0l0,0.093l-0.045,0c-0.046,0 -0.077,0.009 -0.095,0.028c-0.018,0.019 -0.027,0.053 -0.027,0.102l0,0.105c0,0.072 -0.013,0.12 -0.04,0.144c-0.028,0.024 -0.082,0.036 -0.162,0.036l-0.074,0l0,-0.093Z" style="fill:#232246;fill-rule:nonzero;"/></g></g><g><path d="M772.029,643.277l-44.348,-0l-16.108,16.108l-0,69.389l60.456,-0l-0,-85.497Z" style="fill:none;stroke:#2f2ff4;stroke-width:4.17px;"/><path d="M728.453,642.675l0,17.958l-17.522,0l17.522,-17.958Zm-4.167,10.237l0,3.555c0,-0 -3.468,-0 -3.468,-0l3.468,-3.555Z" style="fill:#2f2ff4;"/></g><path d="M483.633,71.769l-5.389,-0l0.821,-3.221l5.388,0l1.769,-7.031l-5.431,0l0.821,-3.241l5.431,-0l2.189,-8.736l3.368,0l-2.21,8.736l5.178,-0l2.21,-8.736l3.347,0l-2.189,8.736l5.388,-0l-0.821,3.241l-5.388,0l-1.768,7.031l5.43,0l-0.821,3.221l-5.43,-0l-2.19,8.714l-3.367,0l2.189,-8.714l-5.158,-0l-2.21,8.714l-3.368,0l2.211,-8.714Zm9.346,-3.221l1.768,-7.031l-5.178,0l-1.748,7.031l5.158,0Z" style="fill:#232246;fill-rule:nonzero;stroke:#e83a5e;stroke-width:1px;stroke-linejoin:round;stroke-miterlimit:2;"/><rect x="532.257" y="84.483" width="21.976" height="2.526" style="fill:#232246;fill-rule:nonzero;stroke:#e83a5e;stroke-width:1px;stroke-linejoin:round;stroke-miterlimit:2;"/><path d="M484.649,863.052c-0.716,-0.042 -1.775,-0.225 -3.179,-0.547c-0.715,-0.169 -1.403,-0.369 -2.063,-0.6c-0.659,-0.232 -1.312,-0.495 -1.957,-0.79l0.736,-3.789c1.137,0.842 2.372,1.495 3.705,1.958c1.305,0.463 2.624,0.73 3.958,0.8l1.894,-9.788c-1.052,-0.239 -2.024,-0.541 -2.915,-0.905c-0.891,-0.365 -1.639,-0.821 -2.242,-1.369c-0.533,-0.491 -0.947,-1.07 -1.242,-1.736c-0.295,-0.667 -0.442,-1.477 -0.442,-2.432c-0,-2.427 0.933,-4.448 2.8,-6.062c0.94,-0.814 2.024,-1.431 3.252,-1.852c1.228,-0.421 2.256,-0.653 3.083,-0.695l1.011,-4.947l3.789,0l-0.99,4.947c0.071,0.042 0.414,0.105 1.032,0.19c0.617,0.084 1.137,0.168 1.558,0.252c0.421,0.084 0.936,0.207 1.547,0.369c0.61,0.161 1.147,0.319 1.61,0.473l-0.674,3.642c-0.968,-0.604 -1.964,-1.056 -2.989,-1.358c-1.024,-0.302 -2.119,-0.516 -3.283,-0.642l-1.705,8.967c2.301,0.477 4.076,1.298 5.325,2.463c0.632,0.589 1.102,1.252 1.411,1.989c0.308,0.737 0.463,1.604 0.463,2.6c-0,2.526 -0.962,4.624 -2.884,6.294c-1.923,1.684 -4.4,2.526 -7.431,2.526l0.632,-0l-1.242,6.378l-3.81,-0l1.242,-6.336Zm5.473,-24.923c-1.516,0.098 -2.807,0.631 -3.873,1.6c-1.067,0.968 -1.6,2.14 -1.6,3.515c-0,0.968 0.294,1.719 0.884,2.252c0.547,0.491 1.515,0.912 2.905,1.263l1.684,-8.63Zm-1.684,21.871c1.684,-0 3.08,-0.513 4.189,-1.537c1.108,-1.024 1.663,-2.316 1.663,-3.873c-0,-1.179 -0.33,-2.056 -0.99,-2.631c-0.673,-0.59 -1.691,-1.018 -3.052,-1.284l-1.81,9.325Z" style="fill:#232246;fill-rule:nonzero;stroke:#e83a5e;stroke-width:1px;stroke-linejoin:round;stroke-miterlimit:2;"/><rect x="530.685" y="867.051" width="21.976" height="2.526" style="fill:#232246;fill-rule:nonzero;stroke:#e83a5e;stroke-width:1px;stroke-linejoin:round;stroke-miterlimit:2;"/></g><defs><linearGradient id="_Linear1" x1="0" y1="0" x2="1" y2="0" gradientUnits="userSpaceOnUse" gradientTransform="matrix(298.499,0,0,298.499,0.00662628,549.797)"><stop offset="0" style="stop-color:#232246;stop-opacity:1"/><stop offset="0.96" style="stop-color:#ec3a5e;stop-opacity:1"/><stop offset="1" style="stop-color:#ec3a5e;stop-opacity:1"/></linearGradient><linearGradient id="_Linear2" x1="0" y1="0" x2="1" y2="0" gradientUnits="userSpaceOnUse" gradientTransform="matrix(298.501,0,0,298.501,430.2,897.245)"><stop offset="0" style="stop-color:#232246;stop-opacity:1"/><stop offset="1" style="stop-color:#ec3a5e;stop-opacity:1"/></linearGradient><linearGradient id="_Linear3" x1="0" y1="0" x2="1" y2="0" gradientUnits="userSpaceOnUse" gradientTransform="matrix(298.5,0,0,298.5,430.196,158.547)"><stop offset="0" style="stop-color:#ec3a5e;stop-opacity:1"/><stop offset="1" style="stop-color:#232246;stop-opacity:1"/></linearGradient><linearGradient id="_Linear4" x1="0" y1="0" x2="1" y2="0" gradientUnits="userSpaceOnUse" gradientTransform="matrix(278.43,0,0,385.529,867.628,516.151)"><stop offset="0" style="stop-color:#e4395d;stop-opacity:1"/><stop offset="0.48" style="stop-color:#51274b;stop-opacity:1"/><stop offset="1" style="stop-color:#242246;stop-opacity:1"/></linearGradient><radialGradient id="_Radial5" cx="0" cy="0" r="1" gradientUnits="userSpaceOnUse" gradientTransform="matrix(176.987,0,0,176.987,490.957,549.797)"><stop offset="0" style="stop-color:#ec3a5e;stop-opacity:1"/><stop offset="0.63" style="stop-color:#ce3876;stop-opacity:1"/><stop offset="0.83" style="stop-color:#8334b1;stop-opacity:1"/><stop offset="1" style="stop-color:#2f2ff4;stop-opacity:1"/></radialGradient><radialGradient id="_Radial6" cx="0" cy="0" r="1" gradientUnits="userSpaceOnUse" gradientTransform="matrix(176.987,0,0,176.987,490.957,549.797)"><stop offset="0" style="stop-color:#ec3a5e;stop-opacity:1"/><stop offset="0.63" style="stop-color:#ce3876;stop-opacity:1"/><stop offset="0.83" style="stop-color:#8334b1;stop-opacity:1"/><stop offset="1" style="stop-color:#2f2ff4;stop-opacity:1"/></radialGradient></defs></svg>