<?xml version="1.0" encoding="UTF-8" standalone="no"?><!DOCTYPE svg PUBLIC "-//W3C//DTD SVG 1.1//EN" "http://www.w3.org/Graphics/SVG/1.1/DTD/svg11.dtd"><svg width="100%" height="100%" viewBox="0 0 696 688" version="1.1" xmlns="http://www.w3.org/2000/svg" xmlns:xlink="http://www.w3.org/1999/xlink" xml:space="preserve" xmlns:serif="http://www.serif.com/" style="fill-rule:evenodd;clip-rule:evenodd;stroke-linejoin:round;stroke-miterlimit:2;"><g><path d="M160.735,272.603c-27.639,0 -52.023,16.068 -63.534,39.996c-5.107,-4.749 -11.901,-7.578 -19.234,-7.578c-15.541,-0 -28.135,12.546 -28.264,28.056c-28.829,7.25 -49.703,31.227 -49.703,59.436c0,34.236 30.496,61.72 67.819,61.72l112.28,0c37.324,0 67.82,-27.484 67.82,-61.72c0,-15.271 -6.18,-29.607 -16.977,-40.748c0.146,-1.831 0.338,-3.654 0.338,-5.503l0,-3.114c0,-38.959 -31.583,-70.545 -70.545,-70.545Zm0,12.458c32.08,0 58.087,26.008 58.087,58.087l-0,3.114c-0,2.362 -0.16,4.716 -0.44,7.034c-0.082,0.678 -0.035,1.33 0.105,1.998c0.259,1.927 1.294,3.647 2.958,4.594c8.938,8.954 14.015,20.426 14.015,32.625c0,27.048 -24.646,49.262 -55.361,49.262l-112.28,0c-30.716,0 -55.361,-22.214 -55.361,-49.262c0,-24.129 19.742,-44.774 46.485,-48.613c3.405,-0.488 5.758,-3.654 5.268,-7.059c-0.216,-1.512 -0.997,-2.771 -2.05,-3.712c0.101,-8.654 7.128,-15.65 15.806,-15.65c6.268,-0 11.83,3.699 14.38,9.292c-0.163,2.908 1.612,5.633 4.542,6.384c3.332,0.855 6.722,-1.158 7.579,-4.49c6.532,-25.468 29.595,-43.604 56.267,-43.604Z" style="fill:url(#_Linear1);fill-rule:nonzero;"/></g><g><path d="M313.706,528.519c-16.054,0 -28.509,15.776 -28.509,34.73l0,63.846c0,10.781 4.13,20.404 10.558,26.821c-2.172,0.624 -4.061,1.367 -5.528,2.275c-2.564,1.589 -4.271,3.788 -4.271,6.785l0,13.14c0,2.997 1.707,5.189 4.271,6.785c1.666,1.034 3.804,1.859 6.374,2.539c4.774,1.249 11.053,1.95 17.691,1.95l148.875,-0c6.638,-0 12.917,-0.701 17.691,-1.95c2.569,-0.68 4.708,-1.505 6.375,-2.539c2.564,-1.596 4.27,-3.788 4.27,-6.785l0,-13.14c0,-2.997 -1.706,-5.196 -4.27,-6.785c-1.462,-0.908 -3.347,-1.63 -5.508,-2.254c6.441,-6.411 10.559,-16.054 10.559,-26.842l-0,-63.846c-0,-18.954 -12.477,-34.73 -28.531,-34.73l-150.047,0Zm0,10.406l150.047,0c9.694,0 18.124,10.65 18.124,24.324l0,63.846c0,13.674 -8.43,24.344 -18.124,24.351l-150.047,0c-9.694,0 -18.103,-10.677 -18.103,-24.351l0,-63.846c0,-13.674 8.409,-24.324 18.103,-24.324Zm0.586,123.184l46.243,0c-0.004,0.097 -0.065,0.181 -0.065,0.285c-0,4.1 3.31,7.437 7.415,7.437l41.69,-0c4.104,-0 7.436,-3.337 7.436,-7.437c0,-0.104 -0.061,-0.188 -0.065,-0.285l46.221,0c5.798,0 11.203,0.597 15.047,1.603c1.345,0.354 2.179,0.735 2.883,1.089l-0,9.491c-0.704,0.353 -1.538,0.735 -2.883,1.089c-3.844,1.006 -9.249,1.602 -15.047,1.602l-148.875,0c-5.798,0 -11.202,-0.596 -15.046,-1.602c-1.346,-0.354 -2.18,-0.736 -2.884,-1.089l0,-9.491c0.704,-0.354 1.538,-0.735 2.884,-1.089c3.844,-1.006 9.248,-1.603 15.046,-1.603Z" style="fill:url(#_Linear2);fill-rule:nonzero;"/><path d="M322.971,584.231c-0.496,-0.029 -1.231,-0.155 -2.205,-0.379c-0.496,-0.117 -0.973,-0.256 -1.431,-0.417c-0.458,-0.16 -0.91,-0.343 -1.358,-0.547l0.511,-2.629c0.789,0.584 1.645,1.037 2.57,1.358c0.906,0.322 1.821,0.507 2.746,0.555l1.314,-6.79c-0.73,-0.166 -1.404,-0.375 -2.023,-0.628c-0.618,-0.253 -1.136,-0.57 -1.555,-0.95c-0.37,-0.34 -0.657,-0.742 -0.861,-1.204c-0.205,-0.463 -0.307,-1.025 -0.307,-1.687c-0,-1.684 0.647,-3.086 1.942,-4.206c0.652,-0.564 1.404,-0.993 2.256,-1.285c0.852,-0.292 1.565,-0.453 2.14,-0.482l0.701,-3.432l2.628,0l-0.686,3.432c0.049,0.029 0.287,0.073 0.716,0.132c0.428,0.058 0.788,0.116 1.08,0.175c0.292,0.058 0.65,0.143 1.074,0.255c0.423,0.112 0.795,0.222 1.117,0.329l-0.468,2.526c-0.671,-0.418 -1.363,-0.732 -2.073,-0.942c-0.711,-0.209 -1.47,-0.357 -2.278,-0.445l-1.183,6.221c1.596,0.331 2.828,0.901 3.694,1.709c0.438,0.409 0.765,0.869 0.979,1.38c0.214,0.511 0.321,1.112 0.321,1.803c0,1.753 -0.667,3.208 -2.001,4.367c-1.333,1.168 -3.052,1.752 -5.155,1.752l0.438,0l-0.861,4.425l-2.643,-0l0.861,-4.396Zm3.797,-17.29c-1.051,0.068 -1.947,0.438 -2.687,1.11c-0.74,0.671 -1.11,1.484 -1.11,2.438c0,0.672 0.205,1.193 0.614,1.563c0.379,0.341 1.051,0.633 2.015,0.876l1.168,-5.987Zm-1.168,15.173c1.168,-0 2.137,-0.356 2.906,-1.066c0.769,-0.711 1.154,-1.607 1.154,-2.687c-0,-0.818 -0.229,-1.427 -0.687,-1.826c-0.467,-0.409 -1.173,-0.706 -2.117,-0.891l-1.256,6.47Z" style="fill:#232246;fill-rule:nonzero;stroke:#e83a5e;stroke-width:1px;"/><rect x="354.909" y="587.006" width="15.246" height="1.752" style="fill:#232246;fill-rule:nonzero;stroke:#e83a5e;stroke-width:1px;"/></g><g><path d="M311.9,0c-18.495,0 -33.433,15.301 -33.433,34.103l-0,99.999c-0,18.802 14.938,34.08 33.433,34.08l70.975,-0l0.647,40.936l-28.446,0c-8.18,0 -15.377,5.16 -15.377,12.584c0,7.425 7.197,12.583 15.377,12.583l67.328,-0c8.18,-0 15.4,-5.158 15.401,-12.583c-0,-7.424 -7.221,-12.584 -15.401,-12.584l-27.799,0l-0.647,-40.936l71.623,-0c18.494,-0 33.433,-15.278 33.433,-34.08l0,-99.999c0,-18.802 -14.939,-34.103 -33.433,-34.103l-153.681,-0Zm-0,11.083l153.681,-0c12.314,-0 22.351,10.281 22.351,23.02l-0,99.999c-0,12.738 -10.037,22.996 -22.351,22.997l-153.681,-0c-12.315,-0 -22.351,-10.259 -22.351,-22.997l0,-99.999c0,-12.739 10.036,-23.02 22.351,-23.02Zm43.176,209.118l32.764,0c0.46,0.116 0.912,0.262 1.408,0.254c0.42,-0.006 0.786,-0.159 1.178,-0.254l31.978,0c1.527,0 2.895,0.419 3.764,1.039c0.243,0.174 0.362,0.327 0.462,0.462c-0.1,0.135 -0.219,0.288 -0.462,0.462c-0.869,0.62 -2.238,1.038 -3.764,1.038l-67.328,0c-1.526,0 -2.871,-0.418 -3.74,-1.038c-0.244,-0.174 -0.362,-0.327 -0.462,-0.462c0.1,-0.135 0.218,-0.288 0.462,-0.462c0.869,-0.62 2.214,-1.039 3.74,-1.039Z" style="fill:url(#_Linear3);fill-rule:nonzero;"/><path d="M317.945,53.027l-3.981,-0l0.606,-2.38l3.982,-0l1.306,-5.195l-4.012,0l0.606,-2.395l4.013,0l1.617,-6.454l2.489,-0l-1.633,6.454l3.826,0l1.633,-6.454l2.473,-0l-1.618,6.454l3.982,0l-0.607,2.395l-3.981,0l-1.307,5.195l4.013,-0l-0.607,2.38l-4.012,-0l-1.618,6.438l-2.488,0l1.617,-6.438l-3.81,-0l-1.633,6.438l-2.489,0l1.633,-6.438Zm6.906,-2.38l1.306,-5.195l-3.826,0l-1.291,5.195l3.811,-0Z" style="fill:#232246;fill-rule:nonzero;stroke:#e83a5e;stroke-width:1px;"/><rect x="353.872" y="62.42" width="16.237" height="1.866" style="fill:#232246;fill-rule:nonzero;stroke:#e83a5e;stroke-width:1px;"/></g><path d="M695.178,262.116c0,-12.531 -9.766,-22.705 -21.795,-22.705c0,0 -75.17,0 -75.17,0c-12.029,0 -21.795,10.174 -21.795,22.705c0,-0 0,202.605 0,202.605c0,12.531 9.766,22.704 21.795,22.704c-0,0 75.17,0 75.17,0c12.029,0 21.795,-10.173 21.795,-22.704l0,-202.605Zm-87.533,-10.857l-9.432,0c-5.752,0 -10.422,4.865 -10.422,10.857l0,202.605c0,5.992 4.67,10.856 10.422,10.856l75.17,0c5.752,0 10.422,-4.864 10.422,-10.856l-0,-202.605c-0,-5.992 -4.67,-10.857 -10.422,-10.857l-9.432,0c0.138,0.512 0.212,1.052 0.212,1.609l0,4.591c0,3.272 -2.546,5.924 -5.686,5.924l-45.357,0c-3.141,0 -5.687,-2.652 -5.687,-5.924l-0,-4.591c-0,-0.557 0.074,-1.097 0.212,-1.609Zm10.628,207.198c-3.141,-0 -5.687,2.652 -5.687,5.924l0,0.79c0,3.271 2.546,5.924 5.687,5.924l35.05,-0c3.141,-0 5.687,-2.653 5.687,-5.924l-0,-0.79c-0,-0.151 -0.006,-0.301 -0.016,-0.45l-0,-0.005l-0.001,-0.006c-0.163,-2.214 -1.496,-4.087 -3.355,-4.952l-0.038,-0.017l-0.031,-0.014l-0.032,-0.015l-0.032,-0.013l-0.032,-0.014l-0.032,-0.014l-0.033,-0.013l-0.032,-0.013l-0.032,-0.013l-0.033,-0.013l-0.038,-0.015l-0.036,-0.013c-0.037,-0.014 -0.074,-0.027 -0.112,-0.04l-0.011,-0.004l-0.033,-0.012l-0.033,-0.011l-0.034,-0.011l-0.033,-0.01l-0.034,-0.011l-0.033,-0.01l-0.034,-0.01l-0.034,-0.01l-0.034,-0.01l-0.034,-0.009l-0.042,-0.012l-0.032,-0.008l-0.033,-0.009l-0.032,-0.008l-0.032,-0.008l-0.034,-0.008l-0.034,-0.007l-0.035,-0.008l-0.035,-0.008l-0.034,-0.007l-0.035,-0.007l-0.035,-0.007l-0.035,-0.007l-0.035,-0.006l-0.035,-0.006l-0.035,-0.006l-0.036,-0.006l-0.045,-0.007l-0.034,-0.005l-0.033,-0.005l-0.034,-0.004l-0.034,-0.004l-0.033,-0.004l-0.036,-0.005l-0.035,-0.003l-0.036,-0.004l-0.036,-0.004l-0.036,-0.003l-0.036,-0.003l-0.036,-0.003l-0.037,-0.002l-0.036,-0.002l-0.036,-0.002l-0.037,-0.002l-0.036,-0.002l-0.046,-0.001l-0.035,-0.001l-0.034,-0.001l-0.035,-0.001l-0.034,0c-0.012,-0 -0.024,-0 -0.036,-0l-35.05,-0Z" style="fill:url(#_Linear4);"/><path d="M367.925,266.757l20.815,8.168l-19.023,11.752l-1.792,-19.92Z" style="fill:url(#_Radial5);"/><path d="M388.74,277.191c23.834,-0.095 45.465,9.496 61.156,25.072c15.737,15.621 25.501,37.252 25.581,61.155c0.067,23.963 -9.601,45.7 -25.28,61.457c-15.71,15.787 -37.447,25.571 -61.457,25.623c-24.044,0.037 -45.847,-9.689 -61.637,-25.443c-15.805,-15.768 -25.585,-37.57 -25.604,-61.637c0.049,-21.22 7.633,-40.71 20.346,-55.758c6.495,-7.688 14.328,-14.217 23.133,-19.205c8.598,-4.872 18.139,-8.222 28.233,-9.867l-0.812,-4.46c-10.487,2.114 -20.286,6.058 -29.131,11.407c-8.964,5.421 -16.933,12.301 -23.562,20.34c-12.912,15.66 -20.761,35.678 -20.711,57.543c-0.02,24.774 10.027,47.218 26.258,63.487c16.246,16.284 38.691,26.383 63.487,26.421c24.832,0.053 47.34,-9.992 63.668,-26.24c16.359,-16.279 26.513,-38.789 26.583,-63.668c0.083,-24.937 -9.985,-47.551 -26.282,-63.968c-16.343,-16.464 -38.961,-26.692 -63.969,-26.792l0,4.533Z" style="fill:url(#_Radial6);"/><g><path d="M419.289,320.971l-44.348,-0l-16.108,16.108l0,69.389l60.456,-0l-0,-85.497Z" style="fill:none;stroke:#2f2ff4;stroke-width:4.17px;stroke-linejoin:miter;stroke-miterlimit:3;"/><path d="M375.713,320.369l0,17.958l-17.521,0l17.521,-17.958Zm-4.166,10.237l-0,3.555c-0,-0 -3.469,-0 -3.469,-0l3.469,-3.555Z" style="fill:#2f2ff4;"/></g><defs><linearGradient id="_Linear1" x1="0" y1="0" x2="1" y2="0" gradientUnits="userSpaceOnUse" gradientTransform="matrix(247.918,0,0,247.918,0.00550346,363.419)"><stop offset="0" style="stop-color:#232246;stop-opacity:1"/><stop offset="0.96" style="stop-color:#ec3a5e;stop-opacity:1"/><stop offset="1" style="stop-color:#ec3a5e;stop-opacity:1"/></linearGradient><linearGradient id="_Linear2" x1="0" y1="0" x2="1" y2="0" gradientUnits="userSpaceOnUse" gradientTransform="matrix(207.087,0,0,207.087,285.197,607.953)"><stop offset="0" style="stop-color:#232246;stop-opacity:1"/><stop offset="1" style="stop-color:#ec3a5e;stop-opacity:1"/></linearGradient><linearGradient id="_Linear3" x1="0" y1="0" x2="1" y2="0" gradientUnits="userSpaceOnUse" gradientTransform="matrix(220.548,0,0,220.548,278.464,117.143)"><stop offset="0" style="stop-color:#ec3a5e;stop-opacity:1"/><stop offset="1" style="stop-color:#232246;stop-opacity:1"/></linearGradient><linearGradient id="_Linear4" x1="0" y1="0" x2="1" y2="0" gradientUnits="userSpaceOnUse" gradientTransform="matrix(211.109,0,0,304.511,576.467,336.843)"><stop offset="0" style="stop-color:#e4395d;stop-opacity:1"/><stop offset="0.48" style="stop-color:#51274b;stop-opacity:1"/><stop offset="1" style="stop-color:#242246;stop-opacity:1"/></linearGradient><radialGradient id="_Radial5" cx="0" cy="0" r="1" gradientUnits="userSpaceOnUse" gradientTransform="matrix(176.987,0,0,176.987,300.247,363.418)"><stop offset="0" style="stop-color:#ec3a5e;stop-opacity:1"/><stop offset="0.63" style="stop-color:#ce3876;stop-opacity:1"/><stop offset="0.83" style="stop-color:#8334b1;stop-opacity:1"/><stop offset="1" style="stop-color:#2f2ff4;stop-opacity:1"/></radialGradient><radialGradient id="_Radial6" cx="0" cy="0" r="1" gradientUnits="userSpaceOnUse" gradientTransform="matrix(176.987,0,0,176.987,300.247,363.418)"><stop offset="0" style="stop-color:#ec3a5e;stop-opacity:1"/><stop offset="0.63" style="stop-color:#ce3876;stop-opacity:1"/><stop offset="0.83" style="stop-color:#8334b1;stop-opacity:1"/><stop offset="1" style="stop-color:#2f2ff4;stop-opacity:1"/></radialGradient></defs></svg>